<svg width="413" height="31" viewBox="0 0 413 31" fill="none" xmlns="http://www.w3.org/2000/svg">
<path d="M0.861903 28.5194C0.596502 28.5957 0.44318 28.8727 0.519449 29.1381C0.595718 29.4035 0.872696 29.5568 1.1381 29.4806L1 29L0.861903 28.5194ZM413 29L408.982 24.8539L407.4 30.4065L413 29ZM1 29L1.1381 29.4806C2.11769 29.199 3.09908 28.9195 4.08227 28.6419L3.94641 28.1607L3.81054 27.6795C2.82587 27.9575 1.84298 28.2375 0.861903 28.5194L1 29ZM9.85758 26.5211L9.989 27.0035C11.9559 26.4677 13.9298 25.9396 15.9106 25.4194L15.7836 24.9358L15.6565 24.4522C13.6729 24.9732 11.696 25.5021 9.72616 26.0387L9.85758 26.5211ZM21.7237 23.4045L21.8463 23.8892C23.8228 23.3892 25.806 22.8969 27.7956 22.4124L27.6774 21.9266L27.5591 21.4408C25.5665 21.926 23.5805 22.419 21.6011 22.9197L21.7237 23.4045ZM33.644 20.5019L33.758 20.9888C35.7432 20.524 37.7348 20.067 39.7327 19.6178L39.623 19.13L39.5133 18.6422C37.5126 19.092 35.5182 19.5497 33.53 20.0151L33.644 20.5019ZM45.6138 17.8105L45.7192 18.2993C47.7125 17.8693 49.7118 17.4471 51.717 17.0327L51.6158 16.5431L51.5147 16.0534C49.5066 16.4684 47.5045 16.8912 45.5084 17.3217L45.6138 17.8105ZM57.6286 15.3274L57.7256 15.8179C59.7262 15.4224 61.7325 15.0345 63.7445 14.6545L63.6516 14.1632L63.5588 13.6719C61.5441 14.0524 59.535 14.4408 57.5317 14.8369L57.6286 15.3274ZM69.6844 13.0501L69.773 13.5422C71.7802 13.1806 73.7928 12.8268 75.8108 12.4807L75.7263 11.9879L75.6418 11.4951C73.6211 11.8416 71.6057 12.196 69.5957 12.558L69.6844 13.0501ZM81.777 10.9762L81.8574 11.4697C83.8706 11.1417 85.8889 10.8214 87.9123 10.5089L87.836 10.0148L87.7597 9.52066C85.7336 9.83357 83.7125 10.1543 81.6966 10.4827L81.777 10.9762ZM93.9028 9.10343L93.9751 9.59818C95.9935 9.30344 98.0169 9.01642 100.045 8.73716L99.977 8.24184L99.9088 7.74651C97.8779 8.02613 95.8517 8.31354 93.8306 8.60868L93.9028 9.10343ZM106.057 7.42988L106.121 7.92575C108.144 7.66399 110.171 7.40994 112.203 7.16366L112.143 6.66729L112.083 6.17093C110.048 6.41753 108.018 6.67191 105.993 6.93402L106.057 7.42988ZM118.235 5.95376L118.292 6.45059C120.318 6.22144 122.35 6 124.385 5.78632L124.333 5.28905L124.281 4.79179C122.243 5.00575 120.209 5.22748 118.179 5.45692L118.235 5.95376ZM130.436 4.67297L130.484 5.17064C132.515 4.97382 134.549 4.7847 136.588 4.60334L136.544 4.10531L136.499 3.60727C134.458 3.78887 132.421 3.97823 130.388 4.1753L130.436 4.67297ZM142.656 3.58587L142.696 4.08423C144.73 3.91948 146.767 3.76242 148.809 3.61313L148.772 3.11446L148.736 2.61579C146.692 2.76528 144.652 2.92253 142.616 3.0875L142.656 3.58587ZM154.892 2.69091L154.925 3.18985C156.961 3.05692 159 2.93169 161.044 2.81422L161.015 2.31504L160.987 1.81587C158.94 1.93349 156.898 2.05887 154.859 2.19197L154.892 2.69091ZM167.141 1.98669L167.166 2.48608C169.204 2.38475 171.246 2.29112 173.291 2.20525L173.27 1.70569L173.249 1.20613C171.201 1.29211 169.157 1.38585 167.117 1.48731L167.141 1.98669ZM179.401 1.47191L179.418 1.97162C181.457 1.90171 183.499 1.8395 185.544 1.78504L185.531 1.28522L185.518 0.785398C183.47 0.839925 181.425 0.90221 179.383 0.972207L179.401 1.47191ZM191.663 1.1454L191.673 1.64531C193.712 1.60658 195.756 1.57555 197.802 1.55228L197.796 1.05231L197.79 0.55234C195.742 0.575645 193.696 0.60671 191.654 0.645489L191.663 1.1454ZM203.93 1.00581L203.932 1.50581C204.954 1.50194 205.977 1.5 207 1.5V1V0.5C205.975 0.5 204.951 0.501941 203.928 0.505817L203.93 1.00581ZM207 1V1.5C208.023 1.5 209.046 1.50194 210.068 1.50581L210.07 1.00581L210.072 0.505817C209.049 0.501941 208.025 0.5 207 0.5V1ZM216.204 1.05231L216.198 1.55228C218.244 1.57555 220.288 1.60658 222.327 1.64531L222.337 1.1454L222.346 0.645489C220.304 0.60671 218.258 0.575645 216.21 0.55234L216.204 1.05231ZM228.469 1.28522L228.456 1.78504C230.501 1.8395 232.543 1.90171 234.582 1.97162L234.599 1.47191L234.617 0.972207C232.575 0.90221 230.53 0.839925 228.482 0.785398L228.469 1.28522ZM240.73 1.70569L240.709 2.20525C242.754 2.29112 244.796 2.38475 246.834 2.48608L246.859 1.98669L246.883 1.48731C244.843 1.38585 242.799 1.29211 240.751 1.20614L240.73 1.70569ZM252.985 2.31505L252.956 2.81422C255 2.93169 257.039 3.05692 259.075 3.18985L259.108 2.69091L259.141 2.19198C257.102 2.05888 255.06 1.93349 253.013 1.81587L252.985 2.31505ZM265.228 3.11446L265.191 3.61313C267.233 3.76243 269.27 3.91948 271.304 4.08423L271.344 3.58587L271.384 3.0875C269.348 2.92253 267.308 2.76528 265.264 2.61579L265.228 3.11446ZM277.456 4.10531L277.412 4.60334C279.451 4.7847 281.485 4.97382 283.516 5.17064L283.564 4.67297L283.612 4.17531C281.579 3.97823 279.542 3.78887 277.501 3.60728L277.456 4.10531ZM289.667 5.28906L289.615 5.78632C291.65 6.00001 293.682 6.22145 295.708 6.4506L295.765 5.95376L295.821 5.45693C293.791 5.22748 291.757 5.00575 289.719 4.79179L289.667 5.28906ZM301.857 6.6673L301.797 7.16367C303.829 7.40995 305.856 7.66399 307.879 7.92575L307.943 7.42988L308.007 6.93402C305.982 6.67192 303.952 6.41754 301.917 6.17093L301.857 6.6673ZM314.023 8.24184L313.955 8.73716C315.983 9.01642 318.006 9.30344 320.025 9.59819L320.097 9.10343L320.169 8.60868C318.148 8.31354 316.122 8.02613 314.091 7.74651L314.023 8.24184ZM326.164 10.0148L326.088 10.5089C328.111 10.8214 330.129 11.1417 332.143 11.4697L332.223 10.9762L332.303 10.4827C330.288 10.1543 328.266 9.83357 326.24 9.52066L326.164 10.0148ZM338.274 11.9879L338.189 12.4807C340.207 12.8268 342.22 13.1806 344.227 13.5422L344.316 13.0501L344.404 12.558C342.394 12.196 340.379 11.8416 338.358 11.4951L338.274 11.9879ZM350.348 14.1632L350.256 14.6545C352.268 15.0345 354.274 15.4224 356.274 15.8179L356.371 15.3274L356.468 14.8369C354.465 14.4408 352.456 14.0524 350.441 13.6719L350.348 14.1632ZM362.384 16.5431L362.283 17.0327C364.288 17.4471 366.288 17.8693 368.281 18.2993L368.386 17.8105L368.492 17.3217C366.496 16.8912 364.493 16.4684 362.485 16.0534L362.384 16.5431ZM374.377 19.13L374.267 19.6178C376.265 20.067 378.257 20.524 380.242 20.9888L380.356 20.5019L380.47 20.0151C378.482 19.5497 376.487 19.092 374.487 18.6422L374.377 19.13ZM386.323 21.9266L386.204 22.4124C388.194 22.8969 390.177 23.3892 392.154 23.8892L392.276 23.4045L392.399 22.9197C390.42 22.419 388.434 21.926 386.441 21.4408L386.323 21.9266ZM398.216 24.9358L398.089 25.4194C400.07 25.9396 402.044 26.4677 404.011 27.0035L404.142 26.5211L404.274 26.0387C402.304 25.5021 400.327 24.9732 398.344 24.4522L398.216 24.9358ZM0.861903 28.5194C0.596502 28.5957 0.44318 28.8727 0.519449 29.1381C0.595718 29.4035 0.872696 29.5568 1.1381 29.4806L1 29L0.861903 28.5194ZM413 29L408.982 24.8539L407.4 30.4065L413 29ZM1 29L1.1381 29.4806C2.11769 29.199 3.09908 28.9195 4.08227 28.6419L3.94641 28.1607L3.81054 27.6795C2.82587 27.9575 1.84298 28.2375 0.861903 28.5194L1 29ZM9.85758 26.5211L9.989 27.0035C11.9559 26.4677 13.9298 25.9396 15.9106 25.4194L15.7836 24.9358L15.6565 24.4522C13.6729 24.9732 11.696 25.5021 9.72616 26.0387L9.85758 26.5211ZM21.7237 23.4045L21.8463 23.8892C23.8228 23.3892 25.806 22.8969 27.7956 22.4124L27.6774 21.9266L27.5591 21.4408C25.5665 21.926 23.5805 22.419 21.6011 22.9197L21.7237 23.4045ZM33.644 20.5019L33.758 20.9888C35.7432 20.524 37.7348 20.067 39.7327 19.6178L39.623 19.13L39.5133 18.6422C37.5126 19.092 35.5182 19.5497 33.53 20.0151L33.644 20.5019ZM45.6138 17.8105L45.7192 18.2993C47.7125 17.8693 49.7118 17.4471 51.717 17.0327L51.6158 16.5431L51.5147 16.0534C49.5066 16.4684 47.5045 16.8912 45.5084 17.3217L45.6138 17.8105ZM57.6286 15.3274L57.7256 15.8179C59.7262 15.4224 61.7325 15.0345 63.7445 14.6545L63.6516 14.1632L63.5588 13.6719C61.5441 14.0524 59.535 14.4408 57.5317 14.8369L57.6286 15.3274ZM69.6844 13.0501L69.773 13.5422C71.7802 13.1806 73.7928 12.8268 75.8108 12.4807L75.7263 11.9879L75.6418 11.4951C73.6211 11.8416 71.6057 12.196 69.5957 12.558L69.6844 13.0501ZM81.777 10.9762L81.8574 11.4697C83.8706 11.1417 85.8889 10.8214 87.9123 10.5089L87.836 10.0148L87.7597 9.52066C85.7336 9.83357 83.7125 10.1543 81.6966 10.4827L81.777 10.9762ZM93.9028 9.10343L93.9751 9.59818C95.9935 9.30344 98.0169 9.01642 100.045 8.73716L99.977 8.24184L99.9088 7.74651C97.8779 8.02613 95.8517 8.31354 93.8306 8.60868L93.9028 9.10343ZM106.057 7.42988L106.121 7.92575C108.144 7.66399 110.171 7.40994 112.203 7.16366L112.143 6.66729L112.083 6.17093C110.048 6.41753 108.018 6.67191 105.993 6.93402L106.057 7.42988ZM118.235 5.95376L118.292 6.45059C120.318 6.22144 122.35 6 124.385 5.78632L124.333 5.28905L124.281 4.79179C122.243 5.00575 120.209 5.22748 118.179 5.45692L118.235 5.95376ZM130.436 4.67297L130.484 5.17064C132.515 4.97382 134.549 4.7847 136.588 4.60334L136.544 4.10531L136.499 3.60727C134.458 3.78887 132.421 3.97823 130.388 4.1753L130.436 4.67297ZM142.656 3.58587L142.696 4.08423C144.73 3.91948 146.767 3.76242 148.809 3.61313L148.772 3.11446L148.736 2.61579C146.692 2.76528 144.652 2.92253 142.616 3.0875L142.656 3.58587ZM154.892 2.69091L154.925 3.18985C156.961 3.05692 159 2.93169 161.044 2.81422L161.015 2.31504L160.987 1.81587C158.94 1.93349 156.898 2.05887 154.859 2.19197L154.892 2.69091ZM167.141 1.98669L167.166 2.48608C169.204 2.38475 171.246 2.29112 173.291 2.20525L173.27 1.70569L173.249 1.20613C171.201 1.29211 169.157 1.38585 167.117 1.48731L167.141 1.98669ZM179.401 1.47191L179.418 1.97162C181.457 1.90171 183.499 1.8395 185.544 1.78504L185.531 1.28522L185.518 0.785398C183.47 0.839925 181.425 0.90221 179.383 0.972207L179.401 1.47191ZM191.663 1.1454L191.673 1.64531C193.712 1.60658 195.756 1.57555 197.802 1.55228L197.796 1.05231L197.79 0.55234C195.742 0.575645 193.696 0.60671 191.654 0.645489L191.663 1.1454ZM203.93 1.00581L203.932 1.50581C204.954 1.50194 205.977 1.5 207 1.5V1V0.5C205.975 0.5 204.951 0.501941 203.928 0.505817L203.93 1.00581ZM207 1V1.5C208.023 1.5 209.046 1.50194 210.068 1.50581L210.07 1.00581L210.072 0.505817C209.049 0.501941 208.025 0.5 207 0.5V1ZM216.204 1.05231L216.198 1.55228C218.244 1.57555 220.288 1.60658 222.327 1.64531L222.337 1.1454L222.346 0.645489C220.304 0.60671 218.258 0.575645 216.21 0.55234L216.204 1.05231ZM228.469 1.28522L228.456 1.78504C230.501 1.8395 232.543 1.90171 234.582 1.97162L234.599 1.47191L234.617 0.972207C232.575 0.90221 230.53 0.839925 228.482 0.785398L228.469 1.28522ZM240.73 1.70569L240.709 2.20525C242.754 2.29112 244.796 2.38475 246.834 2.48608L246.859 1.98669L246.883 1.48731C244.843 1.38585 242.799 1.29211 240.751 1.20614L240.73 1.70569ZM252.985 2.31505L252.956 2.81422C255 2.93169 257.039 3.05692 259.075 3.18985L259.108 2.69091L259.141 2.19198C257.102 2.05888 255.06 1.93349 253.013 1.81587L252.985 2.31505ZM265.228 3.11446L265.191 3.61313C267.233 3.76243 269.27 3.91948 271.304 4.08423L271.344 3.58587L271.384 3.0875C269.348 2.92253 267.308 2.76528 265.264 2.61579L265.228 3.11446ZM277.456 4.10531L277.412 4.60334C279.451 4.7847 281.485 4.97382 283.516 5.17064L283.564 4.67297L283.612 4.17531C281.579 3.97823 279.542 3.78887 277.501 3.60728L277.456 4.10531ZM289.667 5.28906L289.615 5.78632C291.65 6.00001 293.682 6.22145 295.708 6.4506L295.765 5.95376L295.821 5.45693C293.791 5.22748 291.757 5.00575 289.719 4.79179L289.667 5.28906ZM301.857 6.6673L301.797 7.16367C303.829 7.40995 305.856 7.66399 307.879 7.92575L307.943 7.42988L308.007 6.93402C305.982 6.67192 303.952 6.41754 301.917 6.17093L301.857 6.6673ZM314.023 8.24184L313.955 8.73716C315.983 9.01642 318.006 9.30344 320.025 9.59819L320.097 9.10343L320.169 8.60868C318.148 8.31354 316.122 8.02613 314.091 7.74651L314.023 8.24184ZM326.164 10.0148L326.088 10.5089C328.111 10.8214 330.129 11.1417 332.143 11.4697L332.223 10.9762L332.303 10.4827C330.288 10.1543 328.266 9.83357 326.24 9.52066L326.164 10.0148ZM338.274 11.9879L338.189 12.4807C340.207 12.8268 342.22 13.1806 344.227 13.5422L344.316 13.0501L344.404 12.558C342.394 12.196 340.379 11.8416 338.358 11.4951L338.274 11.9879ZM350.348 14.1632L350.256 14.6545C352.268 15.0345 354.274 15.4224 356.274 15.8179L356.371 15.3274L356.468 14.8369C354.465 14.4408 352.456 14.0524 350.441 13.6719L350.348 14.1632ZM362.384 16.5431L362.283 17.0327C364.288 17.4471 366.288 17.8693 368.281 18.2993L368.386 17.8105L368.492 17.3217C366.496 16.8912 364.493 16.4684 362.485 16.0534L362.384 16.5431ZM374.377 19.13L374.267 19.6178C376.265 20.067 378.257 20.524 380.242 20.9888L380.356 20.5019L380.47 20.0151C378.482 19.5497 376.487 19.092 374.487 18.6422L374.377 19.13ZM386.323 21.9266L386.204 22.4124C388.194 22.8969 390.177 23.3892 392.154 23.8892L392.276 23.4045L392.399 22.9197C390.42 22.419 388.434 21.926 386.441 21.4408L386.323 21.9266ZM398.216 24.9358L398.089 25.4194C400.07 25.9396 402.044 26.4677 404.011 27.0035L404.142 26.5211L404.274 26.0387C402.304 25.5021 400.327 24.9732 398.344 24.4522L398.216 24.9358Z" fill="#1B1D21"/>
</svg>
