<svg width="434" height="31" viewBox="0 0 434 31" fill="none" xmlns="http://www.w3.org/2000/svg">
<path d="M0.868124 2.4823C0.601759 2.40946 0.444872 2.13449 0.517705 1.86812C0.590538 1.60176 0.865512 1.44487 1.13188 1.5177L1 2L0.868124 2.4823ZM434 2L429.93 6.09472L428.419 0.522463L434 2ZM1 2L1.13188 1.5177C2.10656 1.78422 3.08294 2.04898 4.06101 2.312L3.93116 2.79485L3.80132 3.27769C2.8219 3.01431 1.84416 2.74918 0.868124 2.4823L1 2ZM9.811 4.34961L9.9368 3.8657C11.8931 4.37427 13.8561 4.87587 15.8255 5.37045L15.7037 5.85539L15.5819 6.34033C13.6098 5.84508 11.6442 5.34279 9.6852 4.83353L9.811 4.34961ZM21.6087 7.31257L21.7265 6.82665C23.6912 7.30296 25.6622 7.77231 27.6394 8.23467L27.5255 8.72153L27.4117 9.2084C25.4319 8.74543 23.4582 8.27545 21.4909 7.7985L21.6087 7.31257ZM33.4537 10.0826L33.5636 9.59486C35.536 10.0394 37.5145 10.477 39.4988 10.9076L39.3928 11.3962L39.2867 11.8848C37.2998 11.4537 35.3188 11.0155 33.3438 10.5704L33.4537 10.0826ZM45.3423 12.6626L45.4444 12.1732C47.4235 12.5863 49.4082 12.9924 51.3986 13.3916L51.3002 13.8819L51.2019 14.3721C49.209 13.9724 47.2217 13.5657 45.2401 13.1521L45.3423 12.6626ZM57.267 15.0544L57.3615 14.5635C59.3467 14.9456 61.3374 15.3208 63.3335 15.6891L63.2428 16.1808L63.152 16.6725C61.1535 16.3038 59.1602 15.9281 57.1724 15.5454L57.267 15.0544ZM69.2272 17.2612L69.3142 16.7688C71.3054 17.1204 73.3018 17.4652 75.3032 17.8029L75.22 18.296L75.1368 18.789C73.1329 18.4508 71.134 18.1056 69.1403 17.7536L69.2272 17.2612ZM81.2208 19.2853L81.3002 18.7917C83.2968 19.1132 85.2984 19.4277 87.3048 19.7354L87.229 20.2296L87.1532 20.7238C85.1444 20.4158 83.1403 20.1008 81.1413 19.779L81.2208 19.2853ZM93.2445 21.1289L93.3166 20.6342C95.3181 20.9258 97.3243 21.2106 99.3352 21.4884L99.2668 21.9837L99.1983 22.479C97.185 22.2008 95.1763 21.9157 93.1724 21.6237L93.2445 21.1289ZM105.296 22.794L105.36 22.2982C107.366 22.5602 109.376 22.8154 111.39 23.0637L111.329 23.5599L111.268 24.0561C109.251 23.8076 107.239 23.5521 105.231 23.2897L105.296 22.794ZM117.367 24.2817L117.424 23.785C119.433 24.0177 121.446 24.2436 123.464 24.4626L123.41 24.9597L123.356 25.4567C121.336 25.2375 119.32 25.0114 117.309 24.7783L117.367 24.2817ZM129.458 25.5941L129.508 25.0967C131.521 25.3005 133.537 25.4974 135.558 25.6874L135.511 26.1852L135.464 26.683C133.441 26.4928 131.422 26.2956 129.408 26.0916L129.458 25.5941ZM141.568 26.7331L141.612 26.235C143.627 26.4101 145.646 26.5783 147.67 26.7396L147.63 27.238L147.59 27.7364C145.565 27.5749 143.543 27.4065 141.525 27.2312L141.568 26.7331ZM153.695 27.7L153.732 27.2013C155.749 27.3479 157.771 27.4876 159.795 27.6203L159.763 28.1193L159.73 28.6182C157.703 28.4853 155.679 28.3454 153.659 28.1987L153.695 27.7ZM165.832 28.4959L165.861 27.9967C167.88 28.1149 169.903 28.2263 171.929 28.3308L171.903 28.8301L171.878 29.3294C169.849 29.2249 167.824 29.1134 165.802 28.995L165.832 28.4959ZM177.978 29.1221L178 28.6226C180.021 28.7128 182.046 28.7961 184.074 28.8724L184.055 29.3721L184.036 29.8717C182.006 29.7953 179.979 29.7119 177.956 29.6216L177.978 29.1221ZM190.134 29.5801L190.149 29.0803C192.172 29.1425 194.198 29.1979 196.227 29.2464L196.215 29.7462L196.203 30.2461C194.172 30.1976 192.144 30.1421 190.119 30.0798L190.134 29.5801ZM202.295 29.8706L202.303 29.3707C204.326 29.4052 206.352 29.4328 208.38 29.4535L208.375 29.9535L208.37 30.4534C206.339 30.4327 204.311 30.4051 202.286 30.3706L202.295 29.8706ZM214.456 29.9948L214.458 29.4948C215.471 29.4983 216.485 29.5 217.5 29.5V30V30.5C216.484 30.5 215.469 30.4983 214.454 30.4948L214.456 29.9948ZM217.5 30V29.5C218.515 29.5 219.529 29.4983 220.542 29.4948L220.544 29.9948L220.546 30.4948C219.531 30.4983 218.516 30.5 217.5 30.5V30ZM226.625 29.9535L226.62 29.4535C228.648 29.4328 230.674 29.4052 232.696 29.3707L232.705 29.8706L232.713 30.3706C230.689 30.4051 228.661 30.4327 226.63 30.4534L226.625 29.9535ZM238.785 29.7462L238.773 29.2464C240.802 29.1979 242.828 29.1425 244.851 29.0803L244.866 29.5801L244.881 30.0798C242.856 30.1421 240.828 30.1976 238.797 30.2461L238.785 29.7462ZM250.945 29.3721L250.926 28.8724C252.954 28.7961 254.978 28.7128 257 28.6226L257.022 29.1221L257.044 29.6216C255.021 29.7119 252.994 29.7953 250.964 29.8717L250.945 29.3721ZM263.096 28.8301L263.071 28.3308C265.097 28.2263 267.12 28.1149 269.139 27.9967L269.168 28.4959L269.198 28.995C267.176 29.1134 265.151 29.2249 263.122 29.3294L263.096 28.8301ZM275.237 28.1193L275.204 27.6203C277.229 27.4876 279.251 27.3479 281.268 27.2013L281.305 27.7L281.341 28.1987C279.321 28.3454 277.297 28.4853 275.27 28.6182L275.237 28.1193ZM287.37 27.238L287.33 26.7396C289.354 26.5783 291.373 26.4101 293.388 26.235L293.432 26.7331L293.475 27.2312C291.457 27.4065 289.435 27.5749 287.41 27.7364L287.37 27.238ZM299.489 26.1852L299.442 25.6874C301.463 25.4974 303.479 25.3005 305.492 25.0967L305.542 25.5941L305.592 26.0916C303.578 26.2956 301.559 26.4928 299.536 26.683L299.489 26.1852ZM311.59 24.9597L311.536 24.4626C313.554 24.2436 315.567 24.0177 317.576 23.785L317.633 24.2817L317.691 24.7783C315.68 25.0114 313.664 25.2375 311.644 25.4567L311.59 24.9597ZM323.671 23.5599L323.61 23.0636C325.624 22.8154 327.634 22.5602 329.64 22.2982L329.705 22.794L329.769 23.2897C327.761 23.5521 325.749 23.8076 323.732 24.0561L323.671 23.5599ZM335.733 21.9837L335.665 21.4884C337.676 21.2105 339.682 20.9258 341.683 20.6342L341.756 21.1289L341.828 21.6237C339.824 21.9157 337.815 22.2008 335.802 22.479L335.733 21.9837ZM347.771 20.2296L347.695 19.7354C349.702 19.4277 351.703 19.1132 353.7 18.7917L353.779 19.2853L353.859 19.779C351.86 20.1008 349.856 20.4158 347.847 20.7238L347.771 20.2296ZM359.78 18.296L359.697 17.8029C361.698 17.4652 363.695 17.1204 365.686 16.7688L365.773 17.2612L365.86 17.7536C363.866 18.1056 361.867 18.4508 359.863 18.789L359.78 18.296ZM371.757 16.1808L371.667 15.6891C373.663 15.3208 375.653 14.9456 377.639 14.5635L377.733 15.0544L377.828 15.5454C375.84 15.9281 373.847 16.3038 371.848 16.6725L371.757 16.1808ZM383.7 13.8819L383.601 13.3916C385.592 12.9924 387.577 12.5863 389.556 12.1732L389.658 12.6626L389.76 13.1521C387.778 13.5657 385.791 13.9724 383.798 14.3721L383.7 13.8819ZM395.607 11.3962L395.501 10.9076C397.486 10.477 399.464 10.0394 401.436 9.59487L401.546 10.0826L401.656 10.5704C399.681 11.0155 397.7 11.4537 395.713 11.8849L395.607 11.3962ZM407.474 8.72154L407.361 8.23467C409.338 7.77232 411.309 7.30297 413.273 6.82666L413.391 7.31258L413.509 7.79851C411.542 8.27546 409.568 8.74544 407.588 9.2084L407.474 8.72154ZM419.296 5.8554L419.174 5.37046C421.144 4.87588 423.107 4.37428 425.063 3.86571L425.189 4.34963L425.315 4.83354C423.356 5.34281 421.39 5.84509 419.418 6.34035L419.296 5.8554ZM0.868124 2.4823C0.601759 2.40946 0.444872 2.13449 0.517705 1.86812C0.590538 1.60176 0.865512 1.44487 1.13188 1.5177L1 2L0.868124 2.4823ZM434 2L429.93 6.09472L428.419 0.522463L434 2ZM1 2L1.13188 1.5177C2.10656 1.78422 3.08294 2.04898 4.06101 2.312L3.93116 2.79485L3.80132 3.27769C2.8219 3.01431 1.84416 2.74918 0.868124 2.4823L1 2ZM9.811 4.34961L9.9368 3.8657C11.8931 4.37427 13.8561 4.87587 15.8255 5.37045L15.7037 5.85539L15.5819 6.34033C13.6098 5.84508 11.6442 5.34279 9.6852 4.83353L9.811 4.34961ZM21.6087 7.31257L21.7265 6.82665C23.6912 7.30296 25.6622 7.77231 27.6394 8.23467L27.5255 8.72153L27.4117 9.2084C25.4319 8.74543 23.4582 8.27545 21.4909 7.7985L21.6087 7.31257ZM33.4537 10.0826L33.5636 9.59486C35.536 10.0394 37.5145 10.477 39.4988 10.9076L39.3928 11.3962L39.2867 11.8848C37.2998 11.4537 35.3188 11.0155 33.3438 10.5704L33.4537 10.0826ZM45.3423 12.6626L45.4444 12.1732C47.4235 12.5863 49.4082 12.9924 51.3986 13.3916L51.3002 13.8819L51.2019 14.3721C49.209 13.9724 47.2217 13.5657 45.2401 13.1521L45.3423 12.6626ZM57.267 15.0544L57.3615 14.5635C59.3467 14.9456 61.3374 15.3208 63.3335 15.6891L63.2428 16.1808L63.152 16.6725C61.1535 16.3038 59.1602 15.9281 57.1724 15.5454L57.267 15.0544ZM69.2272 17.2612L69.3142 16.7688C71.3054 17.1204 73.3018 17.4652 75.3032 17.8029L75.22 18.296L75.1368 18.789C73.1329 18.4508 71.134 18.1056 69.1403 17.7536L69.2272 17.2612ZM81.2208 19.2853L81.3002 18.7917C83.2968 19.1132 85.2984 19.4277 87.3048 19.7354L87.229 20.2296L87.1532 20.7238C85.1444 20.4158 83.1403 20.1008 81.1413 19.779L81.2208 19.2853ZM93.2445 21.1289L93.3166 20.6342C95.3181 20.9258 97.3243 21.2106 99.3352 21.4884L99.2668 21.9837L99.1983 22.479C97.185 22.2008 95.1763 21.9157 93.1724 21.6237L93.2445 21.1289ZM105.296 22.794L105.36 22.2982C107.366 22.5602 109.376 22.8154 111.39 23.0637L111.329 23.5599L111.268 24.0561C109.251 23.8076 107.239 23.5521 105.231 23.2897L105.296 22.794ZM117.367 24.2817L117.424 23.785C119.433 24.0177 121.446 24.2436 123.464 24.4626L123.41 24.9597L123.356 25.4567C121.336 25.2375 119.32 25.0114 117.309 24.7783L117.367 24.2817ZM129.458 25.5941L129.508 25.0967C131.521 25.3005 133.537 25.4974 135.558 25.6874L135.511 26.1852L135.464 26.683C133.441 26.4928 131.422 26.2956 129.408 26.0916L129.458 25.5941ZM141.568 26.7331L141.612 26.235C143.627 26.4101 145.646 26.5783 147.67 26.7396L147.63 27.238L147.59 27.7364C145.565 27.5749 143.543 27.4065 141.525 27.2312L141.568 26.7331ZM153.695 27.7L153.732 27.2013C155.749 27.3479 157.771 27.4876 159.795 27.6203L159.763 28.1193L159.73 28.6182C157.703 28.4853 155.679 28.3454 153.659 28.1987L153.695 27.7ZM165.832 28.4959L165.861 27.9967C167.88 28.1149 169.903 28.2263 171.929 28.3308L171.903 28.8301L171.878 29.3294C169.849 29.2249 167.824 29.1134 165.802 28.995L165.832 28.4959ZM177.978 29.1221L178 28.6226C180.021 28.7128 182.046 28.7961 184.074 28.8724L184.055 29.3721L184.036 29.8717C182.006 29.7953 179.979 29.7119 177.956 29.6216L177.978 29.1221ZM190.134 29.5801L190.149 29.0803C192.172 29.1425 194.198 29.1979 196.227 29.2464L196.215 29.7462L196.203 30.2461C194.172 30.1976 192.144 30.1421 190.119 30.0798L190.134 29.5801ZM202.295 29.8706L202.303 29.3707C204.326 29.4052 206.352 29.4328 208.38 29.4535L208.375 29.9535L208.37 30.4534C206.339 30.4327 204.311 30.4051 202.286 30.3706L202.295 29.8706ZM214.456 29.9948L214.458 29.4948C215.471 29.4983 216.485 29.5 217.5 29.5V30V30.5C216.484 30.5 215.469 30.4983 214.454 30.4948L214.456 29.9948ZM217.5 30V29.5C218.515 29.5 219.529 29.4983 220.542 29.4948L220.544 29.9948L220.546 30.4948C219.531 30.4983 218.516 30.5 217.5 30.5V30ZM226.625 29.9535L226.62 29.4535C228.648 29.4328 230.674 29.4052 232.696 29.3707L232.705 29.8706L232.713 30.3706C230.689 30.4051 228.661 30.4327 226.63 30.4534L226.625 29.9535ZM238.785 29.7462L238.773 29.2464C240.802 29.1979 242.828 29.1425 244.851 29.0803L244.866 29.5801L244.881 30.0798C242.856 30.1421 240.828 30.1976 238.797 30.2461L238.785 29.7462ZM250.945 29.3721L250.926 28.8724C252.954 28.7961 254.978 28.7128 257 28.6226L257.022 29.1221L257.044 29.6216C255.021 29.7119 252.994 29.7953 250.964 29.8717L250.945 29.3721ZM263.096 28.8301L263.071 28.3308C265.097 28.2263 267.12 28.1149 269.139 27.9967L269.168 28.4959L269.198 28.995C267.176 29.1134 265.151 29.2249 263.122 29.3294L263.096 28.8301ZM275.237 28.1193L275.204 27.6203C277.229 27.4876 279.251 27.3479 281.268 27.2013L281.305 27.7L281.341 28.1987C279.321 28.3454 277.297 28.4853 275.27 28.6182L275.237 28.1193ZM287.37 27.238L287.33 26.7396C289.354 26.5783 291.373 26.4101 293.388 26.235L293.432 26.7331L293.475 27.2312C291.457 27.4065 289.435 27.5749 287.41 27.7364L287.37 27.238ZM299.489 26.1852L299.442 25.6874C301.463 25.4974 303.479 25.3005 305.492 25.0967L305.542 25.5941L305.592 26.0916C303.578 26.2956 301.559 26.4928 299.536 26.683L299.489 26.1852ZM311.59 24.9597L311.536 24.4626C313.554 24.2436 315.567 24.0177 317.576 23.785L317.633 24.2817L317.691 24.7783C315.68 25.0114 313.664 25.2375 311.644 25.4567L311.59 24.9597ZM323.671 23.5599L323.61 23.0636C325.624 22.8154 327.634 22.5602 329.64 22.2982L329.705 22.794L329.769 23.2897C327.761 23.5521 325.749 23.8076 323.732 24.0561L323.671 23.5599ZM335.733 21.9837L335.665 21.4884C337.676 21.2105 339.682 20.9258 341.683 20.6342L341.756 21.1289L341.828 21.6237C339.824 21.9157 337.815 22.2008 335.802 22.479L335.733 21.9837ZM347.771 20.2296L347.695 19.7354C349.702 19.4277 351.703 19.1132 353.7 18.7917L353.779 19.2853L353.859 19.779C351.86 20.1008 349.856 20.4158 347.847 20.7238L347.771 20.2296ZM359.78 18.296L359.697 17.8029C361.698 17.4652 363.695 17.1204 365.686 16.7688L365.773 17.2612L365.86 17.7536C363.866 18.1056 361.867 18.4508 359.863 18.789L359.78 18.296ZM371.757 16.1808L371.667 15.6891C373.663 15.3208 375.653 14.9456 377.639 14.5635L377.733 15.0544L377.828 15.5454C375.84 15.9281 373.847 16.3038 371.848 16.6725L371.757 16.1808ZM383.7 13.8819L383.601 13.3916C385.592 12.9924 387.577 12.5863 389.556 12.1732L389.658 12.6626L389.76 13.1521C387.778 13.5657 385.791 13.9724 383.798 14.3721L383.7 13.8819ZM395.607 11.3962L395.501 10.9076C397.486 10.477 399.464 10.0394 401.436 9.59487L401.546 10.0826L401.656 10.5704C399.681 11.0155 397.7 11.4537 395.713 11.8849L395.607 11.3962ZM407.474 8.72154L407.361 8.23467C409.338 7.77232 411.309 7.30297 413.273 6.82666L413.391 7.31258L413.509 7.79851C411.542 8.27546 409.568 8.74544 407.588 9.2084L407.474 8.72154ZM419.296 5.8554L419.174 5.37046C421.144 4.87588 423.107 4.37428 425.063 3.86571L425.189 4.34963L425.315 4.83354C423.356 5.34281 421.39 5.84509 419.418 6.34035L419.296 5.8554Z" fill="#1B1D21"/>
</svg>
