<svg width="47" height="47" viewBox="0 0 47 47" fill="none" xmlns="http://www.w3.org/2000/svg">
<g clip-path="url(#clip0_2543_1121)">
<path d="M21.6912 0.0587339C39.5982 -1.21027 52.4175 17.1902 44.7212 33.558C37.0955 49.7847 14.6177 51.7587 4.28949 37.0712C-6.03876 22.3837 3.63149 1.35123 21.6912 0.0587339ZM22.126 3.73648C6.51024 4.74698 -1.80876 23.0065 7.73224 35.5555C16.4272 46.9882 34.0757 45.5547 40.9142 32.9705C48.3755 19.2465 37.6007 2.73773 22.1377 3.73648H22.126Z" fill="black"/>
<path d="M13.4299 17.7896L23.4174 27.7653L33.5224 17.7896L36.0839 20.4803L23.4291 33.0528L10.9389 20.5743C10.8449 20.4686 10.8801 20.3981 10.9389 20.2806C11.2679 19.6343 12.9599 18.4946 13.4416 17.7896H13.4299Z" fill="black"/>
</g>
<defs>
<clipPath id="clip0_2543_1121">
<rect width="47" height="47" fill="white"/>
</clipPath>
</defs>
</svg>
