<svg id="Layer_1" viewBox="0 0 64 64" xmlns="http://www.w3.org/2000/svg" data-name="Layer 1"><path d="m2.13 45.49a1 1 0 0 0 .87.51h5v5a3 3 0 0 0 3 3h7.12l.88 7.12a1 1 0 0 0 1 .88h19a1 1 0 0 0 1-1v-7h.12l.88 7.12a1 1 0 0 0 1 .88h19a1 1 0 0 0 1-1v-27a16 16 0 0 0 -27-11.6 16 16 0 0 0 -27 11.6v.72l-5.86 9.76a1 1 0 0 0 -.01 1.01zm43.87-25.49a14 14 0 0 1 14 14v26h-17.12l-.88-7.13a1 1 0 0 0 -1-.87h-8a1 1 0 0 1 -1-1v-6a1 1 0 0 0 -1-1h-4.23l5.09-8.48a1.07 1.07 0 0 0 .14-.52v-1a14 14 0 0 1 14-14zm-36.14 15.51a1.07 1.07 0 0 0 .14-.51v-1a14 14 0 0 1 23.63-10.14 15.9 15.9 0 0 0 -3.63 10.14v.72l-5.86 9.77a1 1 0 0 0 .86 1.51h5v5a3 3 0 0 0 3 3h5v6h-17.12l-.88-7.13a1 1 0 0 0 -1-.87h-8a1 1 0 0 1 -1-1v-6a1 1 0 0 0 -1-1h-4.23z"/><path d="m48 9v7h2v-6h1a1 1 0 0 0 .77-1.64l-5-6a1 1 0 0 0 -1.54 0l-5 6a1 1 0 0 0 .77 1.64h1v6h2v-7a1 1 0 0 0 -.87-1l2.87-3.45 2.87 3.45a1 1 0 0 0 -.87 1z"/><path d="m42 22.99h2v2h-2z"/><path d="m42 26.99h2v2h-2z"/><path d="m48 22.99h2v2h-2z"/><path d="m48 26.99h2v2h-2z"/><path d="m26 9v7h2v-6h1a1 1 0 0 0 .77-1.64l-5-6a1 1 0 0 0 -1.54 0l-5 6a1 1 0 0 0 .77 1.64h1v6h2v-7a1 1 0 0 0 -.87-1l2.87-3.45 2.87 3.45a1 1 0 0 0 -.87 1z"/><path d="m20 22.99h2v2h-2z"/><path d="m20 26.99h2v2h-2z"/><path d="m26 22.99h2v2h-2z"/><path d="m26 26.99h2v2h-2z"/><path d="m20 30.99h2v2h-2z"/><path d="m26 30.99h2v2h-2z"/><path d="m29 58h4v-2h-4a1 1 0 0 1 -1-1v-4h-2v4a3 3 0 0 0 3 3z"/><path d="m4 51v4a3 3 0 0 0 3 3h4v-2h-4a1 1 0 0 1 -1-1v-4z"/><path d="m46 49a9 9 0 1 0 -9-9 9 9 0 0 0 9 9zm0-16a7 7 0 1 1 -7 7 7 7 0 0 1 7-7z"/><path d="m46 45a5 5 0 1 0 -5-5 5 5 0 0 0 5 5zm0-8a3 3 0 1 1 -3 3 3 3 0 0 1 3-3z"/></svg>