<svg id="Layer_1" viewBox="0 0 512 512" xmlns="http://www.w3.org/2000/svg" data-name="Layer 1"><path d="m66.946 103.884c-4.017 0-7.273-3.256-7.273-7.273 0-4.064 3.202-7.273 7.508-7.273 4.017 0 7.273 3.256 7.273 7.273 0 4.064-3.202 7.273-7.508 7.273zm31.762 0c-4.017 0-7.273-3.256-7.273-7.273 0-4.064 3.202-7.273 7.508-7.273 4.017 0 7.273 3.256 7.273 7.273 0 4.064-3.202 7.273-7.508 7.273zm31.762 0c-4.017 0-7.273-3.256-7.273-7.273 0-4.064 3.202-7.273 7.508-7.273 4.017 0 7.273 3.256 7.273 7.273 0 4.064-3.202 7.273-7.508 7.273zm63.344 0c-4.017 0-7.273-3.256-7.273-7.273s3.256-7.273 7.273-7.273h188.261c4.017 0 7.273 3.256 7.273 7.273s-3.256 7.273-7.273 7.273zm170.27 183.985c2.84 2.84 2.84 7.445 0 10.285s-7.445 2.84-10.285 0l-16.767-16.767c-2.84-2.84-2.84-7.445 0-10.285l16.767-16.767c2.84-2.84 7.445-2.84 10.285 0s2.84 7.445 0 10.285l-11.625 11.625 11.625 11.625zm44.935 10.861c-2.84 2.84-7.445 2.84-10.285 0s-2.84-7.445 0-10.285l11.625-11.625-11.625-11.625c-2.84-2.84-2.84-7.445 0-10.285s7.445-2.84 10.285 0l16.767 16.767c2.84 2.84 2.84 7.445 0 10.285l-16.767 16.767zm-27.565 5.7 13.946-52.046c1.036-3.875-1.267-7.857-5.142-8.892s-7.857 1.267-8.892 5.142l-13.946 52.046c-1.035 3.875 1.267 7.857 5.142 8.892s7.857-1.267 8.892-5.142zm-350.919-176.749h387.951v-57.689c0-2.897-2.398-5.295-5.295-5.295h-377.361c-2.897 0-5.295 2.398-5.295 5.295zm389.543 110.183c-21.355-21.354-55.981-21.355-77.336 0s-21.355 55.982 0 77.336 55.981 21.355 77.336 0c21.354-21.354 21.355-55.982 0-77.336zm-38.668-30.562c-38.233 0-69.23 30.996-69.23 69.23s30.997 69.23 69.23 69.23 69.23-30.997 69.23-69.23-30.997-69.23-69.23-69.23zm-223.7-7.186c-4.017 0-7.273-3.256-7.273-7.273s3.256-7.273 7.273-7.273h125.844c4.017 0 7.273 3.256 7.273 7.273s-3.256 7.273-7.273 7.273zm-72.84 0c-4.017 0-7.273-3.256-7.273-7.273s3.256-7.273 7.273-7.273h44.257c4.017 0 7.273 3.256 7.273 7.273s-3.256 7.273-7.273 7.273zm0 53.853c-4.017 0-7.273-3.256-7.273-7.273s3.256-7.273 7.273-7.273h170.765c4.017 0 7.273 3.256 7.273 7.273s-3.256 7.273-7.273 7.273zm140.159 53.853c-4.017 0-7.273-3.256-7.273-7.273s3.256-7.273 7.273-7.273h26.716c4.017 0 7.273 3.256 7.273 7.273s-3.256 7.273-7.273 7.273zm-140.159 0c-4.017 0-7.273-3.256-7.273-7.273s3.256-7.273 7.273-7.273h112.234c4.017 0 7.273 3.256 7.273 7.273s-3.256 7.273-7.273 7.273zm51.904 53.853c-4.017 0-7.273-3.256-7.273-7.273s3.256-7.273 7.273-7.273h135.534c4.017 0 7.273 3.256 7.273 7.273s-3.256 7.273-7.273 7.273zm-51.904 0c-4.017 0-7.273-3.256-7.273-7.273s3.256-7.273 7.273-7.273h24.605c4.017 0 7.273 3.256 7.273 7.273s-3.256 7.273-7.273 7.273zm246.02 16.464v63.794l46.765-27.272c2.192-1.323 5.019-1.443 7.391-.069l46.883 27.34v-63.794c-7.701 1.45-16.939-.551-22.276.917-7.227 1.988-16.091 12.078-28.244 12.078s-21.017-10.09-28.244-12.078c-5.338-1.468-14.574.534-22.276-.916zm-14.546 29.291v-38.723c-1.945-2.699-3.468-5.69-4.988-8.677-4.333-8.517-4.926-9.11-13.443-13.443-5.882-2.993-11.781-5.995-15.425-12.215-5.891-10.057-1.592-22.293-3.601-29.595-1.988-7.227-12.078-16.09-12.078-28.244s10.089-21.015 12.077-28.244c2.009-7.306-2.291-19.537 3.601-29.595 5.909-10.087 18.596-12.229 23.725-17.358s7.273-17.817 17.358-23.725c10.057-5.892 22.293-1.592 29.596-3.601 7.225-1.987 16.092-12.078 28.244-12.078s21.014 10.089 28.244 12.077c2.377.654 5.563.623 8.832.513v-32.294h-387.951v259.909c0 2.897 2.398 5.294 5.295 5.294h280.514zm130.132-38.723c3.782-5.246 6.857-13.704 10.132-16.979 5.13-5.13 17.817-7.272 23.725-17.358 5.891-10.057 1.592-22.291 3.601-29.595 1.988-7.229 12.077-16.092 12.077-28.244s-10.09-21.017-12.077-28.244c-2.01-7.307 2.289-19.538-3.601-29.596-5.907-10.085-18.596-12.229-23.725-17.358-6.073-6.073-7.884-22.518-23.575-26.179v-105.164c0-10.927-8.914-19.841-19.841-19.841h-377.362c-10.927 0-19.841 8.914-19.841 19.841v332.144c0 10.927 8.914 19.84 19.841 19.84h280.514v32.598h.016c-.005 5.536 6.042 9.098 10.893 6.279l54.157-31.582 53.701 31.317c5.404 3.411 11.364-.597 11.364-6.014v-85.866zm-12.984-7.051c2.506-3.171 2.867-3.995 5.017-8.219 5.806-11.409 8.397-14.002 19.807-19.807 10.677-5.433 11.102-6.159 10.66-18.226-.467-12.775.51-16.352 7.317-27.179 6.871-10.93 6.871-12.46 0-23.391-6.807-10.827-7.784-14.403-7.317-27.179.441-12.066.016-12.792-10.66-18.224-11.408-5.805-14.002-8.397-19.807-19.806-3.994-7.851-5.302-10.733-12.75-10.733-15.73 0-18.14 1.879-32.654-7.245-10.929-6.871-12.46-6.872-23.391.001-10.827 6.807-14.401 7.784-27.177 7.317-12.066-.442-12.793-.017-18.226 10.66-5.805 11.409-8.398 14.002-19.807 19.807-10.678 5.433-11.102 6.161-10.661 18.226.467 12.776-.509 16.351-7.317 27.179-6.871 10.93-6.871 12.46.001 23.392 6.807 10.827 7.784 14.401 7.316 27.177-.442 12.066-.017 12.793 10.66 18.225 11.409 5.805 14.002 8.397 19.807 19.807 5.306 10.429 5.954 11.11 18.226 10.66 12.776-.467 16.351.51 27.178 7.317 10.93 6.871 12.46 6.872 23.391 0 10.827-6.807 14.403-7.784 27.179-7.317 5.71.209 10.37.568 13.207-2.442z" fill-rule="evenodd"/></svg>