<svg id="Layer_1" enable-background="new 0 0 512 512" viewBox="0 0 512 512" xmlns="http://www.w3.org/2000/svg"><path d="m494.172 313.112c-4.644-7.752-23.696-30.775-73.925-1.52l-88.34 51.454c-4.295 2.501-8.661 4.288-13.21 5.38 1.652-2.724 2.953-5.788 3.857-9.163 4.538-16.938-5.527-34.621-22.913-40.256-.342-.111-.692-.199-1.047-.263-25.377-4.577-50.429-13.634-70.559-20.912-6.996-2.529-13.604-4.918-19.224-6.741-22.68-7.358-43.163 1.742-60.21 11.612l-65.583 37.971-6.117-10.807c-2.757-4.871-7.258-8.38-12.675-9.881-5.417-1.5-11.083-.81-15.953 1.946l-24.786 14.028c-10.081 5.706-13.64 18.548-7.935 28.628l72.871 128.757c2.756 4.871 7.258 8.38 12.675 9.882 1.874.519 3.777.776 5.667.776 3.574 0 7.101-.919 10.287-2.723l24.787-14.028c4.871-2.757 8.38-7.258 9.881-12.675 1.502-5.417.811-11.083-1.946-15.954l-7.434-13.136 14.786-8.537 113.081 30.3c6.406 1.717 12.692 2.574 18.844 2.574 12.265 0 23.991-3.408 35.027-10.201l160.316-98.716c14.683-9.04 19.345-31.822 9.778-47.795zm-357.872 157.192c-.36 1.298-1.192 2.373-2.344 3.024l-24.787 14.029c-1.151.651-2.501.812-3.798.452-1.299-.36-2.373-1.192-3.024-2.344l-72.871-128.757c-.652-1.151-.812-2.5-.453-3.799s1.192-2.373 2.344-3.024l24.787-14.028c.75-.424 1.582-.64 2.431-.64.455 0 .915.062 1.368.188 1.298.36 2.373 1.192 3.024 2.344l72.871 128.758c.651 1.15.812 2.499.452 3.797zm339.703-123.02-160.316 98.716c-12.674 7.803-26.582 9.753-41.341 5.797l-116.283-31.158c-2.049-.548-4.233-.261-6.07.799l-17.536 10.125-43.558-76.963 65.718-38.05c14.701-8.512 30.599-15.645 47.257-10.24 5.368 1.741 11.555 3.978 18.72 6.568 20.546 7.429 46.079 16.66 72.58 21.506 9.144 3.201 14.256 12.032 11.924 20.738-3.069 11.453-12.618 12.88-20.221 12.009-13.004-2.674-25.364-6.201-38.442-9.937-6.207-1.772-12.625-3.605-19.222-5.373-4.268-1.141-8.654 1.389-9.798 5.657-1.143 4.268 1.39 8.654 5.657 9.798 6.47 1.733 12.824 3.548 18.968 5.303 13.486 3.852 26.224 7.489 39.943 10.294.054.011.107.015.161.025.053.01.103.025.157.034l10.986 1.787c16.467 2.635 31.08.068 44.67-7.847l88.341-51.454c25.344-14.76 44.838-16.288 52.146-4.085 5.033 8.401 2.792 21.498-4.441 25.951zm-412.737 13.3c.707 4.836-2.64 9.33-7.476 10.036-4.836.707-9.329-2.64-10.037-7.476-.707-4.836 2.64-9.33 7.476-10.037 4.837-.706 9.33 2.641 10.037 7.477zm163.454-163.063 16.684 6.421c2.474 8.901 6.017 17.448 10.571 25.5l-7.261 16.348c-1.344 3.024-.686 6.564 1.654 8.904l23.712 23.712c2.34 2.341 5.879 2.998 8.904 1.655l16.355-7.264c8.052 4.553 16.596 8.096 25.491 10.569l6.424 16.688c1.188 3.088 4.156 5.126 7.466 5.126h33.533c3.31 0 6.277-2.038 7.466-5.126l6.421-16.683c8.901-2.474 17.448-6.017 25.5-10.572l16.348 7.261c3.024 1.344 6.563.686 8.904-1.654l23.712-23.712c2.34-2.34 2.998-5.879 1.654-8.904l-7.263-16.354c4.554-8.053 8.096-16.597 10.568-25.492l16.688-6.423c3.089-1.188 5.126-4.156 5.126-7.466v-33.534c0-3.31-2.038-6.277-5.126-7.466l-16.683-6.421c-2.473-8.9-6.017-17.447-10.571-25.5l7.261-16.347c1.344-3.025.686-6.564-1.654-8.904l-23.712-23.712c-2.34-2.34-5.88-2.997-8.904-1.655l-16.355 7.264c-8.051-4.553-16.596-8.096-25.491-10.569l-6.424-16.689c-1.188-3.088-4.156-5.126-7.466-5.126h-33.532c-3.309 0-6.277 2.038-7.466 5.126l-6.424 16.689c-8.895 2.473-17.439 6.016-25.491 10.569l-16.355-7.264c-3.025-1.343-6.564-.685-8.904 1.655l-23.712 23.712c-2.34 2.34-2.998 5.879-1.655 8.904l7.263 16.352c-4.554 8.053-8.097 16.597-10.569 25.495l-16.687 6.423c-3.089 1.188-5.126 4.156-5.126 7.466v33.534c-.001 3.307 2.037 6.275 5.126 7.464zm10.873-35.507 15.403-5.929c2.462-.947 4.298-3.048 4.909-5.614 2.407-10.114 6.398-19.743 11.866-28.621 1.383-2.247 1.57-5.031.5-7.442l-6.705-15.097 15.944-15.944 15.099 6.706c2.411 1.07 5.195.883 7.442-.5 8.877-5.466 18.506-9.458 28.618-11.865 2.566-.611 4.667-2.447 5.614-4.909l5.93-15.405h22.547l5.93 15.405c.947 2.461 3.047 4.298 5.613 4.909 10.113 2.407 19.742 6.399 28.619 11.865 2.247 1.383 5.031 1.57 7.442.5l15.099-6.706 15.944 15.944-6.703 15.092c-1.071 2.412-.884 5.196.5 7.443 5.467 8.877 9.459 18.508 11.867 28.626.61 2.566 2.447 4.667 4.909 5.614l15.399 5.927v22.548l-15.404 5.929c-2.462.947-4.298 3.048-4.909 5.614-2.406 10.111-6.398 19.74-11.865 28.619-1.383 2.247-1.57 5.03-.499 7.441l6.706 15.099-15.944 15.944-15.093-6.703c-2.411-1.072-5.197-.885-7.442.5-8.875 5.467-18.506 9.459-28.626 11.867-2.566.611-4.667 2.447-5.614 4.909l-5.927 15.399h-22.548l-5.93-15.405c-.947-2.461-3.047-4.298-5.614-4.909-10.112-2.407-19.741-6.398-28.618-11.865-2.246-1.382-5.03-1.569-7.442-.5l-15.099 6.706-15.944-15.944 6.703-15.093c1.071-2.411.884-5.196-.5-7.442-5.466-8.875-9.458-18.506-11.867-28.626-.611-2.566-2.447-4.667-4.909-5.614l-15.4-5.928v-22.545zm115.892 82.917c39.504 0 71.644-32.14 71.644-71.644s-32.139-71.644-71.644-71.644-71.644 32.139-71.644 71.644 32.14 71.644 71.644 71.644zm0-127.287c30.682 0 55.644 24.961 55.644 55.644s-24.961 55.644-55.644 55.644-55.644-24.962-55.644-55.644 24.962-55.644 55.644-55.644zm-37.555 63.644c-4.418 0-8-3.582-8-8s3.582-8 8-8h29.556v-29.556c0-4.418 3.582-8 8-8s8 3.582 8 8v29.556h29.556c4.418 0 8 3.582 8 8s-3.582 8-8 8h-29.556v29.556c0 4.418-3.582 8-8 8s-8-3.582-8-8v-29.556zm-183.597-.76c47.567 0 86.266-38.699 86.266-86.266s-38.699-86.266-86.266-86.266-86.266 38.699-86.266 86.266 38.699 86.266 86.266 86.266zm0-156.532c38.745 0 70.266 31.521 70.266 70.266s-31.521 70.266-70.266 70.266-70.266-31.521-70.266-70.266c0-38.745 31.521-70.266 70.266-70.266zm0 134.824c35.598 0 64.558-28.96 64.558-64.558s-28.96-64.558-64.558-64.558-64.558 28.96-64.558 64.558 28.96 64.558 64.558 64.558zm0-113.116c26.775 0 48.558 21.783 48.558 48.558s-21.783 48.558-48.558 48.558-48.558-21.783-48.558-48.558 21.783-48.558 48.558-48.558zm9.473 65.257c.491-.568.786-1.209.63-2.496-.172-1.419-.576-4.744-11.348-6.513-19.299-3.168-22.696-14.27-23.003-20.605-.489-10.064 5.97-18.559 16.249-21.672v-1.202c0-4.418 3.582-8 8-8s8 3.582 8 8v1.129c6.595 1.932 12.703 6.464 16.027 14.382 1.71 4.074-.205 8.763-4.279 10.473-4.074 1.712-8.763-.206-10.473-4.279-2.447-5.829-8.566-6.146-11.793-5.413-1.399.317-5.95 1.674-5.749 5.806.048 1.001.196 4.047 9.614 5.593 15.007 2.465 23.297 9.319 24.639 20.374.682 5.616-.844 10.765-4.412 14.891-3.196 3.695-8.022 6.393-13.574 7.716v.909c0 4.418-3.582 8-8 8s-8-3.582-8-8v-1.05c-8.945-2.424-15.728-8.854-17.906-17.591-1.069-4.287 1.54-8.629 5.827-9.698 4.288-1.069 8.629 1.54 9.698 5.827 1.239 4.971 6.635 6.625 10.93 6.514 3.755-.091 7.425-1.363 8.923-3.095z"/></svg>