<svg id="Layer_1" enable-background="new 0 0 512 512" height="512" viewBox="0 0 512 512" width="512" xmlns="http://www.w3.org/2000/svg"><path d="m8 222.126h16.116l7.059 126.26c.236 4.238 3.742 7.553 7.987 7.553h106.568c4.245 0 7.75-3.315 7.987-7.553l7.06-126.26h16.116c4.418 0 8-3.582 8-8v-53.461c0-30.253-23.599-56.096-53.725-58.833-3.591-.322-6.951 1.788-8.215 5.161l-9.58 25.577-3.715 9.753-1.768-9.364 10.604-19.557c1.345-2.479 1.284-5.482-.158-7.905s-4.054-3.908-6.874-3.908h-8.585c23.318-4.833 40.897-25.531 40.897-50.26.001-28.303-23.025-51.329-51.328-51.329s-51.328 23.026-51.328 51.329c0 24.729 17.579 45.427 40.896 50.26h-8.584c-2.82 0-5.432 1.485-6.874 3.908s-1.503 5.426-.158 7.905l10.604 19.557-1.768 9.364-3.699-9.712-9.596-25.619c-1.264-3.374-4.634-5.483-8.215-5.161-30.125 2.738-53.724 28.581-53.724 58.834v53.461c0 4.419 3.582 8 8 8zm49.118-170.797c0-19.481 15.848-35.329 35.328-35.329s35.329 15.848 35.329 35.329c0 19.48-15.849 35.328-35.329 35.328s-35.328-15.848-35.328-35.328zm-16.978 170.797h44.306v117.814h-37.718zm98.025 117.814h-37.719v-117.814h44.307zm-9.824-201.716 7.302-19.492c19.061 4.518 33.251 21.899 33.251 41.934v45.461h-66.415zm-30.316-20.635-5.556 10.245c-.008.014-.016.029-.023.043-.007-.015-.015-.029-.023-.043l-5.555-10.245zm-5.579 19.806 6.326 33.51-6.326 16.608-6.325-16.607zm-76.446 23.27c0-20.035 14.19-37.416 33.251-41.934l7.316 19.533 25.847 67.862h-66.414zm488 139.909h-248c-4.418 0-8 3.582-8 8v63.426h-116c-4.418 0-8 3.582-8 8v54h-116c-4.418 0-8 3.582-8 8v62c0 4.418 3.582 8 8 8h496c4.418 0 8-3.582 8-8v-195.426c0-4.418-3.582-8-8-8zm-8 195.426h-480v-46h116c4.418 0 8-3.582 8-8v-54h116c4.418 0 8-3.582 8-8v-63.426h232zm-121.081-415.459h33.021v189.834c0 4.418 3.582 8 8 8h45.163c4.418 0 8-3.582 8-8v-189.834h34.897c3.235 0 6.152-1.949 7.391-4.938s.554-6.43-1.733-8.718l-64.542-64.542c-1.501-1.5-3.535-2.343-5.657-2.343s-4.156.843-5.657 2.343l-64.54 64.541c-2.287 2.288-2.972 5.729-1.733 8.718s4.155 4.939 7.39 4.939zm64.54-61.228 45.228 45.228h-23.583c-4.418 0-8 3.582-8 8v189.834h-29.164v-189.834c0-4.418-3.582-8-8-8h-21.708zm-193.622 125.769h33.021v125.293c0 4.418 3.582 8 8 8h45.163c4.418 0 8-3.582 8-8v-125.293h34.897c3.235 0 6.152-1.949 7.391-4.938s.554-6.43-1.733-8.718l-64.541-64.541c-3.125-3.124-8.189-3.124-11.314 0l-64.541 64.541c-2.287 2.288-2.972 5.729-1.733 8.718s4.155 4.938 7.39 4.938zm64.541-61.228 45.228 45.228h-23.584c-4.418 0-8 3.582-8 8v125.293h-29.163v-125.293c0-4.418-3.582-8-8-8h-21.709z"/></svg>