<svg id="a" viewBox="0 0 64 64" xmlns="http://www.w3.org/2000/svg"><path d="m24.29 22.71c.31.31.77.38 1.15.19l3.67-1.84c2.28 2.51 5.47 3.94 8.88 3.94 6.62 0 12-5.38 12-12s-5.37-12-11.99-12-12 5.38-12 12c0 1.22.19 2.44.57 3.62l-2.46 4.93c-.19.39-.12.85.19 1.15zm4.3-6.35c-.39-1.1-.59-2.23-.59-3.36 0-5.51 4.49-10 10-10s10 4.49 10 10-4.49 10-10 10c-3.07 0-5.93-1.39-7.84-3.81-.19-.25-.49-.38-.78-.38-.15 0-.3.03-.45.11l-1.69.85 1.31-2.62c.12-.24.14-.53.05-.78z"/><path d="m3 45v17h2v-17h12v17h2v-17c.55 0 1-.45 1-1v-5.55l10.83-8.43c.68-.53 1.11-1.33 1.16-2.2s-.27-1.71-.88-2.32c-1.05-1.05-2.68-1.18-3.89-.32l-7.22 5.16v-.34c0-3.86-3.14-7-7-7h-4c-3.86 0-7 3.14-7 7v14c0 .55.45 1 1 1zm16.88-12.12 8.51-6.08c.41-.29.96-.25 1.31.11.21.21.32.49.3.79s-.16.56-.39.74l-10.35 8.05-5.43-3.62c-.36-.24-.58-.62-.62-1.04s.11-.84.41-1.14c.28-.28.64-.42 1-.42.29 0 .58.09.83.27l3.28 2.34c.35.25.81.25 1.16 0zm-15.88-2.88c0-2.76 2.24-5 5-5h4c2.73 0 4.94 2.19 4.99 4.91l-1.39-1c-1.37-.97-3.22-.82-4.41.36-.73.73-1.09 1.73-.98 2.75.1 1.02.65 1.94 1.51 2.51l5.29 3.52v4.94h-14.01v-13z"/><path d="m11 22c3.86 0 7-3.14 7-7s-3.14-7-7-7-7 3.14-7 7 3.14 7 7 7zm0-12c2.76 0 5 2.24 5 5s-2.24 5-5 5-5-2.24-5-5 2.24-5 5-5z"/><path d="m11 47c-.47 0-.88.33-.98.79l-3 14 1.96.42 2.02-9.44 2.02 9.44 1.96-.42-3-14c-.1-.46-.51-.79-.98-.79z"/><path d="m38 20c2.4 0 4.66-.93 6.37-2.64 1.7-1.71 2.63-3.97 2.63-6.36 0-.55-.45-1-1-1-1.66 0-3.24.45-4.63 1.29-1.05-1.43-2.29-2.65-2.68-3.02-.38-.37-.99-.36-1.37 0-.07.07-1.5 1.42-2.68 3.03-1.36-.82-2.94-1.3-4.64-1.3-.55 0-1 .45-1 1 0 4.96 4.04 9 9 9zm6.92-7.92c-.23 1.46-.9 2.8-1.96 3.87-.02.02-.04.03-.06.05.07-.32.1-.66.1-1 0-.63-.22-1.32-.57-2.02.77-.46 1.61-.76 2.49-.9zm-6.91-1.67c1.42 1.48 3 3.54 3 4.58 0 1.33-.88 2.45-2.08 2.84-.27-2.08-1.25-3.94-2.69-5.33.6-.81 1.28-1.58 1.78-2.1zm-1.09 7.5c-2.99-.47-5.37-2.84-5.83-5.83 2.99.47 5.37 2.84 5.83 5.83z"/><path d="m30 45c0 2.76 2.24 5 5 5s5-2.24 5-5-2.24-5-5-5-5 2.24-5 5zm5-3c1.65 0 3 1.35 3 3s-1.35 3-3 3-3-1.35-3-3 1.35-3 3-3z"/><path d="m27 58v4h2v-4c0-2.76 2.24-5 5-5h2c2.76 0 5 2.24 5 5v4h2v-4c0-3.86-3.14-7-7-7h-2c-3.86 0-7 3.14-7 7z"/><path d="m53 40c-2.76 0-5 2.24-5 5s2.24 5 5 5 5-2.24 5-5-2.24-5-5-5zm0 8c-1.65 0-3-1.35-3-3s1.35-3 3-3 3 1.35 3 3-1.35 3-3 3z"/><path d="m52 51c-3.86 0-7 3.14-7 7v4h2v-4c0-2.76 2.24-5 5-5h2c2.76 0 5 2.24 5 5v4h2v-4c0-3.86-3.14-7-7-7z"/></svg>