<?xml version="1.0"?>
<svg xmlns="http://www.w3.org/2000/svg" id="Layer_3" data-name="Layer 3" viewBox="0 0 64 64" width="512" height="512"><path d="M60,1H4A3,3,0,0,0,1,4V40a3,3,0,0,0,3,3h7.54a5.965,5.965,0,0,0,.039,8.043A4.989,4.989,0,0,0,7,56v6a1,1,0,0,0,1,1H56a1,1,0,0,0,1-1V56a4.989,4.989,0,0,0-4.579-4.957A5.965,5.965,0,0,0,52.46,43H60a3,3,0,0,0,3-3V4A3,3,0,0,0,60,1ZM34.681,33.1l3.612,3.611A1,1,0,0,0,39,37l.071,0a1,1,0,0,0,.729-.4L41,35v6H34V38H32v3H27V37.209a2.983,2.983,0,0,1,2.349-2.929ZM34.017,20H33a1,1,0,0,1,0-2h1v1.6C34,19.732,34.012,19.865,34.017,20Zm.428-6.832a1.06,1.06,0,0,0-.164.141l-.213-1.067a3.511,3.511,0,0,1,1.636-3.7A10.838,10.838,0,0,1,41.277,7h1.446A10.838,10.838,0,0,1,48.3,8.544a3.51,3.51,0,0,1,1.636,3.7l-.059.3A.99.99,0,0,0,49,12a6.59,6.59,0,0,0-5.018,2.31L42.921,12.9A4.735,4.735,0,0,0,36.5,11.8ZM50,19.6V18h1a1,1,0,0,1,0,2H49.983C49.988,19.865,50,19.732,50,19.6ZM36,14.535l1.613-1.075a2.815,2.815,0,0,1,3.708.635L43.2,16.6a1,1,0,0,0,1.632-.045l.336-.5A4.6,4.6,0,0,1,48,14.109V19.6a8.727,8.727,0,0,1-1.907,5.435,5.24,5.24,0,0,1-8.186,0A8.727,8.727,0,0,1,36,19.6Zm9.072,16.619,2.24,1.12-2.2,2.2-1.674-2.232ZM42,29a7.255,7.255,0,0,0,2-.29v.755L42,30.8l-2-1.333V28.71A7.255,7.255,0,0,0,42,29Zm-3.072,2.154,1.638,1.092-1.674,2.232-2.2-2.2ZM48,51a4,4,0,0,1-3.317-1.767,7.556,7.556,0,0,0,6.634,0A4,4,0,0,1,48,51Zm-6-4a5.973,5.973,0,0,0,1.579,4.043A4.97,4.97,0,0,0,40,53.031a4.97,4.97,0,0,0-3.579-1.988A5.965,5.965,0,0,0,36.46,43h7.08A5.969,5.969,0,0,0,42,47Zm-6.051-.5-.84.56a5.692,5.692,0,0,1-6.218,0l-.84-.56a3.978,3.978,0,0,1,7.9,0Zm-7.266,2.734a7.556,7.556,0,0,0,6.634,0,4,4,0,0,1-6.634,0ZM26,43h1.54a5.965,5.965,0,0,0,.039,8.043A4.97,4.97,0,0,0,24,53.031a4.97,4.97,0,0,0-3.579-1.988A5.965,5.965,0,0,0,20.46,43ZM12.683,49.233a7.556,7.556,0,0,0,6.634,0,4,4,0,0,1-6.634,0ZM19.949,46.5l-.84.56a5.692,5.692,0,0,1-6.218,0l-.84-.56a3.978,3.978,0,0,1,7.9,0ZM9,56a3,3,0,0,1,3-3h8a3,3,0,0,1,3,3v5H9Zm16,0a3,3,0,0,1,3-3h8a3,3,0,0,1,3,3v5H25Zm30,0v5H41V56a3,3,0,0,1,3-3h8A3,3,0,0,1,55,56Zm-3.051-9.5-.84.56a5.692,5.692,0,0,1-6.218,0l-.84-.56a3.978,3.978,0,0,1,7.9,0ZM52,41V38H50v3H43V35l1.2,1.6a1,1,0,0,0,.729.4L45,37a1,1,0,0,0,.707-.293L49.319,33.1,54.65,34.28A2.983,2.983,0,0,1,57,37.209V41Zm9-1a1,1,0,0,1-1,1H59V37.209a4.973,4.973,0,0,0-3.916-4.882L49.336,31.05,46,29.382V27.789a7.248,7.248,0,0,0,1.655-1.507A10.7,10.7,0,0,0,49.716,22H51a2.993,2.993,0,0,0,.215-5.978l.678-3.389a5.508,5.508,0,0,0-2.568-5.8A12.842,12.842,0,0,0,42.723,5H41.277a12.842,12.842,0,0,0-6.6,1.829,5.51,5.51,0,0,0-2.568,5.805l.678,3.388A2.993,2.993,0,0,0,33,22h1.284a10.7,10.7,0,0,0,2.061,4.282A7.248,7.248,0,0,0,38,27.789v1.593L34.664,31.05l-5.749,1.277A4.973,4.973,0,0,0,25,37.209V41H4a1,1,0,0,1-1-1V4A1,1,0,0,1,4,3H60a1,1,0,0,1,1,1Z"/><path d="M26,21H23V18a1,1,0,0,0-1-1H17V13h6a1,1,0,0,0,1-1V6a1,1,0,0,0-1-1H9A1,1,0,0,0,8,6v6a1,1,0,0,0,1,1h6v4H10a1,1,0,0,0-1,1v3H6a1,1,0,0,0-1,1v8a1,1,0,0,0,1,1h8a1,1,0,0,0,1-1V22a1,1,0,0,0-1-1H11V19H21v2H18a1,1,0,0,0-1,1v8a1,1,0,0,0,1,1h8a1,1,0,0,0,1-1V22A1,1,0,0,0,26,21ZM10,7H22v4H10Zm3,22H7V23h6Zm12,0H19V23h6Z"/></svg>
