<svg width="130" height="170" viewBox="0 0 130 170" fill="none" xmlns="http://www.w3.org/2000/svg">
<path d="M88.0825 112.557L87.846 91.5457H95.04V85.4883H55.6826V91.5457H62.4794L62.716 112.506C44.2311 125.438 13.0049 149.635 22.4749 159.584C35.6982 173.472 115.029 173.472 128.252 159.584C137.709 149.648 106.581 125.503 88.087 112.56L88.0825 112.557Z" fill="url(#paint0_radial_3165_2095)"/>
<path d="M64.2908 131.024C64.2908 132.402 62.4477 133.517 60.1806 133.517C57.9135 133.517 56.0703 132.399 56.0703 131.024C56.0703 129.649 57.9135 128.531 60.1806 128.531C62.4477 128.531 64.2908 129.649 64.2908 131.024Z" fill="#8CC63E"/>
<path d="M84.4443 101.703C84.4443 102.685 83.1278 103.484 81.5078 103.484C79.8878 103.484 78.5713 102.685 78.5713 101.703C78.5713 100.72 79.8878 99.9219 81.5078 99.9219C83.1278 99.9219 84.4443 100.72 84.4443 101.703Z" fill="#8CC63E"/>
<path d="M90.6582 81.0212C90.6582 82.0037 89.3417 82.8021 87.7217 82.8021C86.1017 82.8021 84.7852 82.0037 84.7852 81.0212C84.7852 80.0387 86.1017 79.2402 87.7217 79.2402C89.3417 79.2402 90.6582 80.0387 90.6582 81.0212Z" fill="#8CC63E"/>
<path d="M93.311 129.709C96.6229 127.824 96.7874 124.667 93.6784 122.658C90.5694 120.65 85.3642 120.55 82.0524 122.436C78.7405 124.321 78.576 127.478 81.685 129.487C84.794 131.495 89.9991 131.595 93.311 129.709Z" fill="#8CC63E"/>
<path d="M113.444 137.856C108.347 134.029 100.037 135.068 90.014 136.6C90.3487 137.098 90.5361 137.642 90.5361 138.213C90.5361 140.573 87.3809 142.487 83.4894 142.487C79.5978 142.487 76.6881 140.714 76.4649 138.478C65.2946 139.637 53.0486 139.447 41.1999 133.582C31.8013 143.913 15.3559 154.956 34.7378 162.794C52.946 167.425 92.888 170.63 119.91 161.014C125.783 158.163 128.72 152.463 113.448 137.858L113.444 137.856ZM58.2299 157.449C55.9584 157.449 54.1197 156.331 54.1197 154.956C54.1197 153.581 55.9628 152.463 58.2299 152.463C60.497 152.463 62.3402 153.581 62.3402 154.956C62.3402 156.331 60.497 157.449 58.2299 157.449ZM96.9983 152.818C95.6996 152.818 94.6464 152.179 94.6464 151.392C94.6464 150.604 95.6996 149.965 96.9983 149.965C98.2969 149.965 99.3501 150.604 99.3501 151.392C99.3501 152.179 98.2969 152.818 96.9983 152.818Z" fill="#8CC63E"/>
<path fill-rule="evenodd" clip-rule="evenodd" d="M72.6825 155.62L77.8906 155.79L76.9802 82.3896C78.3637 73.1384 74.6506 59.148 66.2115 47.2822C58.4105 36.3123 31.8078 14.6595 21.9004 13.3359C68.5455 40.0447 74.066 66.0255 73.169 82.1839C73.0886 83.6509 72.6825 155.62 72.6825 155.62Z" fill="#8CC63E"/>
<path fill-rule="evenodd" clip-rule="evenodd" d="M31.5921 15.203C27.9594 13.5818 23.1039 9.09691 32.7391 0C40.9551 9.668 35.448 13.8199 31.5921 15.203ZM44.1727 23.8858C40.9997 21.8965 37.3402 16.9542 49.1354 9.013C54.8031 19.4307 48.3276 22.9358 44.1727 23.8858ZM55.7492 31.919C52.8886 29.7402 49.9833 24.5868 62.9076 17.4306C66.9955 28.1595 60.0246 31.237 55.7492 31.919ZM64.4026 41.6628C61.8811 39.3108 59.7568 34.0004 73.6897 27.6967C76.1576 38.6341 68.7583 41.2541 64.4026 41.6628ZM71.9001 52.5623C69.8606 50.0208 68.7984 44.5751 83.8514 39.4894C84.1505 50.5432 76.3004 52.5244 71.9001 52.5623ZM76.3897 64.1168C74.6268 61.4887 74.1493 56.0078 89.7066 51.615C88.823 62.6553 80.781 64.2765 76.3897 64.1168ZM79.1075 74.9216C77.8311 72.1744 78.3488 66.6962 94.5934 63.5295C91.7238 74.4236 83.4409 75.4142 79.1075 74.9216ZM71.3244 76.7865C68.4504 78.9599 61.0778 81.6069 48.2785 74.3559C63.9295 70.1065 69.6464 74.134 71.3244 76.7865ZM69.2269 66.5853C66.3528 68.7587 58.9803 71.4057 46.181 64.1547C61.832 59.9053 67.5489 63.9328 69.2269 66.5853ZM65.8932 56.4869C63.519 58.9039 56.8025 62.2087 42.5483 56.2162C57.1148 50.5594 63.6528 54.0185 65.8932 56.4869ZM59.9978 46.4589C57.9851 49.0112 51.7684 52.7112 36.7199 47.6201C50.4073 41.0971 57.4139 44.1366 59.9978 46.4589ZM52.1076 37.0237C50.5501 39.7086 45.0251 43.847 29.1822 39.9035C41.6423 32.4062 49.1354 34.9098 52.1076 37.0237ZM40.2589 28.1974C39.2012 30.9825 34.4662 35.5188 18.0208 32.8284C29.0305 24.4217 36.9252 26.3272 40.2589 28.1974ZM28.1692 19.8205C27.1115 22.6056 22.3765 27.1419 5.92659 24.4515C16.9363 16.0448 24.831 17.9502 28.1692 19.8205ZM19.431 12.3097C15.4323 13.5114 7.04229 13.9309 0 3.87315C16.9452 4.23043 19.5917 9.44335 19.431 12.3097Z" fill="#8CC63E"/>
<defs>
<radialGradient id="paint0_radial_3165_2095" cx="0" cy="0" r="1" gradientUnits="userSpaceOnUse" gradientTransform="translate(34.2657 144.181) scale(100.529 60.969)">
<stop stop-color="#E2EEFB"/>
<stop offset="0.53" stop-color="#BFDBF4"/>
<stop offset="0.92" stop-color="#36A8E0"/>
<stop offset="1" stop-color="#3197C9"/>
</radialGradient>
</defs>
</svg>
