<svg width="170" height="170" viewBox="0 0 170 170" fill="none" xmlns="http://www.w3.org/2000/svg">
<g opacity="0.64">
<path d="M150.279 69.6107C151.517 -19.3894 18.2599 -19.3894 19.5067 69.6165C18.2682 158.611 151.526 158.611 150.279 69.6107Z" fill="#A4DAD7"/>
<path d="M23.749 37.4459C21.4477 41.6072 20.7168 46.4504 20.3486 51.1853C22.9707 43.764 25.1465 37.0011 28.6668 30.1738C26.5105 32.1462 25.0991 34.8385 23.7518 37.4459H23.749Z" fill="#A4DAD7"/>
<path d="M17.5791 51.4037C18.8399 47.857 19.3616 44.0849 20.5722 40.5293C18.2542 43.5698 17.6544 47.6111 17.5791 51.4037Z" fill="#A4DAD7"/>
<path d="M17.7549 56.1709C18.2179 56.0128 18.7507 52.3022 19.0297 50.9531C18.1482 52.5334 17.8107 54.3594 17.7549 56.1709Z" fill="#A4DAD7"/>
<path d="M18.5598 58.792C18.9476 57.677 19.1428 56.5065 19.2265 55.3242C18.7523 56.4099 18.5515 57.6009 18.5598 58.792Z" fill="#A4DAD7"/>
<path d="M16.8978 58.1738C16.2981 60.0409 16.365 62.0542 16.6914 63.9739C17.0038 62.0806 16.9424 60.1082 16.8978 58.1738Z" fill="#A4DAD7"/>
<path d="M18.7312 79.6914C18.3295 75.5213 17.4369 72.3666 17.4871 68.416C16.0924 72.6388 17.25 77.2186 18.893 81.1721C18.8428 80.6776 18.7898 80.183 18.7312 79.6914Z" fill="#A4DAD7"/>
<path d="M62.5732 2.95983C65.6918 1.82439 68.936 1.05476 72.0908 0.0100359C68.7351 -0.104093 65.24 0.747485 62.5732 2.95983Z" fill="#A4DAD7"/>
<path d="M146.921 38.8218C145.721 36.4953 144.416 34.1455 142.511 32.375C145.744 38.9506 148.106 45.5437 150.159 52.9036C150.307 48.0048 149.138 43.1265 146.924 38.8189L146.921 38.8218Z" fill="#A4DAD7"/>
<path d="M151.807 46.7793C152.284 49.9632 152.688 53.1383 153.416 56.7114C153.821 53.3198 153.344 49.8169 151.807 46.7793Z" fill="#A4DAD7"/>
<path d="M151.944 53.7441C151.953 55.6024 152.14 57.1592 152.525 58.959C152.734 57.1943 152.525 55.4151 151.944 53.7441Z" fill="#A4DAD7"/>
<path d="M150.544 56.7676C150.759 58.102 150.789 59.2316 151.211 60.6538C151.266 59.334 151.177 57.9411 150.544 56.7676Z" fill="#A4DAD7"/>
<path d="M151.535 63.0156C151.647 64.7744 151.652 66.5419 151.884 68.2919C152.241 66.5448 152.233 64.6749 151.535 63.0156Z" fill="#A4DAD7"/>
<path d="M142.438 29.7637C143.14 31.2064 144.055 32.532 144.979 33.8138C144.516 32.2365 143.587 30.8757 142.438 29.7637Z" fill="#A4DAD7"/>
<path d="M147.37 94.575C145.688 98.0047 145.021 101.151 143.303 103.992C146.324 101.279 147.707 96.7581 148.115 92.6875C147.836 93.3957 147.632 93.9137 147.37 94.575Z" fill="#A4DAD7"/>
<path d="M132.755 118.605C132.392 119.096 132.102 119.673 131.65 120.077C133.045 119.345 133.868 117.788 134.457 116.334C133.776 117.162 133.305 117.797 132.755 118.605Z" fill="#A4DAD7"/>
<path d="M72.1406 139.875C77.7335 141.587 82.7796 141.982 88.4198 140.214C82.9916 140.162 77.5717 139.764 72.1406 139.875Z" fill="#A4DAD7"/>
<path d="M64.0039 141.197C66.9272 142.757 70.269 143.758 73.5578 143.164C70.3611 142.608 67.2257 141.648 64.0039 141.197Z" fill="#A4DAD7"/>
<path d="M63.5967 139.23C65.3401 140.237 67.3541 140.752 69.3318 140.348C67.4629 140.047 65.5242 139.547 63.5967 139.23Z" fill="#A4DAD7"/>
<path d="M65.5322 137.932C66.768 138.523 68.1097 138.848 69.4681 138.851C68.1989 138.359 66.8795 138.04 65.5322 137.932Z" fill="#A4DAD7"/>
<path d="M58.8184 135.602C59.8198 136.459 61.022 136.995 62.2717 137.311C61.2061 136.564 60.0234 136.041 58.8184 135.602Z" fill="#A4DAD7"/>
</g>
<path d="M154.093 100.783H15.9092V163.818H154.093V100.783Z" fill="#8CC63E"/>
<g style="mix-blend-mode:multiply" opacity="0.1">
<path d="M154.093 100.783H15.9092V108.746C31.9234 109.524 47.9822 110.461 63.6896 113.794C92.6022 119.296 119.819 136.09 133.825 163.82H154.093V100.786V100.783Z" fill="#8CC63E"/>
</g>
<path d="M15.9092 110.233H153.794C160.436 102.215 15.8172 108.898 15.9092 106.818C15.9092 106.821 15.9092 110.233 15.9092 110.233Z" fill="#8CC63E"/>
<path d="M15.9092 120.51H153.794C160.436 112.492 15.8172 119.176 15.9092 117.095C15.9092 117.098 15.9092 120.51 15.9092 120.51Z" fill="#8CC63E"/>
<path d="M15.9092 159.549H153.794C160.436 151.531 15.8172 158.215 15.9092 156.134C15.9092 156.137 15.9092 159.549 15.9092 159.549Z" fill="#8CC63E"/>
<path d="M36.5533 157.057C40.3469 160.276 37.273 118.868 38.2158 118.687C34.4194 115.465 37.4933 156.876 36.5533 157.057Z" fill="#8CC63E"/>
<path d="M68.2964 157.057C72.0901 160.276 69.0161 118.868 69.959 118.686C66.1625 115.467 69.2365 156.876 68.2964 157.057Z" fill="#8CC63E"/>
<path d="M100.041 157.057C103.834 160.276 100.76 118.868 101.703 118.686C97.9067 115.467 100.981 156.876 100.041 157.057Z" fill="#8CC63E"/>
<path d="M131.786 157.057C135.579 160.276 132.505 118.868 133.448 118.687C129.652 115.465 132.726 156.876 131.786 157.057Z" fill="#8CC63E"/>
<path d="M138.773 124.662C138.8 122.61 135.729 122.61 135.76 124.662C135.732 126.713 138.803 126.713 138.773 124.662Z" fill="#8CC63E"/>
<path d="M138.773 133.841C138.8 131.79 135.729 131.79 135.76 133.841C135.732 135.893 138.803 135.893 138.773 133.841Z" fill="#8CC63E"/>
<path d="M138.773 143.015C138.8 140.964 135.729 140.964 135.76 143.015C135.732 145.067 138.803 145.067 138.773 143.015Z" fill="#8CC63E"/>
<path d="M138.773 152.195C138.8 150.143 135.729 150.143 135.76 152.195C135.732 154.246 138.803 154.246 138.773 152.195Z" fill="#8CC63E"/>
<path d="M128.945 124.662C128.973 122.61 125.902 122.61 125.933 124.662C125.905 126.713 128.976 126.713 128.945 124.662Z" fill="#8CC63E"/>
<path d="M128.945 133.841C128.973 131.79 125.902 131.79 125.933 133.841C125.905 135.893 128.976 135.893 128.945 133.841Z" fill="#8CC63E"/>
<path d="M128.945 143.015C128.973 140.964 125.902 140.964 125.933 143.015C125.905 145.067 128.976 145.067 128.945 143.015Z" fill="#8CC63E"/>
<path d="M128.945 152.195C128.973 150.143 125.902 150.143 125.933 152.195C125.905 154.246 128.976 154.246 128.945 152.195Z" fill="#8CC63E"/>
<path d="M75.3605 124.662C75.3884 122.61 72.3172 122.61 72.3479 124.662C72.32 126.713 75.3912 126.713 75.3605 124.662Z" fill="#8CC63E"/>
<path d="M75.3605 133.841C75.3884 131.79 72.3172 131.79 72.3479 133.841C72.32 135.893 75.3912 135.893 75.3605 133.841Z" fill="#8CC63E"/>
<path d="M75.3605 143.015C75.3884 140.964 72.3172 140.964 72.3479 143.015C72.32 145.067 75.3912 145.067 75.3605 143.015Z" fill="#8CC63E"/>
<path d="M75.3605 152.195C75.3884 150.143 72.3172 150.143 72.3479 152.195C72.32 154.246 75.3912 154.246 75.3605 152.195Z" fill="#8CC63E"/>
<path d="M65.5324 124.662C65.5603 122.61 62.4891 122.61 62.5198 124.662C62.4919 126.713 65.5631 126.713 65.5324 124.662Z" fill="#8CC63E"/>
<path d="M65.5324 133.841C65.5603 131.79 62.4891 131.79 62.5198 133.841C62.4919 135.893 65.5631 135.893 65.5324 133.841Z" fill="#8CC63E"/>
<path d="M65.5324 143.015C65.5603 140.964 62.4891 140.964 62.5198 143.015C62.4919 145.067 65.5631 145.067 65.5324 143.015Z" fill="#8CC63E"/>
<path d="M65.5324 152.195C65.5603 150.143 62.4891 150.143 62.5198 152.195C62.4919 154.246 65.5631 154.246 65.5324 152.195Z" fill="#8CC63E"/>
<path d="M107.251 124.662C107.279 122.61 104.208 122.61 104.239 124.662C104.211 126.713 107.282 126.713 107.251 124.662Z" fill="#8CC63E"/>
<path d="M107.251 133.841C107.279 131.79 104.208 131.79 104.239 133.841C104.211 135.893 107.282 135.893 107.251 133.841Z" fill="#8CC63E"/>
<path d="M107.251 143.015C107.279 140.964 104.208 140.964 104.239 143.015C104.211 145.067 107.282 145.067 107.251 143.015Z" fill="#8CC63E"/>
<path d="M107.251 152.195C107.279 150.143 104.208 150.143 104.239 152.195C104.211 154.246 107.282 154.246 107.251 152.195Z" fill="#8CC63E"/>
<path d="M97.424 124.662C97.4519 122.61 94.3807 122.61 94.4114 124.662C94.3835 126.713 97.4546 126.713 97.424 124.662Z" fill="#8CC63E"/>
<path d="M97.424 133.841C97.4519 131.79 94.3807 131.79 94.4114 133.841C94.3835 135.893 97.4546 135.893 97.424 133.841Z" fill="#8CC63E"/>
<path d="M97.424 143.015C97.4519 140.964 94.3807 140.964 94.4114 143.015C94.3835 145.067 97.4546 145.067 97.424 143.015Z" fill="#8CC63E"/>
<path d="M97.424 152.195C97.4519 150.143 94.3807 150.143 94.4114 152.195C94.3835 154.246 97.4546 154.246 97.424 152.195Z" fill="#8CC63E"/>
<path d="M43.6544 124.662C43.6823 122.61 40.6111 122.61 40.6418 124.662C40.6139 126.713 43.6851 126.713 43.6544 124.662Z" fill="#8CC63E"/>
<path d="M43.6544 133.841C43.6823 131.79 40.6111 131.79 40.6418 133.841C40.6139 135.893 43.6851 135.893 43.6544 133.841Z" fill="#8CC63E"/>
<path d="M43.6544 143.015C43.6823 140.964 40.6111 140.964 40.6418 143.015C40.6139 145.067 43.6851 145.067 43.6544 143.015Z" fill="#8CC63E"/>
<path d="M43.6544 152.195C43.6823 150.143 40.6111 150.143 40.6418 152.195C40.6139 154.246 43.6851 154.246 43.6544 152.195Z" fill="#8CC63E"/>
<path d="M33.8283 124.662C33.8562 122.61 30.785 122.61 30.8157 124.662C30.7878 126.713 33.8589 126.713 33.8283 124.662Z" fill="#8CC63E"/>
<path d="M33.8283 133.841C33.8562 131.79 30.785 131.79 30.8157 133.841C30.7878 135.893 33.8589 135.893 33.8283 133.841Z" fill="#8CC63E"/>
<path d="M33.8283 143.015C33.8562 140.964 30.785 140.964 30.8157 143.015C30.7878 145.067 33.8589 145.067 33.8283 143.015Z" fill="#8CC63E"/>
<path d="M33.8283 152.195C33.8562 150.143 30.785 150.143 30.8157 152.195C30.7878 154.246 33.8589 154.246 33.8283 152.195Z" fill="#8CC63E"/>
<path d="M52.8542 147.662C57.5452 147.662 61.3481 143.672 61.3481 138.751C61.3481 133.829 57.5452 129.84 52.8542 129.84C48.1632 129.84 44.3604 133.829 44.3604 138.751C44.3604 143.672 48.1632 147.662 52.8542 147.662Z" fill="#8CC63E"/>
<path d="M89.0005 139.72C89.5118 137.475 88.1918 135.221 86.0521 134.684C83.9124 134.148 81.7633 135.533 81.252 137.777C80.7407 140.022 82.0607 142.277 84.2004 142.813C86.3401 143.35 88.4892 141.965 89.0005 139.72Z" fill="#8CC63E"/>
<path d="M50.7178 138.752C50.7178 137.581 51.6216 136.633 52.7373 136.633H84.3222C85.438 136.633 86.3418 137.581 86.3418 138.752C86.3418 139.922 85.438 140.87 84.3222 140.87H52.7373C51.6216 140.87 50.7178 139.922 50.7178 138.752Z" fill="#8CC63E"/>
<path d="M13.8015 99.8936H156.021C159.168 99.8936 161.717 97.2188 161.717 93.9179C161.717 90.6169 159.168 87.9422 156.021 87.9422H13.8015C6.45405 87.8281 6.38153 100.008 13.8015 99.8936Z" fill="#8CC63E"/>
<path d="M156.022 87.9465C163.37 87.8323 163.442 100.012 156.022 99.8978H13.8024C10.6559 99.8978 8.10633 97.2231 8.10633 93.9221C8.10633 90.6212 10.6559 87.9465 13.8024 87.9465H156.022ZM156.022 86.375H13.8024C9.83579 86.375 6.6084 89.7608 6.6084 93.9221C6.6084 98.0835 9.83579 101.469 13.8024 101.469H156.022C165.381 101.425 165.465 86.4277 156.022 86.375Z" fill="#8CC63E"/>
<path d="M17.6574 93.9202C17.7328 88.4303 9.51504 88.4303 9.59036 93.9202C9.51504 99.4101 17.7328 99.4101 17.6574 93.9202Z" fill="#8CC63E"/>
<path d="M15.5684 93.9216C15.6047 91.2761 11.6437 91.2761 11.6799 93.9216C11.6437 96.567 15.6047 96.567 15.5684 93.9216Z" fill="#8CC63E"/>
<path d="M38.0256 93.9202C38.1009 88.4303 29.8832 88.4303 29.9585 93.9202C29.8832 99.4101 38.1009 99.4101 38.0256 93.9202Z" fill="#8CC63E"/>
<path d="M35.9366 93.9216C35.9729 91.2761 32.0118 91.2761 32.0481 93.9216C32.0118 96.567 35.9729 96.567 35.9366 93.9216Z" fill="#8CC63E"/>
<path d="M58.3947 93.9202C58.4701 88.4303 50.2523 88.4303 50.3277 93.9202C50.2523 99.4101 58.4701 99.4101 58.3947 93.9202Z" fill="#8CC63E"/>
<path d="M56.3057 93.9216C56.342 91.2761 52.381 91.2761 52.4172 93.9216C52.381 96.567 56.342 96.567 56.3057 93.9216Z" fill="#8CC63E"/>
<path d="M78.7629 93.9202C78.8382 88.4303 70.6205 88.4303 70.6958 93.9202C70.6205 99.4101 78.8382 99.4101 78.7629 93.9202Z" fill="#8CC63E"/>
<path d="M76.6729 93.9216C76.7092 91.2761 72.7482 91.2761 72.7844 93.9216C72.7482 96.567 76.7092 96.567 76.6729 93.9216Z" fill="#8CC63E"/>
<path d="M99.1301 93.9202C99.2054 88.4303 90.9877 88.4303 91.063 93.9202C90.9877 99.4101 99.2054 99.4101 99.1301 93.9202Z" fill="#8CC63E"/>
<path d="M97.0401 93.9216C97.0764 91.2761 93.1154 91.2761 93.1516 93.9216C93.1154 96.567 97.0764 96.567 97.0401 93.9216Z" fill="#8CC63E"/>
<path d="M119.498 93.9202C119.574 88.4303 111.356 88.4303 111.431 93.9202C111.356 99.4101 119.574 99.4101 119.498 93.9202Z" fill="#8CC63E"/>
<path d="M117.408 93.9216C117.445 91.2761 113.484 91.2761 113.52 93.9216C113.484 96.567 117.445 96.567 117.408 93.9216Z" fill="#8CC63E"/>
<path d="M139.865 93.9202C139.941 88.4303 131.723 88.4303 131.798 93.9202C131.723 99.4101 139.941 99.4101 139.865 93.9202Z" fill="#8CC63E"/>
<path d="M137.776 93.9216C137.813 91.2761 133.852 91.2761 133.888 93.9216C133.852 96.567 137.813 96.567 137.776 93.9216Z" fill="#8CC63E"/>
<path d="M160.235 93.9202C160.31 88.4303 152.092 88.4303 152.168 93.9202C152.092 99.4101 160.31 99.4101 160.235 93.9202Z" fill="#8CC63E"/>
<path d="M158.144 93.9216C158.18 91.2761 154.219 91.2761 154.255 93.9216C154.219 96.567 158.18 96.567 158.144 93.9216Z" fill="#8CC63E"/>
<g style="mix-blend-mode:multiply" opacity="0.1">
<path d="M23.3902 92.0547C22.7403 92.3708 17.9118 97.6412 19.2786 96.7779C22.2187 94.9577 24.8993 92.5698 26.6762 89.4766C25.3903 90.4803 24.6009 91.0949 23.3902 92.0547Z" fill="#8CC63E"/>
</g>
<g style="mix-blend-mode:multiply" opacity="0.1">
<path d="M21.9551 96.3241C23.9997 95.1769 25.8854 93.7284 27.4029 91.8789C25.2466 92.8241 23.3052 94.3078 21.9551 96.3241Z" fill="#8CC63E"/>
</g>
<g style="mix-blend-mode:multiply" opacity="0.1">
<path d="M23.2441 97.3705C24.6974 96.6623 26.0029 95.6293 26.968 94.2773C25.5147 94.9885 24.2149 96.0215 23.2441 97.3705Z" fill="#8CC63E"/>
</g>
<g style="mix-blend-mode:multiply" opacity="0.1">
<path d="M42.542 96.5588C45.0302 95.1541 47.1781 93.1554 48.768 90.7031C46.3301 92.1839 44.1822 94.1475 42.542 96.5588Z" fill="#8CC63E"/>
</g>
<g style="mix-blend-mode:multiply" opacity="0.1">
<path d="M64.2388 93.701C63.402 94.5906 61.8538 96.1943 61.5107 96.8644C63.9487 95.4393 66.0882 93.4259 67.6001 90.959C66.4648 91.8515 65.2765 92.6797 64.2388 93.701Z" fill="#8CC63E"/>
</g>
<g style="mix-blend-mode:multiply" opacity="0.1">
<path d="M121.141 96.2572C123.609 94.4516 125.81 92.2598 127.528 89.6582C125.065 91.4726 122.831 93.6293 121.141 96.2572Z" fill="#8CC63E"/>
</g>
<g style="mix-blend-mode:multiply" opacity="0.1">
<path d="M124.008 96.4318C125.185 95.8553 126.234 95.0183 127.04 93.9473C125.838 94.4828 124.806 95.3519 124.008 96.4318Z" fill="#8CC63E"/>
</g>
<g style="mix-blend-mode:multiply" opacity="0.1">
<path d="M128.075 92.1134C128.979 91.4872 129.735 90.6561 130.257 89.6582C129.358 90.2903 128.625 91.1389 128.075 92.1134Z" fill="#8CC63E"/>
</g>
<g style="mix-blend-mode:multiply" opacity="0.1">
<path d="M142.767 96.3558C144.931 94.7433 146.887 92.8295 148.454 90.5762C146.332 92.2413 144.384 94.1493 142.767 96.3558Z" fill="#8CC63E"/>
</g>
<g style="mix-blend-mode:multiply" opacity="0.1">
<path d="M144.729 97.7504C145.943 96.9252 147.022 95.8922 147.87 94.6602C146.601 95.4122 145.516 96.4599 144.729 97.7504Z" fill="#8CC63E"/>
</g>
<path d="M166.608 170H3.39197C1.51746 170 0 168.405 0 166.441C0 164.475 1.52025 162.883 3.39197 162.883H166.605C168.48 162.883 169.997 164.478 169.997 166.441C169.997 168.408 168.477 170 166.605 170H166.608Z" fill="#8CC63E"/>
<g style="mix-blend-mode:multiply" opacity="0.4">
<path d="M168.851 167.65H1.14925C0.513259 167.65 0 167.108 0 166.444C0 165.777 0.516048 165.238 1.14925 165.238H168.851C169.487 165.238 170 165.78 170 166.444C170 167.111 169.484 167.65 168.851 167.65Z" fill="#8CC63E"/>
</g>
<path d="M146.845 115.291H111.087C110.234 115.291 109.542 114.566 109.542 113.67C109.542 112.775 110.234 112.049 111.087 112.049H146.845C147.699 112.049 148.391 112.775 148.391 113.67C148.391 114.566 147.699 115.291 146.845 115.291Z" fill="#8CC63E"/>
<path d="M58.9126 115.291H23.1547C22.3012 115.291 21.6094 114.566 21.6094 113.67C21.6094 112.775 22.3012 112.049 23.1547 112.049H58.9126C59.7662 112.049 60.458 112.775 60.458 113.67C60.458 114.566 59.7662 115.291 58.9126 115.291Z" fill="#8CC63E"/>
<g style="mix-blend-mode:multiply" opacity="0.1">
<path d="M119.935 152.018C119.478 150.248 118.476 148.706 117.402 147.286C115.678 144.942 113.466 143.075 111.126 141.445C112.811 143.827 113.943 145.443 115.871 147.687C116.914 148.834 118.052 149.882 119.065 151.058C119.399 151.442 119.701 151.854 119.999 152.267C119.977 152.185 119.955 152.103 119.932 152.021L119.935 152.018Z" fill="#8CC63E"/>
</g>
<g style="mix-blend-mode:multiply" opacity="0.1">
<path d="M112.633 147.84C113.595 149.698 114.926 151.313 116.53 152.595C115.673 150.664 114.326 149.019 112.633 147.84Z" fill="#8CC63E"/>
</g>
<g style="mix-blend-mode:multiply" opacity="0.1">
<path d="M150.08 124.502C150.122 129.497 149.609 134.522 150.2 139.497C150.811 137.159 151.464 134.803 151.603 132.374C151.606 129.69 151.093 126.966 150.08 124.502Z" fill="#8CC63E"/>
</g>
<g style="mix-blend-mode:multiply" opacity="0.1">
<path d="M146.833 129.4C146.192 132.096 146.072 134.958 146.836 137.638C147.28 135.478 147.269 131.984 146.833 129.4Z" fill="#8CC63E"/>
</g>
<g style="mix-blend-mode:multiply" opacity="0.1">
<path d="M148.734 139.949C148.302 141.796 148.201 143.71 148.433 145.597C148.798 143.742 148.901 141.837 148.734 139.949Z" fill="#8CC63E"/>
</g>
<g style="mix-blend-mode:multiply" opacity="0.1">
<path d="M20.2816 135.529C20.0668 136.533 19.9133 137.551 19.8408 138.578C19.8827 138.473 19.9273 138.368 19.9691 138.262C20.8255 136.111 21.9441 133.82 22.7753 131.543C23.6233 129.085 24.2314 126.539 24.6359 123.961C22.8618 127.669 21.124 131.452 20.2816 135.529Z" fill="#8CC63E"/>
</g>
<g style="mix-blend-mode:multiply" opacity="0.1">
<path d="M21.1836 144.229C21.6829 142.93 22.5421 141.227 22.8824 140.287C23.7527 138.178 24.2576 135.921 24.715 133.68C22.9019 136.896 21.4123 140.46 21.1836 144.229Z" fill="#8CC63E"/>
</g>
<g style="mix-blend-mode:multiply" opacity="0.1">
<path d="M22.5317 149.577C23.4661 147.277 24.4508 144.693 24.8748 141.98C23.5191 144.266 22.487 146.841 22.5317 149.577Z" fill="#8CC63E"/>
</g>
<g style="mix-blend-mode:multiply" opacity="0.1">
<path d="M23.0141 154.196C23.2512 153.47 23.4548 152.934 23.6975 152.329C24.4227 150.511 24.8384 148.586 25.4297 146.719C23.8314 148.814 22.9053 151.503 23.0169 154.196H23.0141Z" fill="#8CC63E"/>
</g>
<g style="mix-blend-mode:multiply" opacity="0.4">
<path d="M50.2936 136.488C50.6953 135.382 51.2839 134.398 52.0286 133.512C48.9017 134.913 47.4512 138.99 48.8821 142.218C49.3424 143.441 49.0718 142.212 49.1304 141.656C49.1499 139.88 49.6437 138.08 50.2936 136.488Z" fill="#8CC63E"/>
</g>
<g style="mix-blend-mode:multiply" opacity="0.4">
<path d="M46.5357 139.358C46.5496 140.236 46.6752 141.111 46.8704 141.966C46.8816 141.907 46.8927 141.849 46.9039 141.79C47.3781 139.774 47.1968 137.649 47.83 135.674C46.9178 136.66 46.4966 137.997 46.5357 139.358Z" fill="#8CC63E"/>
</g>
<g style="mix-blend-mode:multiply" opacity="0.1">
<path d="M76.3749 104.554C72.6091 103.267 68.5672 103.117 64.6787 103.823C67.5323 104.437 70.4389 104.946 73.3595 104.771C74.4027 104.771 75.4404 104.686 76.4809 104.63C76.6845 104.63 76.4474 104.589 76.3721 104.554H76.3749Z" fill="#8CC63E"/>
</g>
<g style="mix-blend-mode:multiply" opacity="0.1">
<path d="M56.9912 102.903C59.047 103.687 60.7849 103.793 62.9411 103.957C61.1056 102.988 59.0163 102.774 56.9912 102.903Z" fill="#8CC63E"/>
</g>
<g style="mix-blend-mode:multiply" opacity="0.1">
<path d="M54.6562 104.846C56.7149 104.983 58.7539 105.387 60.8265 105.302C58.8962 104.492 56.6563 104.079 54.6562 104.846Z" fill="#8CC63E"/>
</g>
<path d="M36.2149 78.147H19.6373C16.8869 78.1061 15.202 80.5496 15.4029 82.7824C15.5758 84.7109 17.2607 86.4755 19.6373 86.4375H36.2149C41.3364 86.5165 41.3447 78.068 36.2149 78.147Z" fill="#F3AD61"/>
<g style="mix-blend-mode:multiply" opacity="0.4">
<path d="M36.2148 78.1461H33.6039C32.9846 86.3282 22.4572 84.868 16.8086 85.184C18.0499 87.6158 34.0836 85.9946 36.2148 86.4365C41.339 86.5155 41.3446 78.0641 36.2148 78.1431V78.1461Z" fill="#F3AD61"/>
</g>
<path d="M36.2152 74.0396H29.6377L27.8664 73.8962C26.9905 73.8259 26.1091 73.8347 25.236 73.9254L24.1565 74.0366H21.1662C19.9779 74.0366 18.7924 74.259 17.7045 74.7565C16.5469 75.2862 16.1229 75.9007 15.8913 77.7268C15.6263 79.8016 17.0768 82.3681 19.6404 82.3271H36.218C41.3395 82.4061 41.3478 73.9576 36.218 74.0366L36.2152 74.0396Z" fill="#FDDA9E"/>
<g style="mix-blend-mode:multiply" opacity="0.4">
<path d="M36.2151 74.0397H35.3225C37.1245 81.9702 23.9583 81.3234 19.1465 82.295C19.6625 82.4062 35.6795 82.2891 36.2151 82.3301C41.3393 82.4091 41.3449 73.9577 36.2151 74.0397Z" fill="#FDDA9E"/>
</g>
<g style="mix-blend-mode:multiply" opacity="0.4">
<path d="M20.0675 77.1708C20.1958 77.0684 20.2237 76.8752 20.126 76.7406C19.8862 76.5826 19.0884 74.8326 18.6727 75.2306C18.5221 75.3272 18.5416 75.5935 18.617 75.6637C18.9015 75.8861 19.6435 77.5571 20.0703 77.1708H20.0675Z" fill="#FDDA9E"/>
</g>
<g style="mix-blend-mode:multiply" opacity="0.4">
<path d="M36.9542 81.2372C37.0825 81.1348 37.1104 80.9416 37.0128 80.807C36.7729 80.649 35.9751 78.899 35.5595 79.297C35.4088 79.3936 35.4284 79.6599 35.5037 79.7301C35.7882 79.9525 36.5302 81.6235 36.957 81.2372H36.9542Z" fill="#FDDA9E"/>
</g>
<g style="mix-blend-mode:multiply" opacity="0.4">
<path d="M20.6729 79.8933C20.6506 79.7236 20.5028 79.6065 20.3438 79.6299C20.0955 79.7704 18.2517 79.6446 18.3772 80.2211C18.3995 80.3908 18.5474 80.5079 18.7064 80.4844C18.9546 80.344 20.7985 80.4698 20.6729 79.8933Z" fill="#FDDA9E"/>
</g>
<g style="mix-blend-mode:multiply" opacity="0.4">
<path d="M24.6649 78.0724C24.7933 78.1748 24.9774 78.1485 25.075 78.0138C25.1559 77.73 26.5422 76.4482 26.0652 76.1351C25.9369 76.0093 25.697 76.1029 25.6524 76.1966C25.5269 76.5448 24.1935 77.7475 24.6649 78.0724Z" fill="#FDDA9E"/>
</g>
<g style="mix-blend-mode:multiply" opacity="0.4">
<path d="M27.8727 78.8476C27.8559 79.0173 27.9759 79.1666 28.1349 79.1842C28.4082 79.1081 30.1739 79.6787 30.1767 79.0847C30.1935 78.9149 30.0735 78.7657 29.9145 78.7481C29.6412 78.8242 27.8754 78.2536 27.8727 78.8476Z" fill="#FDDA9E"/>
</g>
<g style="mix-blend-mode:multiply" opacity="0.4">
<path d="M31.2115 75.6386C31.1948 75.8084 31.3147 75.9576 31.4737 75.9752C31.7471 75.8991 33.5128 76.4697 33.5156 75.8757C33.5323 75.7059 33.4124 75.5567 33.2534 75.5391C32.98 75.6152 31.2143 75.0446 31.2115 75.6386Z" fill="#FDDA9E"/>
</g>
<g style="mix-blend-mode:multiply" opacity="0.4">
<path d="M38.5081 75.7893C38.3909 75.6518 38.1454 75.7191 38.0924 75.8098C37.9334 76.1463 36.5024 77.2115 36.9404 77.5803C37.0603 77.6944 37.2444 77.6885 37.356 77.5627C37.462 77.2876 38.9572 76.1493 38.5081 75.7922V75.7893Z" fill="#FDDA9E"/>
</g>
<path d="M71.9181 78.147H55.3404C52.59 78.1061 50.9052 80.5496 51.106 82.7824C51.279 84.7109 52.9638 86.4755 55.3404 86.4375H71.9181C77.0395 86.5165 77.0479 78.068 71.9181 78.147Z" fill="#F3AD61"/>
<g style="mix-blend-mode:multiply" opacity="0.4">
<path d="M71.9169 78.1461H69.306C68.6867 86.3282 58.1594 84.868 52.5107 85.184C53.752 87.6158 69.7858 85.9946 71.9169 86.4365C77.0411 86.5155 77.0467 78.0641 71.9169 78.1431V78.1461Z" fill="#F3AD61"/>
</g>
<path d="M71.9174 74.0396H65.3399L63.5686 73.8962C62.6927 73.8259 61.8112 73.8347 60.9381 73.9254L59.8586 74.0366H56.8683C55.68 74.0366 54.4945 74.259 53.4066 74.7565C52.249 75.2862 51.825 75.9007 51.5935 77.7268C51.3285 79.8016 52.779 82.3681 55.3425 82.3271H71.9202C77.0416 82.4061 77.05 73.9576 71.9202 74.0366L71.9174 74.0396Z" fill="#FDDA9E"/>
<g style="mix-blend-mode:multiply" opacity="0.4">
<path d="M71.9173 74.0397H71.0246C72.8266 81.9702 59.6604 81.3234 54.8486 82.295C55.3647 82.4062 71.3817 82.2891 71.9173 82.3301C77.0415 82.4091 77.047 73.9577 71.9173 74.0397Z" fill="#FDDA9E"/>
</g>
<g style="mix-blend-mode:multiply" opacity="0.4">
<path d="M55.7686 77.1708C55.897 77.0684 55.9249 76.8752 55.8272 76.7406C55.5873 76.5826 54.7895 74.8326 54.3739 75.2306C54.2233 75.3272 54.2428 75.5935 54.3181 75.6637C54.6027 75.8861 55.3446 77.5571 55.7714 77.1708H55.7686Z" fill="#FDDA9E"/>
</g>
<g style="mix-blend-mode:multiply" opacity="0.4">
<path d="M72.6573 81.2372C72.7856 81.1348 72.8135 80.9416 72.7159 80.807C72.476 80.649 71.6782 78.899 71.2626 79.297C71.112 79.3936 71.1315 79.6599 71.2068 79.7301C71.4913 79.9525 72.2333 81.6235 72.6601 81.2372H72.6573Z" fill="#FDDA9E"/>
</g>
<g style="mix-blend-mode:multiply" opacity="0.4">
<path d="M56.3741 79.8933C56.3518 79.7236 56.2039 79.6065 56.0449 79.6299C55.7967 79.7704 53.9529 79.6446 54.0784 80.2211C54.1007 80.3908 54.2485 80.5079 54.4075 80.4844C54.6558 80.344 56.4996 80.4698 56.3741 79.8933Z" fill="#FDDA9E"/>
</g>
<g style="mix-blend-mode:multiply" opacity="0.4">
<path d="M60.3661 78.0724C60.4944 78.1748 60.6785 78.1485 60.7762 78.0138C60.8571 77.73 62.2434 76.4482 61.7664 76.1351C61.6381 76.0093 61.3982 76.1029 61.3536 76.1966C61.2281 76.5448 59.8947 77.7475 60.3661 78.0724Z" fill="#FDDA9E"/>
</g>
<g style="mix-blend-mode:multiply" opacity="0.4">
<path d="M63.5738 78.8476C63.5571 79.0173 63.677 79.1666 63.836 79.1842C64.1094 79.1081 65.8751 79.6787 65.8779 79.0847C65.8946 78.9149 65.7747 78.7657 65.6157 78.7481C65.3423 78.8242 63.5766 78.2536 63.5738 78.8476Z" fill="#FDDA9E"/>
</g>
<g style="mix-blend-mode:multiply" opacity="0.4">
<path d="M66.9137 75.6386C66.8969 75.8084 67.0169 75.9576 67.1759 75.9752C67.4492 75.8991 69.215 76.4697 69.2178 75.8757C69.2345 75.7059 69.1145 75.5567 68.9555 75.5391C68.6822 75.6152 66.9165 75.0446 66.9137 75.6386Z" fill="#FDDA9E"/>
</g>
<g style="mix-blend-mode:multiply" opacity="0.4">
<path d="M74.2102 75.7893C74.093 75.6518 73.8476 75.7191 73.7946 75.8098C73.6356 76.1463 72.2046 77.2115 72.6425 77.5803C72.7625 77.6944 72.9466 77.6885 73.0582 77.5627C73.1642 77.2876 74.6593 76.1493 74.2102 75.7922V75.7893Z" fill="#FDDA9E"/>
</g>
<path d="M148.765 78.147H132.187C127.066 78.068 127.057 86.5165 132.187 86.4375H148.765C153.886 86.5165 153.894 78.068 148.765 78.147Z" fill="#F3AD61"/>
<g style="mix-blend-mode:multiply" opacity="0.4">
<path d="M148.764 78.1461H146.153C145.533 86.3282 135.006 84.868 129.357 85.184C130.599 87.6158 146.632 85.9946 148.764 86.4365C153.888 86.5155 153.893 78.0641 148.764 78.1431V78.1461Z" fill="#F3AD61"/>
</g>
<path d="M148.765 74.0396H132.187C127.066 73.9606 127.057 82.4091 132.187 82.3301H148.765C153.886 82.4091 153.894 73.9606 148.765 74.0396Z" fill="#FDDA9E"/>
<g style="mix-blend-mode:multiply" opacity="0.4">
<path d="M148.763 74.0397H147.87C149.672 81.9702 136.506 81.3234 131.694 82.295C132.21 82.4062 148.227 82.2891 148.763 82.3301C151.176 82.3682 152.453 80.5099 152.596 78.5463C152.752 76.3398 151.477 73.9958 148.763 74.0397Z" fill="#FDDA9E"/>
</g>
<g style="mix-blend-mode:multiply" opacity="0.4">
<path d="M132.615 77.1708C132.744 77.0684 132.772 76.8752 132.674 76.7406C132.434 76.5826 131.636 74.8326 131.221 75.2306C131.07 75.3272 131.089 75.5935 131.165 75.6637C131.449 75.8861 132.191 77.5571 132.618 77.1708H132.615Z" fill="#FDDA9E"/>
</g>
<g style="mix-blend-mode:multiply" opacity="0.4">
<path d="M149.504 81.2372C149.632 81.1348 149.66 80.9416 149.563 80.807C149.323 80.649 148.525 78.899 148.109 79.297C147.959 79.3936 147.978 79.6599 148.053 79.7301C148.338 79.9525 149.08 81.6235 149.507 81.2372H149.504Z" fill="#FDDA9E"/>
</g>
<g style="mix-blend-mode:multiply" opacity="0.4">
<path d="M133.221 79.8933C133.198 79.7236 133.051 79.6065 132.892 79.6299C132.643 79.7704 130.8 79.6446 130.925 80.2211C130.947 80.3908 131.095 80.5079 131.254 80.4844C131.502 80.344 133.346 80.4698 133.221 79.8933Z" fill="#FDDA9E"/>
</g>
<g style="mix-blend-mode:multiply" opacity="0.4">
<path d="M137.212 78.0724C137.34 78.1748 137.524 78.1485 137.622 78.0138C137.703 77.73 139.089 76.4482 138.612 76.1351C138.484 76.0093 138.244 76.1029 138.199 76.1966C138.074 76.5448 136.74 77.7475 137.212 78.0724Z" fill="#FDDA9E"/>
</g>
<g style="mix-blend-mode:multiply" opacity="0.4">
<path d="M140.421 78.8496C140.404 79.0193 140.524 79.1685 140.683 79.1861C140.956 79.11 142.722 79.6807 142.725 79.0866C142.741 78.9169 142.621 78.7676 142.462 78.7501C142.189 78.8262 140.423 78.2555 140.421 78.8496Z" fill="#FDDA9E"/>
</g>
<g style="mix-blend-mode:multiply" opacity="0.4">
<path d="M143.76 75.6386C143.744 75.8084 143.864 75.9576 144.023 75.9752C144.296 75.8991 146.062 76.4697 146.064 75.8757C146.081 75.7059 145.961 75.5567 145.802 75.5391C145.529 75.6152 143.763 75.0446 143.76 75.6386Z" fill="#FDDA9E"/>
</g>
<g style="mix-blend-mode:multiply" opacity="0.4">
<path d="M151.057 75.7893C150.94 75.6518 150.694 75.7191 150.641 75.8098C150.482 76.1463 149.051 77.2115 149.489 77.5803C149.609 77.6944 149.793 77.6885 149.905 77.5627C150.011 77.2876 151.506 76.1493 151.06 75.7922L151.057 75.7893Z" fill="#FDDA9E"/>
</g>
<path d="M149.213 72.6338C146.805 73.5234 126.152 69.8478 128.515 76.4263C129.595 78.4748 130.78 76.8448 132.021 76.3298C133.857 76.7307 132.482 80.1721 134.736 80.3418C137.402 80.9857 136.577 76.1249 138.95 76.5697C140.083 77.2633 140.211 81.448 142.027 78.2758C143.547 74.7261 144.903 78.5129 145.084 80.4823C145.918 82.5366 149.001 82.1006 149.28 79.8824C149.402 79.0484 149.216 77.9276 149.955 77.591C154.103 77.7227 152.493 72.6308 149.213 72.6367V72.6338Z" fill="#F7676C"/>
<g style="mix-blend-mode:multiply" opacity="0.4">
<path d="M149.213 72.6348L149.057 72.6933C149.76 74.613 148.77 76.1055 147.269 77.1414C146.733 78.23 146.733 80.3955 145.043 79.86C145.291 82.4821 148.92 82.5084 149.277 79.8805C149.4 79.0465 149.213 77.9257 149.952 77.5891C154.111 77.7208 152.482 72.6289 149.21 72.6348H149.213Z" fill="#F7676C"/>
<path d="M142.027 78.2714C142.278 77.5164 142.808 76.5594 143.665 76.9428C142.596 74.6778 140.691 77.4169 140.027 78.6577C140.515 79.8545 141.723 79.3366 142.025 78.2684L142.027 78.2714Z" fill="#F7676C"/>
<path d="M136.08 76.097C134.219 75.9332 134.582 78.6167 133.572 79.597C135.623 82.301 138.864 77.329 136.08 76.097Z" fill="#F7676C"/>
</g>
<path d="M113.064 78.147H96.4868C91.3654 78.068 91.357 86.5165 96.4868 86.4375H113.064C118.186 86.5165 118.194 78.068 113.064 78.147Z" fill="#F3AD61"/>
<g style="mix-blend-mode:multiply" opacity="0.4">
<path d="M113.064 78.1461H110.453C109.834 86.3282 99.3068 84.868 93.6582 85.184C94.8995 87.6158 110.933 85.9946 113.064 86.4365C118.189 86.5155 118.194 78.0641 113.064 78.1431V78.1461Z" fill="#F3AD61"/>
</g>
<path d="M113.064 74.0396H96.4868C91.3654 73.9606 91.357 82.4091 96.4868 82.3301H113.064C118.186 82.4091 118.194 73.9606 113.064 74.0396Z" fill="#FDDA9E"/>
<g style="mix-blend-mode:multiply" opacity="0.4">
<path d="M113.064 74.0397H112.171C113.973 81.9702 100.807 81.3234 95.9951 82.295C96.5112 82.4062 112.528 82.2891 113.064 82.3301C118.188 82.4091 118.194 73.9577 113.064 74.0397Z" fill="#FDDA9E"/>
</g>
<g style="mix-blend-mode:multiply" opacity="0.4">
<path d="M96.9161 77.1708C97.0444 77.0684 97.0723 76.8752 96.9747 76.7406C96.7348 76.5826 95.937 74.8326 95.5214 75.2306C95.3707 75.3272 95.3903 75.5935 95.4656 75.6637C95.7501 75.8861 96.4921 77.5571 96.9189 77.1708H96.9161Z" fill="#FDDA9E"/>
</g>
<g style="mix-blend-mode:multiply" opacity="0.4">
<path d="M113.807 81.2372C113.935 81.1348 113.963 80.9416 113.865 80.807C113.625 80.649 112.828 78.899 112.412 79.297C112.261 79.3936 112.281 79.6599 112.356 79.7301C112.641 79.9525 113.383 81.6235 113.81 81.2372H113.807Z" fill="#FDDA9E"/>
</g>
<g style="mix-blend-mode:multiply" opacity="0.4">
<path d="M97.5225 79.8933C97.5002 79.7236 97.3524 79.6065 97.1934 79.6299C96.9451 79.7704 95.1013 79.6446 95.2268 80.2211C95.2491 80.3908 95.397 80.5079 95.556 80.4844C95.8042 80.344 97.6481 80.4698 97.5225 79.8933Z" fill="#FDDA9E"/>
</g>
<g style="mix-blend-mode:multiply" opacity="0.4">
<path d="M101.513 78.0724C101.641 78.1748 101.825 78.1485 101.923 78.0138C102.004 77.73 103.39 76.4482 102.913 76.1351C102.785 76.0093 102.545 76.1029 102.5 76.1966C102.375 76.5448 101.041 77.7475 101.513 78.0724Z" fill="#FDDA9E"/>
</g>
<g style="mix-blend-mode:multiply" opacity="0.4">
<path d="M104.724 78.8496C104.707 79.0193 104.827 79.1685 104.986 79.1861C105.26 79.11 107.026 79.6807 107.028 79.0866C107.045 78.9169 106.925 78.7676 106.766 78.7501C106.493 78.8262 104.727 78.2555 104.724 78.8496Z" fill="#FDDA9E"/>
</g>
<g style="mix-blend-mode:multiply" opacity="0.4">
<path d="M108.061 75.6386C108.044 75.8084 108.164 75.9576 108.323 75.9752C108.597 75.8991 110.362 76.4697 110.365 75.8757C110.382 75.7059 110.262 75.5567 110.103 75.5391C109.83 75.6152 108.064 75.0446 108.061 75.6386Z" fill="#FDDA9E"/>
</g>
<g style="mix-blend-mode:multiply" opacity="0.4">
<path d="M115.361 75.7893C115.243 75.6518 114.998 75.7191 114.945 75.8098C114.786 76.1463 113.355 77.2115 113.793 77.5803C113.913 77.6944 114.097 77.6885 114.209 77.5627C114.315 77.2876 115.81 76.1493 115.361 75.7922V75.7893Z" fill="#FDDA9E"/>
</g>
<path d="M113.514 72.6338C111.106 73.5234 90.4532 69.8478 92.8158 76.4263C93.8954 78.4748 95.0809 76.8448 96.3222 76.3298C98.1576 76.7307 96.7824 80.1721 99.0363 80.3418C101.703 80.9857 100.877 76.1249 103.251 76.5697C104.384 77.2633 104.512 81.448 106.328 78.2758C107.848 74.7261 109.204 78.5129 109.385 80.4823C110.219 82.5366 113.302 82.1006 113.58 79.8824C113.703 79.0484 113.516 77.9276 114.256 77.591C118.403 77.7227 116.794 72.6308 113.514 72.6367V72.6338Z" fill="#F7676C"/>
<g style="mix-blend-mode:multiply" opacity="0.4">
<path d="M113.513 72.6348L113.354 72.7021C114.057 74.6218 113.069 76.1054 111.568 77.1443C111.033 78.2329 111.027 80.3985 109.337 79.8629C109.585 82.485 113.22 82.5113 113.58 79.8834C113.702 79.0494 113.516 77.9286 114.255 77.5921C118.414 77.7237 116.785 72.6318 113.513 72.6377V72.6348Z" fill="#F7676C"/>
<path d="M106.328 78.2714C106.579 77.5164 107.109 76.5594 107.966 76.9428C106.897 74.6778 104.992 77.4169 104.328 78.6577C104.816 79.8545 106.024 79.3366 106.325 78.2684L106.328 78.2714Z" fill="#F7676C"/>
<path d="M100.381 76.097C98.5202 75.9332 98.8828 78.6167 97.873 79.597C99.9233 82.301 103.165 77.329 100.381 76.097Z" fill="#F7676C"/>
</g>
<path d="M62.4579 76.0902C63.0744 80.4154 65.6602 73.0204 66.458 79.5082C66.6728 80.111 67.3143 80.6524 67.8694 80.3803C68.9964 79.7891 67.8387 77.6119 69.0215 77.0705C71.2753 76.7047 70.0312 82.4902 73.2307 80.0291C74.6338 78.1562 73.6631 75.5225 71.9532 74.109C71.2112 73.4945 70.2739 73.2282 69.3311 73.196C65.3031 73.0614 63.9642 68.745 64.7201 64.8909C64.7843 63.1175 65.1943 60.8759 64.0005 59.4566C62.7313 58.5202 62.7341 61.1627 62.6587 61.7714C62.0702 66.515 62.0032 71.3319 62.4551 76.0931L62.4579 76.0902Z" fill="#F7676C"/>
<path d="M66.1471 59.3185H61.6533V44.7715H66.1471V47.8969L66.0076 49.2079C65.9519 49.7376 65.9295 50.2702 65.9407 50.8028L66.1471 59.3156V59.3185Z" fill="#20B0A9"/>
<g style="mix-blend-mode:multiply" opacity="0.4">
<path d="M64.6316 44.7715H63.1699V59.3185H64.6316V44.7715Z" fill="#20B0A9"/>
</g>
<path d="M66.3854 54.084H61.4118C61.1191 54.084 60.8818 54.3329 60.8818 54.64V60.2382C60.8818 60.5452 61.1191 60.7942 61.4118 60.7942H66.3854C66.6781 60.7942 66.9154 60.5452 66.9154 60.2382V54.64C66.9154 54.3329 66.6781 54.084 66.3854 54.084Z" fill="#19807B"/>
<path d="M66.7101 44.7713H61.7142C61.3683 44.7713 61.0894 44.4581 61.1228 44.0953C61.4492 40.487 64.353 37.6543 67.8761 37.6543V43.548C67.2317 43.548 66.7101 44.0953 66.7101 44.7713Z" fill="#19807B"/>
<path d="M80.9239 42.9605L74.6532 42.8025C74.0674 42.7878 73.4816 42.8054 72.8959 42.8581L71.7634 42.9605H67.8721V38.2461H80.9211V42.9605H80.9239Z" fill="#20B0A9"/>
<g style="mix-blend-mode:multiply" opacity="0.4">
<path d="M80.925 39.8613H67.876V41.3362H80.925V39.8613Z" fill="#20B0A9"/>
</g>
<path d="M70.2534 39.4698C68.9702 39.6161 69.8266 34.9339 69.5923 34.3223H70.9145C70.6801 34.9514 71.5365 39.6015 70.2534 39.4698Z" fill="#19807B"/>
<path d="M67.7978 34.7689C68.6793 34.45 73.8565 35.6498 73.7198 33.7535C73.7198 33.1916 73.2875 32.738 72.7519 32.738C71.876 33.057 66.6904 31.8572 66.8299 33.7535C66.8299 34.3154 67.2623 34.7689 67.7978 34.7689Z" fill="#19807B"/>
<g style="mix-blend-mode:multiply" opacity="0.4">
<path d="M62.3496 43.4998C63.6021 42.0805 64.5337 40.3773 65.8085 38.9844C63.9563 39.6633 62.8852 41.624 62.3496 43.4998Z" fill="#19807B"/>
</g>
<g style="mix-blend-mode:multiply" opacity="0.4">
<path d="M64.6699 41.8916C65.2222 41.3883 65.7355 40.8323 66.1567 40.2031C65.4844 40.566 64.9489 41.1513 64.6699 41.8916Z" fill="#19807B"/>
</g>
<g style="mix-blend-mode:multiply" opacity="0.4">
<path d="M62.3609 55.166C62.2967 56.5004 62.3971 57.8963 62.9327 59.1254C62.9243 57.7793 62.8016 56.4419 62.3609 55.166Z" fill="#19807B"/>
</g>
<g style="mix-blend-mode:multiply" opacity="0.4">
<path d="M63.6081 56.3594C63.5049 57.088 63.583 57.8343 63.8619 58.5132C63.9177 57.7845 63.8452 57.0471 63.6081 56.3594Z" fill="#19807B"/>
</g>
<g style="mix-blend-mode:multiply" opacity="0.4">
<path d="M64.5175 56.3672C64.2693 57.4704 64.2721 58.6527 64.6905 59.712C64.7993 58.5942 64.7993 57.4617 64.5175 56.3672Z" fill="#19807B"/>
</g>
<g style="mix-blend-mode:multiply" opacity="0.4">
<path d="M68.9931 74.5022C66.9513 73.6038 64.6528 73.0859 64.0781 70.4316C63.9861 75.1958 67.1326 73.996 69.8384 75.5821C69.6459 75.1578 69.3586 74.7773 68.9931 74.5022Z" fill="#F7676C"/>
</g>
<g style="mix-blend-mode:multiply" opacity="0.4">
<path d="M70.166 74.5293C70.5844 75.5155 71.1005 76.449 71.7644 77.2772C71.5328 76.2032 71.0112 75.2053 70.166 74.5293Z" fill="#F7676C"/>
</g>
<path d="M84.7378 111.864C79.9204 112.657 82.88 54.876 82.6178 41.9034C82.5899 40.5016 83.6611 39.3516 85 39.3516C86.3362 39.3516 87.4129 40.5016 87.3822 41.9034C87.0977 54.8673 90.1159 112.397 85.2678 111.853C85.0921 111.832 84.9163 111.835 84.7406 111.864H84.7378Z" fill="#2E6891"/>
<path d="M86.0188 108.517C86.0383 107.039 83.8263 107.039 83.8458 108.517C83.8263 109.994 86.0383 109.994 86.0188 108.517Z" fill="#FACDD4"/>
<path d="M85.0035 93.9203C84.4009 93.9993 84.1415 93.0394 84.2224 93.0921C84.8138 91.1841 83.0034 58.2506 85.0035 57.9082C85.4358 57.9082 85.7845 58.274 85.7845 58.7276V93.1038C85.7845 93.5574 85.4358 93.9232 85.0035 93.9232V93.9203Z" fill="#F69093"/>
<path d="M105.396 111.766C99.6106 115.046 104.107 40.3914 102.768 39.3496H108.026C106.665 40.7718 111.215 114.754 105.399 111.766H105.396Z" fill="#2E6891"/>
<path d="M106.531 108.514C106.553 106.922 104.171 106.922 104.194 108.514C104.171 110.103 106.553 110.103 106.531 108.514Z" fill="#FACDD4"/>
<path d="M105.366 93.9203C104.763 93.9993 104.504 93.0394 104.585 93.0921C105.176 91.187 103.366 58.2477 105.366 57.9082C105.798 57.9082 106.147 58.274 106.147 58.7276V93.1038C106.147 93.5574 105.798 93.9232 105.366 93.9232V93.9203Z" fill="#F69093"/>
<path d="M109.957 59.6993C64.8465 59.0907 80.6682 68.7799 77.9122 10.7263C77.9122 9.16068 79.1229 7.89062 80.6152 7.89062H109.955C111.447 7.89062 112.658 9.16068 112.658 10.7263C111.447 12.4177 115.617 62.219 109.955 59.6993H109.957Z" fill="#2E6891"/>
<g style="mix-blend-mode:multiply" opacity="0.2">
<path d="M112.66 52.6741V24.0657C112.44 16.8522 112.269 11.2745 112.66 10.7243C112.66 10.619 112.652 10.5224 112.643 10.4229C112.579 9.78204 112.311 9.20847 111.91 8.76659C111.366 8.25154 110.59 7.98817 109.776 7.88867H107.982C104.027 15.0671 94.1352 13.1445 87.4629 15.2076C99.0837 18.5056 107.982 19.205 107.681 34.5714C108.917 41.624 105.544 50.6431 97.5216 49.1565C96.0823 48.7703 93.7224 48.1821 93.1366 50.1252C93.6136 55.0152 100.085 51.1611 102.757 53.1452C107.572 58.082 98.0126 58.3834 95.1171 59.3287C95.1339 59.4516 95.159 59.5745 95.1841 59.6945H101.112C103.764 59.6593 106.702 59.6506 109.96 59.6945C110.336 59.6945 110.696 59.6125 111.023 59.4662C111.854 58.6205 112.364 56.1243 112.66 52.6682V52.6741Z" fill="#2E6891"/>
</g>
<path d="M77.3402 52.0524C78.7237 51.0252 117.38 54.5925 115.455 49.7259C115.455 48.4412 114.462 47.3994 113.238 47.3994C111.907 48.4237 73.1644 44.8652 75.1226 49.7259C75.1226 51.0106 76.1156 52.0524 77.3402 52.0524Z" fill="#4780B2"/>
<path d="M78.1991 48.2832H77.8086V51.075H78.1991V48.2832Z" fill="#F69093"/>
<path d="M80.6464 48.2832H80.2559V51.075H80.6464V48.2832Z" fill="#F69093"/>
<path d="M83.0946 48.2832H82.7041V51.075H83.0946V48.2832Z" fill="#F69093"/>
<path d="M85.5419 48.2832H85.1514V51.075H85.5419V48.2832Z" fill="#F69093"/>
<path d="M87.9872 48.2832H87.5967V51.075H87.9872V48.2832Z" fill="#F69093"/>
<path d="M90.4364 48.2832H90.0459V51.075H90.4364V48.2832Z" fill="#F69093"/>
<path d="M92.8827 48.2832H92.4922V51.075H92.8827V48.2832Z" fill="#F69093"/>
<path d="M95.329 48.2832H94.9385V51.075H95.329V48.2832Z" fill="#F69093"/>
<path d="M97.7753 48.2832H97.3848V51.075H97.7753V48.2832Z" fill="#F69093"/>
<path d="M100.225 48.2832H99.834V51.075H100.225V48.2832Z" fill="#F69093"/>
<path d="M102.671 48.2832H102.28V51.075H102.671V48.2832Z" fill="#F69093"/>
<path d="M105.117 48.2832H104.727V51.075H105.117V48.2832Z" fill="#F69093"/>
<path d="M107.564 48.2832H107.174V51.075H107.564V48.2832Z" fill="#F69093"/>
<path d="M110.014 48.2832H109.623V51.075H110.014V48.2832Z" fill="#F69093"/>
<path d="M112.459 48.2832H112.068V51.075H112.459V48.2832Z" fill="#F69093"/>
<path d="M77.3402 17.1149C78.7237 16.0877 117.38 19.655 115.455 14.7884C115.455 13.5037 114.462 12.4619 113.238 12.4619C111.907 13.4862 73.1644 9.92767 75.1226 14.7884C75.1226 16.0731 76.1156 17.1149 77.3402 17.1149Z" fill="#4780B2"/>
<path d="M78.1991 13.3418H77.8086V16.1336H78.1991V13.3418Z" fill="#F69093"/>
<path d="M80.6464 13.3418H80.2559V16.1336H80.6464V13.3418Z" fill="#F69093"/>
<path d="M83.0946 13.3418H82.7041V16.1336H83.0946V13.3418Z" fill="#F69093"/>
<path d="M85.5419 13.3418H85.1514V16.1336H85.5419V13.3418Z" fill="#F69093"/>
<path d="M87.9872 13.3418H87.5967V16.1336H87.9872V13.3418Z" fill="#F69093"/>
<path d="M90.4364 13.3418H90.0459V16.1336H90.4364V13.3418Z" fill="#F69093"/>
<path d="M92.8827 13.3418H92.4922V16.1336H92.8827V13.3418Z" fill="#F69093"/>
<path d="M95.329 13.3418H94.9385V16.1336H95.329V13.3418Z" fill="#F69093"/>
<path d="M97.7753 13.3418H97.3848V16.1336H97.7753V13.3418Z" fill="#F69093"/>
<path d="M100.225 13.3418H99.834V16.1336H100.225V13.3418Z" fill="#F69093"/>
<path d="M102.671 13.3418H102.28V16.1336H102.671V13.3418Z" fill="#F69093"/>
<path d="M105.117 13.3418H104.727V16.1336H105.117V13.3418Z" fill="#F69093"/>
<path d="M107.564 13.3418H107.174V16.1336H107.564V13.3418Z" fill="#F69093"/>
<path d="M110.014 13.3418H109.623V16.1336H110.014V13.3418Z" fill="#F69093"/>
<path d="M112.459 13.3418H112.068V16.1336H112.459V13.3418Z" fill="#F69093"/>
<g style="mix-blend-mode:multiply" opacity="0.4">
<path d="M95.5834 30.4393C95.5387 20.1033 80.5622 20.1091 80.5176 30.4393H95.5834Z" fill="#2E6891"/>
</g>
<path d="M95.0848 30.4435C95.0429 20.7893 81.0566 20.7952 81.0176 30.4435H95.0848Z" fill="white"/>
<path d="M88.1572 23.3887H87.9424V24.4773H88.1572V23.3887Z" fill="#383838"/>
<path d="M87.3137 23.4366L87.1006 23.4648L87.2306 24.5449L87.4437 24.5166L87.3137 23.4366Z" fill="#383838"/>
<path d="M86.4834 23.5846L86.2754 23.6406L86.5334 24.695L86.7415 24.639L86.4834 23.5846Z" fill="#383838"/>
<path d="M85.6733 23.8428L85.4736 23.9258L85.8558 24.9379L86.0555 24.8549L85.6733 23.8428Z" fill="#383838"/>
<path d="M84.907 24.2176L84.7188 24.3262L85.2185 25.2802L85.4067 25.1717L84.907 24.2176Z" fill="#383838"/>
<path d="M84.1874 24.6703L84.0137 24.8027L84.6236 25.6834L84.7974 25.551L84.1874 24.6703Z" fill="#383838"/>
<path d="M83.5296 25.2305L83.373 25.3848L84.0834 26.1783L84.24 26.0241L83.5296 25.2305Z" fill="#383838"/>
<path d="M82.9406 25.8616L82.8037 26.0352L83.6031 26.7292L83.7401 26.5556L82.9406 25.8616Z" fill="#383838"/>
<path d="M82.4354 26.5734L82.3203 26.7637L83.1964 27.347L83.3115 27.1567L82.4354 26.5734Z" fill="#383838"/>
<path d="M82.0202 27.3449L81.9287 27.5488L82.8676 28.0123L82.9591 27.8085L82.0202 27.3449Z" fill="#383838"/>
<path d="M81.6845 28.149L81.6182 28.3633L82.6051 28.6997L82.6714 28.4854L81.6845 28.149Z" fill="#383838"/>
<path d="M81.469 29.0111L81.4287 29.2324L82.448 29.4364L82.4883 29.2151L81.469 29.0111Z" fill="#383838"/>
<path d="M81.3426 29.8806L81.3291 30.1055L82.3647 30.1738L82.3782 29.9489L81.3426 29.8806Z" fill="#383838"/>
<path d="M94.7505 29.8945L93.7148 29.9629L93.7283 30.1878L94.764 30.1194L94.7505 29.8945Z" fill="#383838"/>
<path d="M94.6345 29.0128L93.6152 29.2168L93.6555 29.4381L94.6748 29.2342L94.6345 29.0128Z" fill="#383838"/>
<path d="M94.4097 28.1656L93.4229 28.502L93.4892 28.7163L94.4761 28.3799L94.4097 28.1656Z" fill="#383838"/>
<path d="M94.0893 27.349L93.1504 27.8125L93.2418 28.0164L94.1808 27.5529L94.0893 27.349Z" fill="#383838"/>
<path d="M93.6681 26.5612L92.792 27.1445L92.9071 27.3348L93.7832 26.7515L93.6681 26.5612Z" fill="#383838"/>
<path d="M93.1638 25.8627L92.3643 26.5566L92.5012 26.7303L93.3007 26.0364L93.1638 25.8627Z" fill="#383838"/>
<path d="M92.5726 25.2162L91.8623 26.0098L92.0189 26.164L92.7292 25.3705L92.5726 25.2162Z" fill="#383838"/>
<path d="M91.9196 24.6761L91.3096 25.5566L91.4833 25.6891L92.0934 24.8085L91.9196 24.6761Z" fill="#383838"/>
<path d="M91.1921 24.2022L90.6924 25.1562L90.8806 25.2648L91.3804 24.3107L91.1921 24.2022Z" fill="#383838"/>
<path d="M90.432 23.8473L90.0498 24.8594L90.2495 24.9424L90.6317 23.9303L90.432 23.8473Z" fill="#383838"/>
<path d="M89.6184 23.5823L89.3604 24.6367L89.5684 24.6928L89.8264 23.6383L89.6184 23.5823Z" fill="#383838"/>
<path d="M88.7834 23.4297L88.6533 24.5098L88.8664 24.538L88.9965 23.458L88.7834 23.4297Z" fill="#383838"/>
<path d="M88.3199 28.8987C88.4872 28.7905 90.9782 26.0806 91.1372 26.1538C90.6462 26.8591 88.3366 29.9464 87.5862 30.0488C87.4802 29.9435 87.8345 29.3875 88.3199 28.8987Z" fill="#2E6891"/>
<path d="M84.1244 39.6443C84.1411 38.5118 82.4452 38.5118 82.4591 39.6443C82.4424 40.7768 84.1384 40.7768 84.1244 39.6443Z" fill="white"/>
<path d="M87.2221 39.6443C87.2388 38.5118 85.5428 38.5118 85.5568 39.6443C85.54 40.7768 87.236 40.7768 87.2221 39.6443Z" fill="white"/>
<path d="M90.3246 39.6443C90.3413 38.5118 88.6454 38.5118 88.6593 39.6443C88.6426 40.7768 90.3385 40.7768 90.3246 39.6443Z" fill="white"/>
<path d="M93.4262 39.6443C93.4429 38.5118 91.7469 38.5118 91.7609 39.6443C91.7441 40.7768 93.4401 40.7768 93.4262 39.6443Z" fill="white"/>
<path d="M84.1244 42.3435C84.1411 41.211 82.4452 41.211 82.4591 42.3435C82.4424 43.476 84.1384 43.476 84.1244 42.3435Z" fill="white"/>
<path d="M87.2221 42.3435C87.2388 41.211 85.5428 41.211 85.5568 42.3435C85.54 43.476 87.236 43.476 87.2221 42.3435Z" fill="white"/>
<path d="M84.1244 45.0388C84.1411 43.9063 82.4452 43.9063 82.4591 45.0388C82.4424 46.1713 84.1384 46.1713 84.1244 45.0388Z" fill="white"/>
<path d="M87.2221 45.0388C87.2388 43.9063 85.5428 43.9063 85.5568 45.0388C85.54 46.1713 87.236 46.1713 87.2221 45.0388Z" fill="white"/>
<path d="M92.942 43.6648C92.9838 40.7472 88.6128 40.7472 88.6546 43.6648C88.6128 46.5824 92.9838 46.5824 92.942 43.6648Z" fill="#F7676C"/>
<path d="M111.427 34.9199H79.2061V35.5315H111.427V34.9199Z" fill="#F69093"/>
<g style="mix-blend-mode:multiply" opacity="0.2">
<path d="M92.9131 22.3613C94.5031 24.7054 96.5561 26.8124 97.2646 29.6714C97.379 29.9582 97.4961 30.7659 97.4906 30.0109C97.7639 26.3763 95.5965 24.2108 92.9131 22.3613Z" fill="#2E6891"/>
<path d="M97.9238 25.9102C98.1888 27.4143 98.6268 28.9038 99.2237 30.2383C99.1289 28.7078 98.6519 27.23 97.9238 25.9102Z" fill="#2E6891"/>
<path d="M95.8574 21.6777C96.0248 22.2572 96.3121 22.7898 96.6943 23.2404C96.5213 22.6639 96.2396 22.1284 95.8574 21.6777Z" fill="#2E6891"/>
<path d="M101.475 22.7539C102.367 25.2267 103.109 27.7551 104.055 30.2103C104.208 27.4859 103.31 24.7117 101.475 22.7539Z" fill="#2E6891"/>
<path d="M81.627 10.004C85.097 10.7239 88.6508 10.7942 92.1404 10.1972C88.6759 9.4451 85.1166 9.47729 81.627 10.004Z" fill="#2E6891"/>
<path d="M92.8213 9.54232C94.3276 9.7735 95.8562 9.79691 97.3625 9.5628C95.8646 9.24675 94.3192 9.2292 92.8213 9.54232Z" fill="#2E6891"/>
<path d="M94.7354 10.7017C95.9488 10.9475 97.2068 11.0645 98.5011 10.886C97.271 10.5788 95.985 10.4412 94.7354 10.7017Z" fill="#2E6891"/>
<path d="M80.125 54.7299C84.259 55.5376 88.6691 55.4089 92.7277 54.6539C88.591 53.5653 84.2701 53.8491 80.125 54.7299Z" fill="#2E6891"/>
<path d="M84.6787 56.5243C86.4054 57.1272 88.2604 57.171 90.0428 56.8316C88.2938 56.3195 86.4723 56.3019 84.6787 56.5243Z" fill="#2E6891"/>
<path d="M97.2033 56.1326C96.0652 55.8692 94.8267 55.8546 93.75 56.3696C94.2158 56.4779 97.8672 56.4633 97.2033 56.1326Z" fill="#2E6891"/>
<path d="M95.9287 45.4879C97.7809 45.962 99.753 45.921 101.538 45.564C99.6945 45.1192 97.7837 45.1455 95.9287 45.4879Z" fill="#2E6891"/>
<path d="M98.8604 44.1521C100.121 44.3013 101.407 44.2194 102.623 43.8243C101.36 43.6926 100.082 43.7746 98.8604 44.1521Z" fill="#2E6891"/>
<path d="M100.239 42.2982C101.868 42.3597 103.506 42.3275 105.124 42.0758C103.497 41.8154 101.835 41.8358 100.239 42.2982Z" fill="#2E6891"/>
</g>
</svg>
