<svg width="1920" height="90" viewBox="0 0 1920 90" fill="none" xmlns="http://www.w3.org/2000/svg">
<path d="M0 90V18.53L4.8 17.03L9.6 15.55L14.4 14.12L19.2 12.73L24 11.38L28.8 10.09L33.6 8.85999L38.4 7.70001L43.2 6.60001L48 5.57001L52.8 4.62L57.6 3.75L62.4 2.97L67.2 2.26999L72 1.66L76.8 1.14001L81.6 0.720001L86.4 0.399994L91.2 0.170013L96 0.0299988L100.8 0L105.6 0.0700073L110.4 0.230011L115.2 0.48999L120 0.850006L124.8 1.31L129.6 1.85001L134.4 2.48999L139.2 3.22L144 4.03L148.8 4.92999L153.6 5.91L158.4 6.95999L163.2 8.07999L168 9.26999L172.8 10.52L177.6 11.83L182.4 13.19L187.2 14.59L192 16.04L196.8 17.52L201.6 19.04L206.4 20.57L211.2 22.13L216 23.69L220.8 25.26L225.6 26.83L230.4 28.39L235.2 29.94L240 31.47L244.8 32.97L249.6 34.45L254.4 35.88L259.2 37.27L264 38.62L268.8 39.91L273.6 41.14L278.4 42.3L283.2 43.4L288 44.43L292.8 45.38L297.6 46.25L302.4 47.03L307.2 47.73L312 48.34L316.8 48.86L321.6 49.28L326.4 49.6L331.2 49.83L336 49.97L340.8 50L345.6 49.93L350.4 49.77L355.2 49.51L360 49.15L364.8 48.69L369.6 48.15L374.4 47.51L379.2 46.78L384 45.97L388.8 45.07L393.6 44.09L398.4 43.04L403.2 41.92L408 40.73L412.8 39.48L417.6 38.17L422.4 36.81L427.2 35.41L432 33.96L436.8 32.48L441.6 30.96L446.4 29.43L451.2 27.87L456 26.31L460.8 24.74L465.6 23.17L470.4 21.61L475.2 20.06L480 18.53L484.8 17.03L489.6 15.55L494.4 14.12L499.2 12.73L504 11.38L508.8 10.09L513.6 8.85999L518.4 7.70001L523.2 6.60001L528 5.57001L532.8 4.62L537.6 3.75L542.4 2.97L547.2 2.26999L552 1.66L556.8 1.14001L561.6 0.720001L566.4 0.399994L571.2 0.170013L576 0.0299988L580.8 0L585.6 0.0700073L590.4 0.230011L595.2 0.48999L600 0.850006L604.8 1.31L609.6 1.85001L614.4 2.48999L619.2 3.22L624 4.03L628.8 4.92999L633.6 5.91L638.4 6.95999L643.2 8.07999L648 9.26999L652.8 10.52L657.6 11.83L662.4 13.19L667.2 14.59L672 16.04L676.8 17.52L681.6 19.04L686.4 20.57L691.2 22.13L696 23.69L700.8 25.26L705.6 26.83L710.4 28.39L715.2 29.94L720 31.47L724.8 32.97L729.6 34.45L734.4 35.88L739.2 37.27L744 38.62L748.8 39.91L753.6 41.14L758.4 42.3L763.2 43.4L768 44.43L772.8 45.38L777.6 46.25L782.4 47.03L787.2 47.73L792 48.34L796.8 48.86L801.6 49.28L806.4 49.6L811.2 49.83L816 49.97L820.8 50L825.6 49.93L830.4 49.77L835.2 49.51L840 49.15L844.8 48.69L849.6 48.15L854.4 47.51L859.2 46.78L864 45.97L868.8 45.07L873.6 44.09L878.4 43.04L883.2 41.92L888 40.73L892.8 39.48L897.6 38.17L902.4 36.81L907.2 35.41L912 33.96L916.8 32.48L921.6 30.96L926.4 29.43L931.2 27.87L936 26.31L940.8 24.74L945.6 23.17L950.4 21.61L955.2 20.06L960 18.53L964.8 17.03L969.6 15.55L974.4 14.12L979.2 12.73L984 11.38L988.8 10.09L993.6 8.85999L998.4 7.70001L1003.2 6.60001L1008 5.57001L1012.8 4.62L1017.6 3.75L1022.4 2.97L1027.2 2.26999L1032 1.66L1036.8 1.14001L1041.6 0.720001L1046.4 0.399994L1051.2 0.170013L1056 0.0299988L1060.8 0L1065.6 0.0700073L1070.4 0.230011L1075.2 0.48999L1080 0.850006L1084.8 1.31L1089.6 1.85001L1094.4 2.48999L1099.2 3.22L1104 4.03L1108.8 4.92999L1113.6 5.91L1118.4 6.95999L1123.2 8.07999L1128 9.26999L1132.8 10.52L1137.6 11.83L1142.4 13.19L1147.2 14.59L1152 16.04L1156.8 17.52L1161.6 19.04L1166.4 20.57L1171.2 22.13L1176 23.69L1180.8 25.26L1185.6 26.83L1190.4 28.39L1195.2 29.94L1200 31.47L1204.8 32.97L1209.6 34.45L1214.4 35.88L1219.2 37.27L1224 38.62L1228.8 39.91L1233.6 41.14L1238.4 42.3L1243.2 43.4L1248 44.43L1252.8 45.38L1257.6 46.25L1262.4 47.03L1267.2 47.73L1272 48.34L1276.8 48.86L1281.6 49.28L1286.4 49.6L1291.2 49.83L1296 49.97L1300.8 50L1305.6 49.93L1310.4 49.77L1315.2 49.51L1320 49.15L1324.8 48.69L1329.6 48.15L1334.4 47.51L1339.2 46.78L1344 45.97L1348.8 45.07L1353.6 44.09L1358.4 43.04L1363.2 41.92L1368 40.73L1372.8 39.48L1377.6 38.17L1382.4 36.81L1387.2 35.41L1392 33.96L1396.8 32.48L1401.6 30.96L1406.4 29.43L1411.2 27.87L1416 26.31L1420.8 24.74L1425.6 23.17L1430.4 21.61L1435.2 20.06L1440 18.53L1444.8 17.03L1449.6 15.55L1454.4 14.12L1459.2 12.73L1464 11.38L1468.8 10.09L1473.6 8.85999L1478.4 7.70001L1483.2 6.60001L1488 5.57001L1492.8 4.62L1497.6 3.75L1502.4 2.97L1507.2 2.26999L1512 1.66L1516.8 1.14001L1521.6 0.720001L1526.4 0.399994L1531.2 0.170013L1536 0.0299988L1540.8 0L1545.6 0.0700073L1550.4 0.230011L1555.2 0.48999L1560 0.850006L1564.8 1.31L1569.6 1.85001L1574.4 2.48999L1579.2 3.22L1584 4.03L1588.8 4.92999L1593.6 5.91L1598.4 6.95999L1603.2 8.07999L1608 9.26999L1612.8 10.52L1617.6 11.83L1622.4 13.19L1627.2 14.59L1632 16.04L1636.8 17.52L1641.6 19.04L1646.4 20.57L1651.2 22.13L1656 23.69L1660.8 25.26L1665.6 26.83L1670.4 28.39L1675.2 29.94L1680 31.47L1684.8 32.97L1689.6 34.45L1694.4 35.88L1699.2 37.27L1704 38.62L1708.8 39.91L1713.6 41.14L1718.4 42.3L1723.2 43.4L1728 44.43L1732.8 45.38L1737.6 46.25L1742.4 47.03L1747.2 47.73L1752 48.34L1756.8 48.86L1761.6 49.28L1766.4 49.6L1771.2 49.83L1776 49.97L1780.8 50L1785.6 49.93L1790.4 49.77L1795.2 49.51L1800 49.15L1804.8 48.69L1809.6 48.15L1814.4 47.51L1819.2 46.78L1824 45.97L1828.8 45.07L1833.6 44.09L1838.4 43.04L1843.2 41.92L1848 40.73L1852.8 39.48L1857.6 38.17L1862.4 36.81L1867.2 35.41L1872 33.96L1876.8 32.48L1881.6 30.96L1886.4 29.43L1891.2 27.87L1896 26.31L1900.8 24.74L1905.6 23.17L1910.4 21.61L1915.2 20.06L1920 18.53V90H0Z" fill="white"/>
</svg>
