<?xml version="1.0"?>
<svg xmlns="http://www.w3.org/2000/svg" width="512" height="512" viewBox="0 0 512 512"><g><circle cx="128" cy="104" r="8"/><path d="M149.335,80.15a32,32,0,0,0-42.67,0,8,8,0,1,0,10.67,11.922,16,16,0,0,1,21.33,0,8,8,0,1,0,10.67-11.922Z"/><path d="M101.335,74.183a40,40,0,0,1,53.33,0,8,8,0,1,0,10.67-11.922,56,56,0,0,0-74.67,0,8,8,0,1,0,10.67,11.922Z"/><path d="M496,344h-8V80a8,8,0,0,0-8-8H199.54A71.984,71.984,0,0,0,56.46,72H32a8,8,0,0,0-8,8V344H16a8,8,0,0,0-8,8v24a8,8,0,0,0,8,8H496a8,8,0,0,0,8-8V352A8,8,0,0,0,496,344ZM128,24A56,56,0,1,1,72,80,56.062,56.062,0,0,1,128,24ZM40,88H56.46a71.984,71.984,0,0,0,143.08,0H472V344H40ZM488,368H24v-8H488Z"/><path d="M456,232H376a8,8,0,0,0-8,8v88a8,8,0,0,0,8,8h80a8,8,0,0,0,8-8V240A8,8,0,0,0,456,232Zm-56,88a16,16,0,0,1,32,0Zm8-48a8,8,0,1,1,8,8A8.011,8.011,0,0,1,408,272Zm40,48a32.041,32.041,0,0,0-17.8-28.67,24,24,0,1,0-28.4,0A32.041,32.041,0,0,0,384,320V248h64Z"/><path d="M368,96H216a8,8,0,0,0-8,8V216a8,8,0,0,0,8,8h92.69l37.65,37.66A8,8,0,0,0,360,256V224h8a8,8,0,0,0,8-8V104A8,8,0,0,0,368,96Zm-8,112h-8a8,8,0,0,0-8,8v20.69l-26.34-26.35A8.008,8.008,0,0,0,312,208H224V112H360Z"/><path d="M240,184h4.687l9.656,9.657a8,8,0,0,0,12.906-2.274L293.1,136H344a8,8,0,0,0,0-16H288a8,8,0,0,0-7.249,4.617l-23.171,49.65-3.923-3.924A8,8,0,0,0,248,168h-8a8,8,0,0,0,0,16Z"/><path d="M341.657,146.343a8,8,0,0,0-11.314,0L320,156.686l-10.343-10.343a8,8,0,0,0-11.314,11.314L308.686,168l-10.343,10.343a8,8,0,0,0,11.314,11.314L320,179.314l10.343,10.343a8,8,0,1,0,11.314-11.314L331.314,168l10.343-10.343A8,8,0,0,0,341.657,146.343Z"/><path d="M184,160H64a8,8,0,0,0,0,16H184a8,8,0,0,0,0-16Z"/><path d="M184,184H64a8,8,0,0,0,0,16H184a8,8,0,0,0,0-16Z"/><path d="M64,224h56a8,8,0,0,0,0-16H64a8,8,0,0,0,0,16Z"/><path d="M152,224a8,8,0,0,0,0-16h-8a8,8,0,0,0,0,16Z"/><path d="M336,272H216a8,8,0,0,0,0,16H336a8,8,0,0,0,0-16Z"/><path d="M336,296H216a8,8,0,0,0,0,16H336a8,8,0,0,0,0-16Z"/><path d="M272,320H216a8,8,0,0,0,0,16h56a8,8,0,0,0,0-16Z"/><path d="M304,320h-8a8,8,0,0,0,0,16h8a8,8,0,0,0,0-16Z"/><path d="M456,488H408v-4a28.028,28.028,0,0,0-26.9-27.97,32,32,0,1,0-42.2,0A28.028,28.028,0,0,0,312,484v4h-8v-4a28.028,28.028,0,0,0-26.9-27.97,32,32,0,1,0-42.2,0A28.028,28.028,0,0,0,208,484v4h-8v-4a28.028,28.028,0,0,0-26.9-27.97,32,32,0,1,0-42.2,0A28.028,28.028,0,0,0,104,484v4H56a8,8,0,0,0,0,16H456a8,8,0,0,0,0-16ZM152,416a16,16,0,1,1-16,16A16.021,16.021,0,0,1,152,416Zm32,72H120v-4a12.01,12.01,0,0,1,12-12h40a12.01,12.01,0,0,1,12,12Zm72-72a16,16,0,1,1-16,16A16.021,16.021,0,0,1,256,416Zm32,72H224v-4a12.01,12.01,0,0,1,12-12h40a12.01,12.01,0,0,1,12,12Zm72-72a16,16,0,1,1-16,16A16.021,16.021,0,0,1,360,416Zm32,72H328v-4a12.01,12.01,0,0,1,12-12h40a12.01,12.01,0,0,1,12,12Z"/><path d="M184,240H64a8,8,0,0,0-8,8v80a8,8,0,0,0,8,8H184a8,8,0,0,0,8-8V248A8,8,0,0,0,184,240Zm-8,80H72V256H176Z"/></g></svg>
