<?xml version="1.0"?>
<svg xmlns="http://www.w3.org/2000/svg" data-name="Layer 1" id="Layer_1" viewBox="0 0 64 64"><path d="M62,58H56.3A7,7,0,0,0,50,54H48V42.28L56.59,28a4.59,4.59,0,0,0-7.42-5.36L42.8,30a14.22,14.22,0,0,1-21.6,0L14.83,22.6A4.59,4.59,0,0,0,7.41,28L16,42.28V54H14a7,7,0,0,0-6.3,4H2v2H26v2a1,1,0,0,0,1,1H37a1,1,0,0,0,1-1V60H62ZM31.82,37h.36l1.75,8.77L32,48.33l-1.93-2.57ZM9.12,26.93a2.6,2.6,0,0,1,4.2-3l6.37,7.43a16.14,16.14,0,0,0,10.12,5.49L28,45.8a1,1,0,0,0,.18.8l3,4a1,1,0,0,0,1.6,0l3-4a1,1,0,0,0,.18-.8l-1.79-9a16.14,16.14,0,0,0,10.12-5.49l6.37-7.43a2.59,2.59,0,0,1,2-.91,2.6,2.6,0,0,1,2.23,3.93L46.14,41.49A1,1,0,0,0,46,42V54H33.72a1,1,0,0,0-.92.61,13.23,13.23,0,0,1-.8,1.53,13.23,13.23,0,0,1-.8-1.53,1,1,0,0,0-.92-.61H18V42a1,1,0,0,0-.14-.51ZM37,58a1,1,0,0,0-1,1v2H28V59a1,1,0,0,0-1-1H10a5,5,0,0,1,4-2H29.64a22.17,22.17,0,0,0,1.54,2.57,1,1,0,0,0,1.64,0A22.17,22.17,0,0,0,34.36,56H50a5,5,0,0,1,4,2Z"/><path d="M10.66,41.25c-.48-.42-.94-.87-1.38-1.33L7.83,41.31c.49.5,1,1,1.51,1.44Z"/><path d="M3.6,29.81A22.67,22.67,0,0,1,2.94,26l-2,.16a24.64,24.64,0,0,0,.72,4.19Z"/><path d="M3.6,18.21l-1.94-.5A25.53,25.53,0,0,0,1,21.89l2,.17A22.79,22.79,0,0,1,3.6,18.21Z"/><path d="M5.16,38l1.66-1.13a22.25,22.25,0,0,1-1.91-3.4l-1.83.83A26.35,26.35,0,0,0,5.16,38Z"/><path d="M5.15,10a25,25,0,0,0-2.08,3.71l1.83.82a22.2,22.2,0,0,1,1.9-3.4Z"/><path d="M10.66,6.75,9.34,5.25c-.52.46-1,.94-1.51,1.44L9.28,8.08C9.72,7.62,10.18,7.17,10.66,6.75Z"/><path d="M54.66,5.25l-1.32,1.5c.48.42.94.87,1.38,1.33l1.45-1.39C55.68,6.19,55.18,5.71,54.66,5.25Z"/><path d="M60.4,29.79l1.94.5a25.53,25.53,0,0,0,.71-4.18l-2-.17A22.79,22.79,0,0,1,60.4,29.79Z"/><path d="M60.92,13.68A26.35,26.35,0,0,0,58.84,10l-1.66,1.13a22.25,22.25,0,0,1,1.91,3.4Z"/><path d="M57.2,36.87,58.85,38a25,25,0,0,0,2.08-3.71l-1.83-.82A22.2,22.2,0,0,1,57.2,36.87Z"/><path d="M61.06,22l2-.16a24.64,24.64,0,0,0-.72-4.19l-1.93.51A22.67,22.67,0,0,1,61.06,22Z"/><path d="M54.66,42.75c.52-.46,1-.94,1.51-1.44l-1.45-1.39c-.44.46-.9.91-1.38,1.33Z"/><path d="M32,34a11,11,0,0,0,9.52-16.5,1,1,0,0,0-.87-.5H35a1,1,0,0,0-1,1v5a2,2,0,0,1-4,0V18a1,1,0,0,0-1-1H23.35a1,1,0,0,0-.87.5A11,11,0,0,0,32,34ZM24,19H28v4a4,4,0,0,0,8,0V19h4A9,9,0,1,1,24,19Z"/><path d="M32,16a4,4,0,0,0,4-4V8h4.65a1,1,0,0,0,.87-.5,1,1,0,0,0,0-1,11,11,0,0,0-19,0,1,1,0,0,0,0,1,1,1,0,0,0,.87.5H28v4A4,4,0,0,0,32,16ZM25.3,6A9,9,0,0,1,38.7,6H35a1,1,0,0,0-1,1v5a2,2,0,0,1-4,0V7a1,1,0,0,0-1-1Z"/></svg>
