<svg width="100%" height="auto" viewBox="0 0 1943 1020" fill="none" xmlns="http://www.w3.org/2000/svg" xlinkHref="http://www.w3.org/1999/xlink">
<g clipPath="url(#clip0_2576_1198)">
<path d="M475.039 238.67C502.191 236.724 547.26 232.99 602.914 225.788C667.327 217.448 732.21 213.256 796.893 207.298" stroke="black" strokeWidth="5" strokeMiterlimit="10" strokeDasharray="12 12"/>
<path d="M461.663 253.304C468.984 253.304 474.919 247.328 474.919 239.957C474.919 232.586 468.984 226.61 461.663 226.61C454.341 226.61 448.406 232.586 448.406 239.957C448.406 247.328 454.341 253.304 461.663 253.304Z" fill="white" stroke="black" strokeWidth="2.89" strokeMiterlimit="10" strokeDasharray="6.93 6.93"/>
<path d="M761.5 245.221C781.106 245.221 797 230.125 797 211.503C797 192.882 781.106 177.786 761.5 177.786C741.894 177.786 726 192.882 726 211.503C726 230.125 741.894 245.221 761.5 245.221Z" fill="black"/>
<path d="M765.137 204.467V221.922H761.447V207.97H761.345L757.348 210.476V207.203L761.669 204.467H765.137Z" fill="white"/>
</g>
<g clipPath="url(#clip1_2576_1198)">
<path d="M792.797 208.413C806.382 207.968 825.745 207.959 848.83 210.139C895.791 214.571 955.483 220.764 1006.3 260.931C1022.67 273.869 1049.6 295.741 1059.8 332.562C1070.86 372.515 1064.45 433.041 1028.36 458.544C999.97 478.601 958.306 469.951 914.487 461.792C900.626 459.211 889.114 456.515 880.977 454.246" stroke="black" strokeWidth="5" strokeMiterlimit="10" strokeDasharray="12 12"/>
<path d="M880.691 489.608C899.119 489.608 914.058 474.676 914.058 456.257C914.058 437.838 899.119 422.906 880.691 422.906C862.263 422.906 847.324 437.838 847.324 456.257C847.324 474.676 862.263 489.608 880.691 489.608Z" fill="black"/>
<path d="M874.856 465V462.341L881.069 456.588C881.598 456.077 882.041 455.616 882.399 455.207C882.762 454.798 883.038 454.398 883.225 454.006C883.413 453.608 883.507 453.179 883.507 452.719C883.507 452.207 883.39 451.767 883.157 451.398C882.924 451.023 882.606 450.736 882.203 450.537C881.799 450.332 881.342 450.23 880.831 450.23C880.297 450.23 879.831 450.338 879.433 450.554C879.035 450.77 878.728 451.08 878.512 451.483C878.297 451.886 878.189 452.366 878.189 452.923H874.686C874.686 451.781 874.944 450.79 875.461 449.949C875.978 449.108 876.703 448.457 877.635 447.997C878.566 447.537 879.64 447.307 880.856 447.307C882.106 447.307 883.194 447.528 884.12 447.972C885.052 448.409 885.777 449.017 886.294 449.795C886.811 450.574 887.069 451.466 887.069 452.472C887.069 453.131 886.939 453.781 886.677 454.423C886.422 455.065 885.964 455.778 885.305 456.562C884.646 457.341 883.717 458.276 882.518 459.366L879.97 461.864V461.983H887.299V465H874.856Z" fill="white"/>
</g>
<g clipPath="url(#clip2_2576_1198)">
<path d="M845.092 454.663C822.168 451.597 788.097 450.417 752.157 464.195C693.042 486.858 681.647 534.627 626.339 550.417C581.372 563.248 539.821 556.467 512.325 549.045C414.827 476.778 300.156 473.553 240.41 527.804C234.226 533.422 227.419 540.369 220.869 549.336C213.604 559.292 208.866 568.691 205.758 575.955" stroke="black" strokeWidth="5" strokeMiterlimit="10" strokeDasharray="12 12"/>
<path d="M207.438 611C224.643 611 238.591 597.055 238.591 579.852C238.591 562.65 224.643 548.705 207.438 548.705C190.233 548.705 176.285 562.65 176.285 579.852C176.285 597.055 190.233 611 207.438 611Z" fill="black"/>
<path d="M206.956 589.239C205.684 589.239 204.55 589.02 203.556 588.582C202.567 588.139 201.786 587.531 201.212 586.759C200.644 585.98 200.351 585.082 200.334 584.065H204.05C204.073 584.491 204.212 584.866 204.468 585.19C204.729 585.509 205.076 585.756 205.507 585.932C205.939 586.108 206.425 586.196 206.965 586.196C207.527 586.196 208.025 586.097 208.456 585.898C208.888 585.699 209.226 585.423 209.471 585.071C209.715 584.719 209.837 584.312 209.837 583.852C209.837 583.386 209.706 582.974 209.445 582.616C209.189 582.253 208.82 581.969 208.337 581.764C207.86 581.56 207.292 581.457 206.632 581.457H205.005V578.747H206.632C207.189 578.747 207.681 578.651 208.107 578.457C208.539 578.264 208.874 577.997 209.113 577.656C209.351 577.31 209.471 576.906 209.471 576.446C209.471 576.009 209.365 575.625 209.155 575.295C208.951 574.96 208.661 574.699 208.286 574.511C207.917 574.324 207.485 574.23 206.99 574.23C206.49 574.23 206.033 574.321 205.618 574.503C205.203 574.679 204.871 574.932 204.621 575.261C204.371 575.591 204.238 575.977 204.221 576.42H200.684C200.701 575.415 200.988 574.528 201.544 573.761C202.101 572.994 202.851 572.395 203.794 571.963C204.743 571.526 205.814 571.307 207.007 571.307C208.212 571.307 209.266 571.526 210.169 571.963C211.073 572.401 211.775 572.991 212.275 573.736C212.78 574.474 213.03 575.304 213.025 576.224C213.03 577.202 212.726 578.017 212.113 578.67C211.505 579.324 210.712 579.739 209.735 579.915V580.051C211.019 580.216 211.996 580.662 212.667 581.389C213.343 582.111 213.678 583.014 213.672 584.099C213.678 585.094 213.391 585.977 212.811 586.75C212.238 587.523 211.445 588.131 210.434 588.574C209.422 589.017 208.263 589.239 206.956 589.239Z" fill="white"/>
</g>
<g clipPath="url(#clip3_2576_1198)">
<path d="M202.663 620.701C200.988 628.081 198.986 639.255 198.749 652.905C197.657 717.121 236.969 764.513 256.029 787.553C288.306 826.573 327.054 849.595 343.001 858.904C353.296 864.91 362.198 869.405 368.561 872.444" stroke="black" strokeWidth="5" strokeMiterlimit="10" strokeDasharray="12 12"/>
<path d="M344.885 897.223C363.726 897.223 379 881.953 379 863.117C379 844.281 363.726 829.011 344.885 829.011C326.043 829.011 310.77 844.281 310.77 863.117C310.77 881.953 326.043 897.223 344.885 897.223Z" fill="black"/>
<path d="M337.518 868.932V866.026L344.805 854.545H347.31V858.568H345.827L341.234 865.838V865.974H351.589V868.932H337.518ZM345.896 872V868.045L345.964 866.759V854.545H349.424V872H345.896Z" fill="white"/>
</g>
<path d="M378.484 883.476C384.142 885.935 392.497 889.41 402.755 893.13C417.282 898.399 464.147 914.494 533.824 918.818C560.164 920.455 599.782 922.669 650.218 913.978C707.803 904.053 781.191 891.581 792.767 848.484C801.105 817.413 777.445 772.391 749.709 769.59C720.916 766.685 688.238 809.335 691.8 845.508C695.485 882.916 738.333 917.645 794.251 913.987C808.639 913.61 836.454 910.88 865.526 893.891C908.742 868.641 925.565 828.949 930.367 816.24" stroke="black" strokeWidth="5" strokeMiterlimit="10" strokeDasharray="12 12"/>
<path d="M1102.75 542.44C1102.98 513.93 1107.91 470.32 1137.9 438.41C1187.74 385.37 1269.1 405.82 1281.9 366.41C1291.61 336.53 1249.6 320.38 1236.55 256.43C1235.87 253.11 1235.28 249.78 1235.28 249.78C1232.37 232.99 1232.06 218.71 1232.43 208.27" stroke="black" strokeWidth="5" strokeMiterlimit="10" strokeDasharray="12 12"/>
<path d="M1097.42 572.1C1107.73 572.1 1116.08 563.745 1116.08 553.44C1116.08 543.134 1107.73 534.78 1097.42 534.78C1087.12 534.78 1078.76 543.134 1078.76 553.44C1078.76 563.745 1087.12 572.1 1097.42 572.1Z" fill="white" stroke="black" strokeWidth="2.89" strokeMiterlimit="10" strokeDasharray="6.93 6.93"/>
<path d="M1238.48 281.96C1259.18 281.96 1275.96 265.18 1275.96 244.48C1275.96 223.78 1259.18 207 1238.48 207C1217.78 207 1201 223.78 1201 244.48C1201 265.18 1217.78 281.96 1238.48 281.96Z" fill="black"/>
<path d="M1241.63 235.545V253H1237.94V239.048H1237.83L1233.84 241.554V238.281L1238.16 235.545H1241.63Z" fill="white"/>
<g clipPath="url(#clip4_2576_1198)">
<path d="M1248.85 199.05C1248.82 198.15 1248.79 196.84 1248.79 195.27C1248.79 192.97 1249.25 138 1281.39 100.77C1321 54.8799 1399.73 46.9299 1440.13 73.5599C1470.72 93.7199 1464.67 121.45 1495.69 144.99C1512.59 157.82 1531.89 161.29 1541.42 163.16C1564.38 167.66 1583.48 165.16 1594.61 162.84" stroke="black" strokeWidth="5" strokeMiterlimit="10" strokeDasharray="12 12"/>
<path d="M1557.48 193.96C1578.18 193.96 1594.96 177.18 1594.96 156.48C1594.96 135.78 1578.18 119 1557.48 119C1536.78 119 1520 135.78 1520 156.48C1520 177.18 1536.78 193.96 1557.48 193.96Z" fill="black"/>
<path d="M1550.86 165V162.341L1557.07 156.588C1557.6 156.077 1558.04 155.616 1558.4 155.207C1558.76 154.798 1559.04 154.398 1559.23 154.006C1559.41 153.608 1559.51 153.179 1559.51 152.719C1559.51 152.207 1559.39 151.767 1559.16 151.398C1558.92 151.023 1558.61 150.736 1558.2 150.537C1557.8 150.332 1557.34 150.23 1556.83 150.23C1556.3 150.23 1555.83 150.338 1555.43 150.554C1555.04 150.77 1554.73 151.08 1554.51 151.483C1554.3 151.886 1554.19 152.366 1554.19 152.923H1550.69C1550.69 151.781 1550.94 150.79 1551.46 149.949C1551.98 149.108 1552.7 148.457 1553.63 147.997C1554.57 147.537 1555.64 147.307 1556.86 147.307C1558.11 147.307 1559.19 147.528 1560.12 147.972C1561.05 148.409 1561.78 149.017 1562.29 149.795C1562.81 150.574 1563.07 151.466 1563.07 152.472C1563.07 153.131 1562.94 153.781 1562.68 154.423C1562.42 155.065 1561.96 155.778 1561.31 156.562C1560.65 157.341 1559.72 158.276 1558.52 159.366L1555.97 161.864V161.983H1563.3V165H1550.86Z" fill="white"/>
</g>
<g clipPath="url(#clip5_2576_1198)">
<path d="M1576.03 176.59C1584.95 174.8 1593.86 173.02 1602.78 171.23C1613.28 170.37 1627.77 170.23 1644.66 172.99C1663.43 176.06 1685.74 182.87 1707.74 197.25C1758.54 230.44 1773.33 281.46 1778.53 300.49C1794.37 358.47 1786.33 435.38 1735.44 486.44C1713.29 508.67 1689.15 519.87 1674.02 525.5" stroke="black" strokeWidth="5" strokeMiterlimit="10" strokeDasharray="12 12"/>
<path d="M1697.58 548.04C1718.28 548.04 1735.06 531.26 1735.06 510.56C1735.06 489.86 1718.28 473.08 1697.58 473.08C1676.88 473.08 1660.1 489.86 1660.1 510.56C1660.1 531.26 1676.88 548.04 1697.58 548.04Z" fill="black"/>
<path d="M1697.96 520.239C1696.68 520.239 1695.55 520.02 1694.56 519.582C1693.57 519.139 1692.79 518.531 1692.21 517.759C1691.64 516.98 1691.35 516.082 1691.33 515.065H1695.05C1695.07 515.491 1695.21 515.866 1695.47 516.19C1695.73 516.509 1696.08 516.756 1696.51 516.932C1696.94 517.108 1697.43 517.196 1697.96 517.196C1698.53 517.196 1699.02 517.097 1699.46 516.898C1699.89 516.699 1700.23 516.423 1700.47 516.071C1700.71 515.719 1700.84 515.312 1700.84 514.852C1700.84 514.386 1700.71 513.974 1700.44 513.616C1700.19 513.253 1699.82 512.969 1699.34 512.764C1698.86 512.56 1698.29 512.457 1697.63 512.457H1696V509.747H1697.63C1698.19 509.747 1698.68 509.651 1699.11 509.457C1699.54 509.264 1699.87 508.997 1700.11 508.656C1700.35 508.31 1700.47 507.906 1700.47 507.446C1700.47 507.009 1700.37 506.625 1700.16 506.295C1699.95 505.96 1699.66 505.699 1699.29 505.511C1698.92 505.324 1698.48 505.23 1697.99 505.23C1697.49 505.23 1697.03 505.321 1696.62 505.503C1696.2 505.679 1695.87 505.932 1695.62 506.261C1695.37 506.591 1695.24 506.977 1695.22 507.42H1691.68C1691.7 506.415 1691.99 505.528 1692.54 504.761C1693.1 503.994 1693.85 503.395 1694.79 502.963C1695.74 502.526 1696.81 502.307 1698.01 502.307C1699.21 502.307 1700.27 502.526 1701.17 502.963C1702.07 503.401 1702.77 503.991 1703.27 504.736C1703.78 505.474 1704.03 506.304 1704.02 507.224C1704.03 508.202 1703.73 509.017 1703.11 509.67C1702.5 510.324 1701.71 510.739 1700.73 510.915V511.051C1702.02 511.216 1703 511.662 1703.67 512.389C1704.34 513.111 1704.68 514.014 1704.67 515.099C1704.68 516.094 1704.39 516.977 1703.81 517.75C1703.24 518.523 1702.44 519.131 1701.43 519.574C1700.42 520.017 1699.26 520.239 1697.96 520.239Z" fill="white"/>
</g>
<g clipPath="url(#clip6_2576_1198)">
<path d="M1654.72 527.74C1648.97 529.51 1640.74 531.75 1630.71 533.5C1604.81 538.03 1582.38 536.62 1564.5 534.02C1502.45 525.01 1492.48 498.66 1459.05 502.27C1408.12 507.78 1365.45 555.42 1349.07 603.18C1347.53 607.68 1321.15 689.11 1375.15 752.85C1416.91 802.14 1488.59 819.44 1553.17 794.8" stroke="black" strokeWidth="5" strokeMiterlimit="10" strokeDasharray="12 12"/>
<path d="M1537.82 827.53C1558.52 827.53 1575.3 810.749 1575.3 790.05C1575.3 769.35 1558.52 752.57 1537.82 752.57C1517.12 752.57 1500.34 769.35 1500.34 790.05C1500.34 810.749 1517.12 827.53 1537.82 827.53Z" fill="black"/>
<path d="M1530.52 796.932V794.026L1537.8 782.545H1540.31V786.568H1538.83L1534.23 793.838V793.974H1544.59V796.932H1530.52ZM1538.9 800V796.045L1538.96 794.759V782.545H1542.42V800H1538.9Z" fill="white"/>
</g>
<path d="M340.056 910.272L350.872 931.503L328.36 931.032L340.056 910.272Z" fill="#020817"/>
<rect x="353.059" y="1015.61" width="352" height="92" rx="10" transform="rotate(179.327 353.059 1015.61)" fill="#020817"/>
<path d="M68.425 972.042C68.3639 971.527 68.1368 971.131 67.7435 970.853C67.3503 970.575 66.8213 970.442 66.1567 970.455C65.7051 970.464 65.325 970.535 65.0164 970.669C64.7078 970.799 64.4726 970.976 64.3107 971.201C64.1531 971.425 64.077 971.678 64.0824 971.959C64.0784 972.194 64.1314 972.397 64.2413 972.57C64.3555 972.743 64.5096 972.891 64.7038 973.015C64.8979 973.135 65.1216 973.239 65.3748 973.328C65.6279 973.413 65.8978 973.484 66.1845 973.543L67.3658 973.801C67.9392 973.918 68.4666 974.078 68.9479 974.282C69.4292 974.486 69.8475 974.74 70.2029 975.044C70.5583 975.348 70.836 975.709 71.0358 976.127C71.24 976.545 71.3495 977.027 71.3643 977.572C71.3755 978.373 71.1845 979.072 70.7911 979.668C70.4019 980.259 69.8313 980.724 69.0791 981.063C68.3312 981.397 67.4247 981.574 66.3595 981.595C65.3029 981.615 64.3795 981.471 63.5893 981.162C62.8033 980.854 62.1848 980.386 61.7337 979.76C61.2867 979.129 61.0435 978.343 61.004 977.402L63.6817 977.35C63.72 977.789 63.8528 978.152 64.0801 978.442C64.3115 978.728 64.6161 978.941 64.9939 979.083C65.3759 979.221 65.8055 979.285 66.2827 979.275C66.7513 979.266 67.1569 979.19 67.4994 979.047C67.8461 978.904 68.113 978.709 68.3 978.463C68.487 978.216 68.5775 977.935 68.5714 977.62C68.5657 977.326 68.4736 977.081 68.295 976.884C68.1207 976.687 67.866 976.521 67.531 976.387C67.2002 976.253 66.7951 976.133 66.3157 976.027L64.8836 975.697C63.7749 975.45 62.8955 975.047 62.2454 974.488C61.5952 973.93 61.2629 973.167 61.2485 972.2C61.2289 971.407 61.4264 970.711 61.841 970.11C62.2598 969.51 62.841 969.036 63.5844 968.689C64.3278 968.342 65.1767 968.16 66.1311 968.141C67.1025 968.123 67.9536 968.272 68.6843 968.591C69.4193 968.909 69.9949 969.36 70.4111 969.944C70.8273 970.529 71.0494 971.211 71.0772 971.99L68.425 972.042Z" fill="white"/>
<path d="M248.079 597.547L269.011 586.164L269.145 608.68L248.079 597.547Z" fill="#020817"/>
<rect width="352" height="92" rx="10" transform="matrix(0.999931 0.0117538 0.0117538 -0.999931 264 675.993)" fill="#020817"/>
<path d="M882.056 405.48L892.872 384.249L870.36 384.72L882.056 405.48Z" fill="#020817"/>
<rect width="352" height="92" rx="10" transform="matrix(-0.999931 -0.0117538 -0.0117538 0.999931 895.059 300.137)" fill="#020817"/>
<defs>
<clipPath id="clip0_2576_1198">
<rect width="571" height="49" fill="white" transform="translate(448 177)"/>
</clipPath>
<clipPath id="clip1_2576_1198">
<rect width="135" height="89" fill="white" transform="translate(792 422)"/>
</clipPath>
<clipPath id="clip2_2576_1198">
<rect width="648" height="63" fill="white" transform="translate(176 548)"/>
</clipPath>
<clipPath id="clip3_2576_1198">
<rect width="180" height="277" fill="white" transform="translate(198 620)"/>
</clipPath>
<clipPath id="clip4_2576_1198">
<rect width="75" height="75" fill="white" transform="translate(1520 119)"/>
</clipPath>
<clipPath id="clip5_2576_1198">
<rect width="75" height="75" fill="white" transform="translate(1660 473)"/>
</clipPath>
<clipPath id="clip6_2576_1198">
<rect width="400" height="75" fill="white" transform="translate(1500 752)"/>
</clipPath>
</defs>
</svg>