<svg width="382" height="141" viewBox="0 0 382 141" fill="none" xmlns="http://www.w3.org/2000/svg">
<path d="M381.373 3.787C381.808 2.47648 381.098 1.06175 379.787 0.627103C378.476 0.192458 377.062 0.90249 376.627 2.213L381.373 3.787ZM363.03 22.31L361.34 20.468V20.468L363.03 22.31ZM335.04 35.32L334.177 32.9738L335.04 35.32ZM303.37 42.99L302.926 40.5297L303.37 42.99ZM231.13 48.66L231.264 51.1564L231.13 48.66ZM137.09 55.98L136.568 53.5352L137.09 55.98ZM101.04 64.65L100.232 62.2843L101.04 64.65ZM71.03 73.66L70.464 71.2249V71.2249L71.03 73.66ZM44.7 86.65L45.852 88.8688L44.7 86.65ZM23.35 108.97L21.1508 107.781L21.133 107.814L21.1162 107.848L23.35 108.97ZM21.34 114.97L23.805 115.387L21.34 114.97ZM22.1484 121.029C22.8779 119.857 22.519 118.315 21.3467 117.585C20.1745 116.856 18.6328 117.215 17.9033 118.387L22.1484 121.029ZM18.6241 116.199C18.4007 117.562 19.3241 118.847 20.6866 119.071C22.0492 119.294 23.3348 118.371 23.5582 117.008L18.6241 116.199ZM24.0913 114.032C24.4311 112.694 23.6216 111.334 22.2833 110.994C20.9451 110.654 19.5848 111.463 19.245 112.802L24.0913 114.032ZM20.3804 109.439C19.8434 110.711 20.4393 112.177 21.7113 112.714C22.9833 113.251 24.4498 112.655 24.9868 111.383L20.3804 109.439ZM27.4366 106.887C28.16 105.711 27.793 104.171 26.6169 103.448C25.4409 102.724 23.9011 103.091 23.1777 104.267L27.4366 106.887ZM27.8596 97.6017C26.9952 98.6783 27.1673 100.252 28.2439 101.116C29.3206 101.981 30.8941 101.809 31.7585 100.732L27.8596 97.6017ZM36.8346 95.2643C37.8483 94.3269 37.9101 92.7452 36.9727 91.7315C36.0353 90.7178 34.4536 90.6559 33.4399 91.5933L36.8346 95.2643ZM39.9565 86.5182C38.7965 87.2671 38.4633 88.8145 39.2121 89.9745C39.961 91.1345 41.5084 91.4678 42.6684 90.7189L39.9565 86.5182ZM52.387 85.182C53.5755 84.4794 53.9695 82.9463 53.2669 81.7577C52.5644 80.5691 51.0313 80.1751 49.8427 80.8777L52.387 85.182ZM63.0649 73.7207C61.7982 74.2701 61.2168 75.7424 61.7663 77.0091C62.3158 78.2757 63.7881 78.8571 65.0547 78.3076L63.0649 73.7207ZM75.4583 75.1452C76.7951 74.8001 77.5991 73.4365 77.2539 72.0996C76.9087 70.7628 75.5452 69.9588 74.2083 70.304L75.4583 75.1452ZM81.6813 68.2324C80.3565 68.6213 79.5978 70.0106 79.9868 71.3354C80.3757 72.6602 81.765 73.4188 83.0898 73.0299L81.6813 68.2324ZM90.6347 70.7202C91.9507 70.3026 92.679 68.8972 92.2614 67.5812C91.8438 66.2651 90.4384 65.5368 89.1224 65.9544L90.6347 70.7202ZM96.535 63.5349C95.2256 63.9731 94.5195 65.3897 94.9577 66.6991C95.3959 68.0084 96.8125 68.7146 98.1219 68.2764L96.535 63.5349ZM106.174 65.632C107.496 65.2361 108.248 63.8429 107.852 62.5201C107.456 61.1974 106.063 60.4461 104.74 60.842L106.174 65.632ZM113.839 58.4209C112.496 58.7416 111.667 60.0902 111.988 61.4332C112.308 62.7761 113.657 63.6049 115 63.2842L113.839 58.4209ZM123.99 61.2818C125.341 60.9957 126.204 59.6688 125.918 58.3181C125.631 56.9673 124.305 56.1042 122.954 56.3903L123.99 61.2818ZM132.038 54.4919C130.686 54.7747 129.82 56.0995 130.103 57.451C130.386 58.8024 131.711 59.6687 133.062 59.3859L132.038 54.4919ZM142.192 57.4941C143.548 57.2336 144.436 55.9232 144.175 54.5673C143.915 53.2114 142.604 52.3234 141.248 52.5839L142.192 57.4941ZM150.685 51.0139C149.318 51.2048 148.364 52.4681 148.555 53.8355C148.745 55.203 150.009 56.1568 151.376 55.9659L150.685 51.0139ZM160.634 54.9064C162.009 54.7799 163.021 53.5628 162.894 52.1879C162.768 50.813 161.551 49.8009 160.176 49.9274L160.634 54.9064ZM169.657 49.2065C168.279 49.2937 167.233 50.4815 167.32 51.8595C167.407 53.2374 168.595 54.2837 169.973 54.1965L169.657 49.2065ZM179.372 53.6715C180.751 53.602 181.812 52.4278 181.743 51.0488C181.673 49.6698 180.499 48.6083 179.12 48.6778L179.372 53.6715ZM188.558 48.2269C187.179 48.2905 186.112 49.4602 186.176 50.8394C186.24 52.2187 187.409 53.2852 188.789 53.2216L188.558 48.2269ZM198.222 52.7896C199.601 52.7263 200.668 51.5569 200.605 50.1777C200.541 48.7984 199.372 47.7316 197.993 47.7949L198.222 52.7896ZM207.419 47.3557C206.039 47.4212 204.974 48.5923 205.04 49.9714C205.105 51.3506 206.277 52.4155 207.656 52.35L207.419 47.3557ZM217.086 51.8913C218.465 51.8226 219.528 50.6489 219.459 49.2699C219.39 47.8909 218.216 46.8288 216.837 46.8975L217.086 51.8913ZM226.27 46.4149C224.891 46.4873 223.832 47.6637 223.904 49.0425C223.977 50.4213 225.153 51.4804 226.532 51.408L226.27 46.4149ZM235.792 50.9077C237.171 50.8305 238.226 49.6504 238.149 48.2718C238.072 46.8933 236.891 45.8383 235.513 45.9155L235.792 50.9077ZM244.549 45.3906C243.171 45.4736 242.121 46.6581 242.204 48.0363C242.287 49.4145 243.471 50.4645 244.849 50.3816L244.549 45.3906ZM253.903 49.8177C255.281 49.7289 256.326 48.54 256.237 47.1621C256.148 45.7843 254.96 44.7393 253.582 44.828L253.903 49.8177ZM262.61 44.2258C261.233 44.3209 260.193 45.5147 260.288 46.8921C260.383 48.2695 261.577 49.309 262.955 49.2139L262.61 44.2258ZM272.011 48.5642C273.388 48.4614 274.421 47.262 274.318 45.8851C274.215 44.5082 273.016 43.4753 271.639 43.578L272.011 48.5642ZM280.652 42.8744C279.276 42.9872 278.252 44.1941 278.365 45.5702C278.478 46.9463 279.685 47.9705 281.061 47.8577L280.652 42.8744ZM290.121 47.0672C291.496 46.9384 292.506 45.7196 292.377 44.3449C292.248 42.9702 291.029 41.9602 289.655 42.089L290.121 47.0672ZM298.59 41.1506C297.219 41.3179 296.244 42.5645 296.411 43.9351C296.578 45.3056 297.825 46.281 299.196 46.1137L298.59 41.1506ZM307.835 44.7199C309.193 44.4704 310.092 43.1673 309.842 41.8093C309.593 40.4513 308.289 39.5527 306.931 39.8022L307.835 44.7199ZM314.886 38.2645C313.534 38.544 312.664 39.8667 312.944 41.2189C313.224 42.571 314.546 43.4405 315.898 43.1609L314.886 38.2645ZM323.959 41.3229C325.297 40.9838 326.107 39.6239 325.768 38.2855C325.429 36.9471 324.069 36.137 322.731 36.4761L323.959 41.3229ZM330.414 34.2738C329.101 34.6995 328.381 36.1094 328.807 37.4228C329.233 38.7363 330.642 39.456 331.956 39.0303L330.414 34.2738ZM339.522 36.3738C340.826 35.9185 341.513 34.4927 341.058 33.1892C340.603 31.8858 339.177 31.1982 337.874 31.6535L339.522 36.3738ZM345.171 29.0901C343.874 29.5636 343.206 30.9988 343.68 32.2958C344.153 33.5928 345.588 34.2603 346.885 33.7868L345.171 29.0901ZM354.275 30.7931C355.528 30.2146 356.076 28.7293 355.497 27.4757C354.919 26.222 353.433 25.6747 352.18 26.2532L354.275 30.7931ZM358.566 22.6771C357.433 23.4664 357.154 25.0246 357.943 26.1575C358.733 27.2904 360.291 27.569 361.424 26.7797L358.566 22.6771ZM369.349 19.6891C370.318 18.7061 370.308 17.1233 369.325 16.1536C368.342 15.184 366.759 15.1948 365.789 16.1778L369.349 19.6891ZM373.827 6.9523C373.01 8.06577 373.251 9.63026 374.365 10.4467C375.478 11.2631 377.043 11.0223 377.859 9.90885L373.827 6.9523ZM19 121L20.7852 122.75C21.332 122.192 21.7811 121.619 22.1484 121.029L20.0258 119.708L17.9033 118.387C17.7371 118.654 17.5172 118.941 17.2148 119.25L19 121ZM21.0912 116.604L23.5582 117.008C23.6073 116.709 23.65 116.412 23.6884 116.147C23.7282 115.873 23.7643 115.628 23.805 115.387L21.34 114.97L18.875 114.553C18.8233 114.859 18.7796 115.158 18.7403 115.429C18.6998 115.708 18.6642 115.955 18.6241 116.199L21.0912 116.604ZM21.34 114.97L23.805 115.387C23.8815 114.935 23.9767 114.483 24.0913 114.032L21.6682 113.417L19.245 112.802C19.0974 113.383 18.9742 113.967 18.875 114.553L21.34 114.97ZM22.6836 110.411L24.9868 111.383C25.1669 110.957 25.3656 110.527 25.5838 110.092L23.35 108.97L21.1162 107.848C20.8502 108.377 20.6049 108.907 20.3804 109.439L22.6836 110.411ZM23.35 108.97L25.5492 110.159C26.1316 109.082 26.76 107.987 27.4366 106.887L25.3072 105.577L23.1777 104.267C22.4495 105.451 21.7747 106.627 21.1508 107.781L23.35 108.97ZM29.809 99.1668L31.7585 100.732C33.2879 98.827 34.9764 96.9827 36.8346 95.2643L35.1372 93.4288L33.4399 91.5933C31.3816 93.4967 29.5266 95.5254 27.8596 97.6017L29.809 99.1668ZM41.3125 88.6186L42.6684 90.7189C43.6901 90.0593 44.7508 89.4405 45.852 88.8688L44.7 86.65L43.548 84.4312C42.3026 85.0778 41.1059 85.7762 39.9565 86.5182L41.3125 88.6186ZM44.7 86.65L45.852 88.8688C48.0463 87.7295 50.2299 86.457 52.387 85.182L51.1148 83.0299L49.8427 80.8777C47.6902 82.1501 45.6096 83.3609 43.548 84.4312L44.7 86.65ZM64.0598 76.0142L65.0547 78.3076C67.2107 77.3724 69.3831 76.6095 71.596 76.0951L71.03 73.66L70.464 71.2249C67.8943 71.8222 65.4315 72.694 63.0649 73.7207L64.0598 76.0142ZM71.03 73.66L71.596 76.0951C72.8456 75.8046 74.1354 75.4868 75.4583 75.1452L74.8333 72.7246L74.2083 70.304C72.9198 70.6367 71.6695 70.9447 70.464 71.2249L71.03 73.66ZM82.3855 70.6311L83.0898 73.0299C85.5511 72.3073 88.0781 71.5315 90.6347 70.7202L89.8785 68.3373L89.1224 65.9544C86.5947 66.7565 84.1027 67.5215 81.6813 68.2324L82.3855 70.6311ZM97.3284 65.9056L98.1219 68.2764C99.3662 67.8599 100.61 67.439 101.848 67.0157L101.04 64.65L100.232 62.2843C99.0021 62.7045 97.7686 63.122 96.535 63.5349L97.3284 65.9056ZM101.04 64.65L101.848 67.0157C103.283 66.5254 104.722 66.0666 106.174 65.632L105.457 63.237L104.74 60.842C103.231 61.2937 101.731 61.7719 100.232 62.2843L101.04 64.65ZM114.419 60.8526L115 63.2842C117.863 62.6006 120.836 61.9497 123.99 61.2818L123.472 58.8361L122.954 56.3903C119.783 57.0619 116.762 57.7229 113.839 58.4209L114.419 60.8526ZM132.55 56.9389L133.062 59.3859C134.537 59.0772 136.053 58.758 137.612 58.4248L137.09 55.98L136.568 53.5352C135.017 53.8664 133.509 54.1841 132.038 54.4919L132.55 56.9389ZM137.09 55.98L137.612 58.4248C139.186 58.0885 140.707 57.7793 142.192 57.4941L141.72 55.039L141.248 52.5839C139.727 52.8761 138.173 53.1922 136.568 53.5352L137.09 55.98ZM151.031 53.4899L151.376 55.9659C154.377 55.547 157.405 55.2034 160.634 54.9064L160.405 52.4169L160.176 49.9274C156.879 50.2306 153.773 50.5829 150.685 51.0139L151.031 53.4899ZM169.815 51.7015L169.973 54.1965C172.865 54.0134 175.97 53.8429 179.372 53.6715L179.246 51.1747L179.12 48.6778C175.706 48.8499 172.578 49.0216 169.657 49.2065L169.815 51.7015ZM188.673 50.7242L188.789 53.2216C191.725 53.0861 194.856 52.9441 198.222 52.7896L198.107 50.2923L197.993 47.7949C194.632 47.9492 191.494 48.0915 188.558 48.2269L188.673 50.7242ZM207.537 49.8528L207.656 52.35C210.634 52.2085 213.773 52.0565 217.086 51.8913L216.962 49.3944L216.837 46.8975C213.528 47.0625 210.394 47.2143 207.419 47.3557L207.537 49.8528ZM226.401 48.9114L226.532 51.408C228.075 51.327 229.652 51.2432 231.264 51.1564L231.13 48.66L230.996 46.1636C229.386 46.2503 227.811 46.334 226.27 46.4149L226.401 48.9114ZM231.13 48.66L231.264 51.1564C232.77 51.0753 234.281 50.9923 235.792 50.9077L235.653 48.4116L235.513 45.9155C234.005 46 232.498 46.0827 230.996 46.1636L231.13 48.66ZM244.699 47.8861L244.849 50.3816C247.894 50.1984 250.92 50.0099 253.903 49.8177L253.742 47.3229L253.582 44.828C250.606 45.0198 247.586 45.2079 244.549 45.3906L244.699 47.8861ZM262.782 46.7198L262.955 49.2139C266.065 48.999 269.094 48.7818 272.011 48.5642L271.825 46.0711L271.639 43.578C268.732 43.7949 265.712 44.0115 262.61 44.2258L262.782 46.7198ZM280.857 45.366L281.061 47.8577C284.325 47.5902 287.366 47.3253 290.121 47.0672L289.888 44.5781L289.655 42.089C286.923 42.345 283.902 42.6081 280.652 42.8744L280.857 45.366ZM298.893 43.6321L299.196 46.1137C301.069 45.885 302.634 45.6631 303.814 45.4503L303.37 42.99L302.926 40.5297C301.884 40.7177 300.427 40.9263 298.59 41.1506L298.893 43.6321ZM303.37 42.99L303.814 45.4503C305.161 45.2072 306.502 44.9648 307.835 44.7199L307.383 42.2611L306.931 39.8022C305.607 40.0456 304.273 40.2867 302.926 40.5297L303.37 42.99ZM315.392 40.7127L315.898 43.1609C318.602 42.6019 321.288 41.9998 323.959 41.3229L323.345 38.8995L322.731 36.4761C320.148 37.1306 317.536 37.7165 314.886 38.2645L315.392 40.7127ZM331.185 36.6521L331.956 39.0303C333.273 38.6033 334.589 38.15 335.903 37.6662L335.04 35.32L334.177 32.9738C332.926 33.4339 331.673 33.866 330.414 34.2738L331.185 36.6521ZM335.04 35.32L335.903 37.6662C337.093 37.2283 338.301 36.8006 339.522 36.3738L338.698 34.0137L337.874 31.6535C336.64 32.0844 335.403 32.5224 334.177 32.9738L335.04 35.32ZM346.028 31.4384L346.885 33.7868C349.39 32.8724 351.885 31.896 354.275 30.7931L353.227 28.5232L352.18 26.2532C349.964 27.2756 347.611 28.1991 345.171 29.0901L346.028 31.4384ZM359.995 24.7284L361.424 26.7797C362.579 25.9746 363.684 25.103 364.72 24.152L363.03 22.31L361.34 20.468C360.486 21.2516 359.559 21.9851 358.566 22.6771L359.995 24.7284ZM363.03 22.31L364.72 24.152C366.327 22.6777 367.88 21.1783 369.349 19.6891L367.569 17.9334L365.789 16.1778C364.378 17.608 362.885 19.0498 361.34 20.468L363.03 22.31ZM375.843 8.43058L377.859 9.90885C379.481 7.69704 380.784 5.56228 381.373 3.787L379 3L376.627 2.213C376.295 3.21522 375.381 4.83197 373.827 6.9523L375.843 8.43058Z" fill="black" fill-opacity="0.9"/>
<path d="M14.2863 136.051L9.24239 109.231L33.983 117.162L14.2863 136.051Z" fill="black" fill-opacity="0.9"/>
<path d="M9.88872 109.964L33.0314 117.383L14.6068 135.052L9.88872 109.964Z" stroke="black" stroke-opacity="0.9"/>
</svg>
