<svg width="382" height="141" viewBox="0 0 382 141" fill="none" xmlns="http://www.w3.org/2000/svg">
<path d="M0.627102 3.78699C0.192459 2.47648 0.902493 1.06175 2.21301 0.627102C3.52352 0.192459 4.93825 0.902493 5.3729 2.21301L0.627102 3.78699ZM18.97 22.31L20.6602 20.468L20.6602 20.468L18.97 22.31ZM46.96 35.32L46.0966 37.6662L46.96 35.32ZM78.63 42.99L78.1861 45.4503L78.63 42.99ZM150.87 48.66L150.736 51.1564L150.736 51.1564L150.87 48.66ZM244.91 55.98L245.432 53.5352L244.91 55.98ZM280.96 64.65L281.768 62.2843L280.96 64.65ZM310.97 73.66L310.404 76.0951L310.97 73.66ZM337.3 86.65L338.452 84.4312L338.452 84.4312L337.3 86.65ZM358.65 108.97L360.849 107.781L360.867 107.814L360.884 107.848L358.65 108.97ZM359.852 121.029C359.122 119.857 359.481 118.315 360.653 117.585C361.826 116.856 363.367 117.215 364.097 118.387L359.852 121.029ZM363.376 116.199C363.599 117.562 362.676 118.847 361.313 119.071C359.951 119.294 358.665 118.371 358.442 117.008L363.376 116.199ZM357.909 114.032C357.569 112.694 358.378 111.334 359.717 110.994C361.055 110.654 362.415 111.463 362.755 112.802L357.909 114.032ZM361.62 109.439C362.157 110.711 361.561 112.177 360.289 112.714C359.017 113.251 357.55 112.655 357.013 111.383L361.62 109.439ZM354.563 106.887C353.84 105.711 354.207 104.171 355.383 103.448C356.559 102.724 358.099 103.091 358.822 104.267L354.563 106.887ZM354.14 97.6017C355.005 98.6783 354.833 100.252 353.756 101.116C352.679 101.981 351.106 101.809 350.242 100.732L354.14 97.6017ZM345.165 95.2643C344.152 94.3269 344.09 92.7452 345.027 91.7315C345.965 90.7178 347.546 90.6559 348.56 91.5933L345.165 95.2643ZM342.044 86.5182C343.203 87.2671 343.537 88.8145 342.788 89.9745C342.039 91.1345 340.492 91.4678 339.332 90.7189L342.044 86.5182ZM329.613 85.182C328.424 84.4794 328.03 82.9463 328.733 81.7577C329.436 80.5691 330.969 80.1751 332.157 80.8777L329.613 85.182ZM318.935 73.7207C320.202 74.2701 320.783 75.7424 320.234 77.0091C319.684 78.2757 318.212 78.8571 316.945 78.3076L318.935 73.7207ZM306.542 75.1452C305.205 74.8001 304.401 73.4365 304.746 72.0996C305.091 70.7628 306.455 69.9588 307.792 70.304L306.542 75.1452ZM300.319 68.2324C301.644 68.6213 302.402 70.0106 302.013 71.3354C301.624 72.6602 300.235 73.4188 298.91 73.0299L300.319 68.2324ZM291.365 70.7202C290.049 70.3026 289.321 68.8972 289.739 67.5812C290.156 66.2651 291.562 65.5368 292.878 65.9544L291.365 70.7202ZM285.465 63.5349C286.774 63.9731 287.481 65.3897 287.042 66.6991C286.604 68.0084 285.187 68.7146 283.878 68.2764L285.465 63.5349ZM275.826 65.632C274.504 65.2361 273.752 63.8429 274.148 62.5201C274.544 61.1974 275.937 60.4461 277.26 60.842L275.826 65.632ZM268.161 58.4209C269.504 58.7416 270.333 60.0902 270.012 61.4332C269.692 62.7762 268.343 63.6049 267 63.2842L268.161 58.4209ZM258.01 61.2818C256.659 60.9957 255.796 59.6688 256.082 58.318C256.369 56.9673 257.695 56.1042 259.046 56.3903L258.01 61.2818ZM249.962 54.4919C251.314 54.7747 252.18 56.0995 251.897 57.451C251.614 58.8024 250.289 59.6687 248.938 59.3859L249.962 54.4919ZM239.808 57.4941C238.452 57.2336 237.564 55.9232 237.825 54.5673C238.085 53.2114 239.396 52.3234 240.752 52.5839L239.808 57.4941ZM231.315 51.0139C232.682 51.2048 233.636 52.4681 233.445 53.8355C233.255 55.203 231.991 56.1568 230.624 55.9659L231.315 51.0139ZM221.366 54.9064C219.991 54.7799 218.979 53.5628 219.106 52.1879C219.232 50.813 220.449 49.8009 221.824 49.9274L221.366 54.9064ZM212.343 49.2065C213.721 49.2937 214.767 50.4815 214.68 51.8594C214.593 53.2374 213.405 54.2837 212.027 54.1965L212.343 49.2065ZM202.628 53.6715C201.249 53.602 200.188 52.4278 200.257 51.0488C200.327 49.6699 201.501 48.6083 202.88 48.6778L202.628 53.6715ZM193.442 48.2269C194.821 48.2905 195.888 49.4602 195.824 50.8394C195.76 52.2187 194.591 53.2852 193.211 53.2216L193.442 48.2269ZM183.778 52.7896C182.399 52.7263 181.332 51.5569 181.395 50.1777C181.459 48.7984 182.628 47.7316 184.007 47.7949L183.778 52.7896ZM174.581 47.3557C175.961 47.4212 177.026 48.5923 176.96 49.9714C176.895 51.3506 175.723 52.4155 174.344 52.35L174.581 47.3557ZM164.914 51.8913C163.535 51.8226 162.472 50.6489 162.541 49.2699C162.61 47.8909 163.784 46.8288 165.163 46.8975L164.914 51.8913ZM155.73 46.4149C157.109 46.4873 158.168 47.6637 158.096 49.0425C158.023 50.4213 156.847 51.4804 155.468 51.408L155.73 46.4149ZM146.208 50.9077C144.829 50.8305 143.774 49.6504 143.851 48.2718C143.928 46.8933 145.109 45.8383 146.487 45.9155L146.208 50.9077ZM137.451 45.3906C138.829 45.4736 139.879 46.6581 139.796 48.0363C139.713 49.4145 138.529 50.4645 137.151 50.3816L137.451 45.3906ZM128.097 49.8177C126.719 49.7289 125.674 48.54 125.763 47.1621C125.852 45.7843 127.04 44.7393 128.418 44.828L128.097 49.8177ZM119.39 44.2258C120.767 44.3209 121.807 45.5147 121.712 46.8921C121.617 48.2695 120.423 49.309 119.045 49.2139L119.39 44.2258ZM109.989 48.5642C108.612 48.4614 107.579 47.262 107.682 45.8851C107.785 44.5082 108.984 43.4753 110.361 43.578L109.989 48.5642ZM101.348 42.8744C102.724 42.9872 103.748 44.1941 103.635 45.5702C103.522 46.9463 102.315 47.9705 100.939 47.8577L101.348 42.8744ZM91.8789 47.0672C90.5043 46.9384 89.4943 45.7196 89.6231 44.3449C89.7519 42.9702 90.9707 41.9602 92.3454 42.089L91.8789 47.0672ZM83.4103 41.1506C84.7809 41.3179 85.7563 42.5645 85.589 43.9351C85.4217 45.3056 84.175 46.281 82.8045 46.1137L83.4103 41.1506ZM74.1651 44.7199C72.8071 44.4704 71.9085 43.1673 72.1579 41.8093C72.4074 40.4513 73.7105 39.5527 75.0685 39.8022L74.1651 44.7199ZM67.1139 38.2645C68.466 38.544 69.3355 39.8667 69.056 41.2189C68.7765 42.571 67.4537 43.4405 66.1016 43.1609L67.1139 38.2645ZM58.0411 41.3229C56.7027 40.9838 55.8926 39.6239 56.2317 38.2855C56.5708 36.9471 57.9307 36.137 59.2692 36.4761L58.0411 41.3229ZM51.5856 34.2738C52.8991 34.6995 53.6187 36.1094 53.1931 37.4228C52.7674 38.7363 51.3575 39.456 50.0441 39.0303L51.5856 34.2738ZM42.4775 36.3738C41.174 35.9185 40.4865 34.4927 40.9418 33.1892C41.3972 31.8858 42.823 31.1982 44.1264 31.6535L42.4775 36.3738ZM36.8294 29.0901C38.1264 29.5636 38.7939 30.9988 38.3204 32.2958C37.8469 33.5928 36.4117 34.2603 35.1147 33.7868L36.8294 29.0901ZM27.7253 30.7931C26.4717 30.2146 25.9244 28.7293 26.5029 27.4757C27.0814 26.222 28.5667 25.6747 29.8204 26.2532L27.7253 30.7931ZM23.4344 22.6771C24.5674 23.4664 24.8459 25.0246 24.0567 26.1575C23.2675 27.2904 21.7093 27.569 20.5764 26.7797L23.4344 22.6771ZM12.6512 19.6891C11.6815 18.7061 11.6924 17.1232 12.6753 16.1536C13.6583 15.184 15.2412 15.1948 16.2108 16.1778L12.6512 19.6891ZM8.17325 6.9523C8.98967 8.06577 8.74888 9.63026 7.63541 10.4467C6.52194 11.2631 4.95745 11.0223 4.14102 9.90885L8.17325 6.9523ZM363 121L361.215 122.75C360.668 122.192 360.219 121.619 359.852 121.029L361.974 119.708L364.097 118.387C364.263 118.654 364.483 118.941 364.785 119.25L363 121ZM360.909 116.604L358.442 117.008C358.393 116.709 358.35 116.412 358.312 116.147C358.272 115.873 358.236 115.628 358.195 115.387L360.66 114.97L363.125 114.553C363.177 114.859 363.22 115.158 363.26 115.429C363.3 115.708 363.336 115.955 363.376 116.199L360.909 116.604ZM360.66 114.97L358.195 115.387C358.118 114.935 358.023 114.483 357.909 114.032L360.332 113.417L362.755 112.802C362.903 113.383 363.026 113.967 363.125 114.553L360.66 114.97ZM359.316 110.411L357.013 111.383C356.833 110.957 356.634 110.527 356.416 110.092L358.65 108.97L360.884 107.848C361.15 108.377 361.395 108.907 361.62 109.439L359.316 110.411ZM358.65 108.97L356.451 110.159C355.868 109.082 355.24 107.987 354.563 106.887L356.693 105.577L358.822 104.267C359.551 105.451 360.225 106.627 360.849 107.781L358.65 108.97ZM352.191 99.1668L350.242 100.732C348.712 98.827 347.024 96.9827 345.165 95.2643L346.863 93.4288L348.56 91.5933C350.618 93.4967 352.473 95.5254 354.14 97.6017L352.191 99.1668ZM340.688 88.6186L339.332 90.7189C338.31 90.0593 337.249 89.4405 336.148 88.8688L337.3 86.65L338.452 84.4312C339.697 85.0778 340.894 85.7762 342.044 86.5182L340.688 88.6186ZM337.3 86.65L336.148 88.8688C333.954 87.7295 331.77 86.457 329.613 85.182L330.885 83.0299L332.157 80.8777C334.31 82.1501 336.39 83.3609 338.452 84.4312L337.3 86.65ZM317.94 76.0142L316.945 78.3076C314.789 77.3724 312.617 76.6095 310.404 76.0951L310.97 73.66L311.536 71.2249C314.106 71.8222 316.569 72.694 318.935 73.7207L317.94 76.0142ZM310.97 73.66L310.404 76.0951C309.154 75.8046 307.865 75.4868 306.542 75.1452L307.167 72.7246L307.792 70.304C309.08 70.6367 310.33 70.9447 311.536 71.2249L310.97 73.66ZM299.614 70.6311L298.91 73.0299C296.449 72.3073 293.922 71.5315 291.365 70.7202L292.121 68.3373L292.878 65.9544C295.405 66.7565 297.897 67.5215 300.319 68.2324L299.614 70.6311ZM284.672 65.9056L283.878 68.2764C282.634 67.8599 281.39 67.439 280.152 67.0157L280.96 64.65L281.768 62.2843C282.998 62.7045 284.231 63.122 285.465 63.5349L284.672 65.9056ZM280.96 64.65L280.152 67.0157C278.717 66.5254 277.278 66.0666 275.826 65.632L276.543 63.237L277.26 60.842C278.769 61.2937 280.269 61.7718 281.768 62.2843L280.96 64.65ZM267.581 60.8526L267 63.2842C264.137 62.6006 261.164 61.9497 258.01 61.2818L258.528 58.8361L259.046 56.3903C262.217 57.0619 265.238 57.7229 268.161 58.4209L267.581 60.8526ZM249.45 56.9389L248.938 59.3859C247.463 59.0772 245.947 58.758 244.388 58.4248L244.91 55.98L245.432 53.5352C246.983 53.8664 248.491 54.1841 249.962 54.4919L249.45 56.9389ZM244.91 55.98L244.388 58.4248C242.814 58.0885 241.293 57.7793 239.808 57.4941L240.28 55.039L240.752 52.5839C242.273 52.8761 243.827 53.1922 245.432 53.5352L244.91 55.98ZM230.969 53.4899L230.624 55.9659C227.623 55.547 224.595 55.2034 221.366 54.9064L221.595 52.4169L221.824 49.9274C225.121 50.2306 228.227 50.5829 231.315 51.0139L230.969 53.4899ZM212.185 51.7015L212.027 54.1965C209.135 54.0134 206.03 53.8429 202.628 53.6715L202.754 51.1747L202.88 48.6778C206.294 48.8499 209.422 49.0216 212.343 49.2065L212.185 51.7015ZM193.327 50.7242L193.211 53.2216C190.275 53.0861 187.144 52.9441 183.778 52.7896L183.893 50.2923L184.007 47.7949C187.368 47.9492 190.506 48.0915 193.442 48.2269L193.327 50.7242ZM174.463 49.8528L174.344 52.35C171.366 52.2086 168.227 52.0565 164.914 51.8913L165.038 49.3944L165.163 46.8975C168.472 47.0625 171.606 47.2143 174.581 47.3557L174.463 49.8528ZM155.599 48.9114L155.468 51.408C153.925 51.327 152.348 51.2432 150.736 51.1564L150.87 48.66L151.004 46.1636C152.614 46.2503 154.189 46.334 155.73 46.4149L155.599 48.9114ZM150.87 48.66L150.736 51.1564C149.23 51.0753 147.719 50.9923 146.208 50.9077L146.347 48.4116L146.487 45.9155C147.995 46 149.502 46.0827 151.004 46.1636L150.87 48.66ZM137.301 47.8861L137.151 50.3816C134.106 50.1984 131.08 50.0099 128.097 49.8177L128.258 47.3229L128.418 44.828C131.394 45.0198 134.414 45.2079 137.451 45.3906L137.301 47.8861ZM119.218 46.7198L119.045 49.2139C115.935 48.999 112.906 48.7818 109.989 48.5642L110.175 46.0711L110.361 43.578C113.268 43.7949 116.288 44.0115 119.39 44.2258L119.218 46.7198ZM101.143 45.366L100.939 47.8577C97.6747 47.5902 94.6342 47.3253 91.8789 47.0672L92.1122 44.5781L92.3454 42.089C95.0775 42.345 98.0982 42.6081 101.348 42.8744L101.143 45.366ZM83.1074 43.6322L82.8045 46.1137C80.9308 45.885 79.3656 45.6631 78.1861 45.4503L78.63 42.99L79.0739 40.5297C80.1158 40.7177 81.5726 40.9262 83.4103 41.1506L83.1074 43.6322ZM78.63 42.99L78.1861 45.4503C76.839 45.2072 75.4981 44.9648 74.1651 44.7199L74.6168 42.2611L75.0685 39.8022C76.3931 40.0456 77.7271 40.2867 79.0739 40.5297L78.63 42.99ZM66.6078 40.7127L66.1016 43.1609C63.3978 42.6019 60.7124 41.9998 58.0411 41.3229L58.6551 38.8995L59.2692 36.4761C61.8524 37.1306 64.4635 37.7165 67.1139 38.2645L66.6078 40.7127ZM50.8148 36.652L50.0441 39.0303C48.7268 38.6033 47.4112 38.15 46.0966 37.6662L46.96 35.32L47.8234 32.9738C49.0735 33.4339 50.3272 33.866 51.5856 34.2738L50.8148 36.652ZM46.96 35.32L46.0966 37.6662C44.9068 37.2283 43.6991 36.8006 42.4775 36.3738L43.302 34.0137L44.1264 31.6535C45.3599 32.0844 46.5966 32.5224 47.8234 32.9738L46.96 35.32ZM35.972 31.4384L35.1147 33.7868C32.6098 32.8724 30.1151 31.896 27.7253 30.7931L28.7729 28.5232L29.8204 26.2532C32.0358 27.2756 34.3889 28.1991 36.8294 29.0901L35.972 31.4384ZM22.0054 24.7284L20.5764 26.7797C19.4207 25.9746 18.3161 25.103 17.2798 24.152L18.97 22.31L20.6602 20.468C21.5142 21.2516 22.4411 21.9851 23.4344 22.6771L22.0054 24.7284ZM18.97 22.31L17.2798 24.152C15.6731 22.6777 14.1202 21.1783 12.6512 19.6891L14.431 17.9334L16.2108 16.1778C17.6216 17.608 19.1148 19.0498 20.6602 20.468L18.97 22.31ZM6.15714 8.43057L4.14102 9.90885C2.51925 7.69704 1.21589 5.56228 0.627102 3.78699L3 3L5.3729 2.21301C5.70529 3.21522 6.61855 4.83197 8.17325 6.9523L6.15714 8.43057Z" fill="black" fill-opacity="0.9"/>
<path d="M367.714 136.051L372.758 109.231L348.017 117.162L367.714 136.051Z" fill="black" fill-opacity="0.9"/>
<path d="M372.111 109.964L348.969 117.383L367.393 135.052L372.111 109.964Z" stroke="black" stroke-opacity="0.9"/>
</svg>
