<svg width="234" height="87" viewBox="0 0 234 87" fill="none" xmlns="http://www.w3.org/2000/svg">
<g filter="url(#filter0_d_3483_8009)">
<path d="M229.033 78.2042C228.749 77.9575 228.59 77.9464 228.22 77.9145C227.116 77.8195 225.952 77.8924 224.843 77.8981L218.803 77.9112L196.741 77.963C196.739 77.021 197.027 75.123 196.3 74.4202C195.73 73.8704 194.674 73.723 193.924 73.5641C193.923 72.0413 194.202 65.8447 193.724 64.8044L193.564 64.8593L193.57 64.765C192.168 64.5802 190.715 64.6667 189.302 64.6681L182.408 64.6701L182.266 56.0903C182.244 54.3849 182.297 52.6337 182.151 50.9374L182.063 50.8641C179.187 48.5235 175.516 46.6483 172.323 44.7448C170.413 43.6062 168.531 42.2917 166.54 41.3105C166.219 41.1523 165.88 40.965 165.514 41.0009C165.21 41.3497 165.184 41.8256 165.157 42.27C164.99 45.0494 165.22 47.9797 165.248 50.7745C165.309 56.7976 165.404 62.8201 165.533 68.8421C165.548 69.3267 165.731 71.428 165.541 71.7973C165.431 72.0104 165.234 72.0361 165.011 72.0257C164.847 72.0182 164.671 71.9677 164.576 71.8296C164.421 71.6056 164.411 71.3736 164.405 71.112C164.306 66.9369 164.434 62.7235 164.452 58.5444L164.558 29.5825C164.556 29.1269 164.711 28.0513 164.18 27.9069C163.957 27.8465 163.753 27.8237 163.524 27.7994C163.29 26.9113 163.888 24.7998 163.129 24.2035C162.945 24.0592 162.604 24.0109 162.379 23.9578C162.323 22.8582 162.74 20.0627 161.871 19.3172C161.753 19.2158 161.732 19.2032 161.616 19.1189C161.489 18.1067 160.98 17.4117 160.859 16.5186C160.576 14.4201 160.818 12.0693 160.833 9.94728C160.837 9.38198 160.929 7.98731 160.508 7.59222C160.267 7.59222 160.318 7.54531 160.164 7.68783C159.999 7.84143 159.896 8.00613 159.854 8.22745C159.715 8.97226 159.829 9.94195 159.831 10.712C159.835 12.7731 159.884 14.8528 159.798 16.9115C159.196 17.6202 159.267 17.9808 159.021 18.801C158.897 19.216 158.52 19.0746 158.368 19.5341C157.996 20.6613 158.326 22.7999 158.287 24.0584L157.188 24.3415C157.157 25.4294 157.381 26.591 157.211 27.6536C156.901 27.7526 156.415 27.5808 156.268 27.9573C155.989 28.668 156.175 66.8739 156.182 71.0679C154.694 71.3881 153.21 71.7274 151.731 72.0858L151.725 57.6738C151.724 55.0295 151.822 52.3488 151.685 49.71C150.482 47.654 145.226 43.4508 143.224 41.5006C143.229 40.5435 143.404 34.9939 143.199 34.4883C143.162 34.3974 143.071 34.3392 143.007 34.2648C142.732 34.221 142.749 34.2088 142.523 34.3675C142.022 35.5141 142.398 39.8791 142.352 41.4297C140.321 43.7709 137.899 45.9001 135.675 48.0617C134.904 48.8109 134.075 49.5442 133.37 50.3548C133.178 52.5274 133.304 54.786 133.312 56.9721L133.374 68.891L130.282 68.9034L130.268 45.5685L130.228 38.1318C130.22 37.0346 130.302 35.8591 130.2 34.7708C130.172 34.4666 130.132 34.4246 129.936 34.2019C129.346 33.944 128.703 34.0255 128.071 34.0337C128.075 32.6853 128.339 25.9717 127.779 25.3163C127.2 25.0367 126.573 25.0531 125.941 24.9975C125.935 23.8297 125.944 22.6595 125.88 21.4931C124.413 21.5305 122.911 21.6531 121.446 21.5993L121.431 7.46511C121.433 5.20061 121.607 2.80197 121.408 0.55182C121.393 0.380736 121.358 0.294191 121.254 0.159599L120.861 0C120.692 0.203192 120.588 0.339752 120.559 0.607804C120.348 2.52704 120.538 5.13571 120.538 7.12159L120.536 21.531C119.602 21.5338 117.267 21.2401 116.598 21.6959C116.053 22.4458 116.264 23.8437 116.275 24.7423C115.756 24.7266 114.744 24.5854 114.334 24.9442C114.029 25.2118 114.23 33.3084 114.227 34.3469C113.427 34.7995 112.553 35.2424 111.912 35.9157L111.898 70.3556C110.421 70.2033 108.948 69.9684 107.473 69.8328C107.407 60.1853 107.397 50.538 107.445 40.8906C105.679 39.8166 105.114 39.5955 103.041 39.5322C102.559 39.5174 102.007 39.4596 101.534 39.5597C101.33 39.6028 101.182 39.682 101.016 39.8107C100.969 39.9377 100.917 39.988 100.963 40.1197C101.266 40.4474 101.749 40.4065 102.162 40.422C103.799 40.4836 105.028 40.5031 106.512 41.3271C106.685 47.4555 106.569 53.6136 106.574 59.7458L106.579 65.7542C106.578 67.1 106.641 68.499 106.442 69.8322C105.836 69.9623 105.1 70.015 104.718 70.5652C104.059 71.5125 104.514 73.5491 104.5 74.6956C103.762 74.9579 103.02 75.1892 102.269 75.4099C101.728 75.2301 101.229 75.0422 100.721 74.7808C100.574 70.7332 100.662 66.654 100.677 62.6026C100.706 56.8262 100.698 51.0499 100.653 45.2735C100.633 42.2569 100.805 38.6378 100.581 35.7117C100.546 35.2524 100.536 34.5559 100.192 34.2228C99.8217 34.0505 99.4408 34.0264 99.0373 34.0085C96.5913 33.8994 78.6228 33.8268 77.7016 34.1838C77.4966 34.2633 77.4809 34.3396 77.411 34.5497C77.2461 35.0446 77.4269 35.868 77.4836 36.3866C76.0823 36.3877 74.6728 36.3543 73.2757 36.4767C72.36 37.1721 71.4457 37.955 70.6035 38.7374C70.4656 40.3238 70.5187 41.9402 70.5174 43.5321L70.5134 50.8418L70.4951 76.3318C68.4715 76.3907 66.4474 76.4128 64.4229 76.398L64.4275 62.8764C64.4284 60.7122 64.6768 57.551 64.2436 55.543C63.2912 55.0939 60.4591 55.3819 59.2847 55.4045L59.2347 47.6C59.2281 46.4491 59.3179 45.2348 59.2316 44.0936C59.2081 43.7815 59.1554 43.5602 58.9864 43.2977L58.7911 43.2399C58.5399 43.382 58.4914 43.4106 58.3458 43.6565C58.3686 47.5684 58.3666 51.4803 58.3401 55.3921C57.4644 55.387 56.2409 55.1997 55.4 55.4085C54.8936 56.4642 55.1528 59.2515 55.1519 60.505C55.1513 61.725 55.3069 72.7158 55.0729 73.0507C55.0293 72.4241 55.1811 71.0907 54.6143 70.6735C53.9897 70.2135 50.3123 70.3663 49.512 70.5843C48.9328 70.7419 48.4053 71.06 48.1045 71.594C47.396 72.8526 47.7118 75.2941 47.7167 76.7466L43.6627 76.7875C43.6536 75.8317 43.9537 73.4641 43.2997 72.834C42.8417 72.3924 42.0965 72.5214 41.51 72.5329C41.5108 70.6214 41.7654 61.0902 41.3282 60.0346C40.3889 59.6849 36.0529 59.6816 35.1007 59.9753C34.8353 60.2314 34.8485 60.5107 34.843 60.8708C34.8105 62.9818 34.9347 65.1115 35.0591 67.2179C34.2496 67.2093 31.2447 66.9669 30.7049 67.1967C30.3636 68.2934 30.4864 76.245 30.476 77.9181C24.3119 77.8784 18.1478 77.8733 11.9835 77.9028L6.99051 77.9451C6.21416 77.9493 5.4015 77.8935 4.62919 77.9586C4.31861 77.9847 4.27139 78.0128 4.04409 78.21C3.98381 78.4984 3.96734 78.4933 4.11262 78.7461C4.40825 78.8758 4.66417 78.8735 4.98077 78.8771C10.3016 78.9366 15.6388 78.829 20.9628 78.8485L27.2035 78.8747C28.4955 78.8811 29.8173 78.9517 31.1042 78.8359C31.6119 78.2465 31.3893 69.5576 31.3901 68.1245C32.7173 68.1364 34.3186 68.3381 35.604 68.0943C36.1837 67.4671 35.803 61.9943 35.8193 60.8032C37.4085 60.7747 38.9978 60.7744 40.5872 60.8024C40.6012 63.4189 40.6011 66.0354 40.587 68.6519C40.5832 69.9503 40.4785 71.3345 40.6175 72.624C40.6386 72.819 40.6689 73.02 40.8145 73.1604C41.2627 73.5924 42.1468 73.4488 42.7309 73.4702C42.73 74.4131 42.436 76.812 43.1222 77.4331C43.2357 77.536 43.4092 77.6259 43.5611 77.654C44.0206 77.7392 47.5182 77.7113 48.0213 77.6172C48.2927 77.5663 48.267 77.5431 48.4427 77.3609C49.1271 75.3352 47.873 73.0096 49.5985 71.3035C51.0981 71.3004 52.5862 71.3596 54.0835 71.4408C54.1165 72.2029 54.0371 73.5817 54.6159 74.1781C54.8133 74.3813 55.011 74.4483 55.2889 74.3921C55.5012 74.3492 55.817 74.1519 55.8987 73.9445C56.2624 73.0207 55.9788 58.7196 56.0627 56.3231C58.5165 56.2751 60.9939 56.2567 63.447 56.3268C63.4873 61.0904 63.4897 65.8539 63.4541 70.6173C63.451 72.4086 63.2266 75.2502 63.5667 76.9589C64.4587 77.553 69.6252 77.4512 70.8127 77.2414C71.1251 77.1862 71.3163 77.146 71.5434 76.9215L71.5843 76.5523C72.8448 75.856 77.35 77.271 78.222 76.0076C78.5474 74.6154 78.406 72.9782 78.4126 71.555L78.4368 64.9794C78.4704 54.9505 78.4465 44.9218 78.3651 34.8931L91.8813 34.8809C94.4829 34.8798 97.1229 34.7926 99.7189 34.9365L99.811 75.1426C100.459 75.701 101.063 76.1057 101.878 76.4016C103.069 76.1316 104.323 75.8688 105.443 75.3715C105.397 73.9222 105.317 72.4514 105.375 71.0025L105.527 70.9647C107.326 70.5295 111.891 71.6017 112.587 70.9352C113.062 69.3433 112.814 63.8309 112.816 61.8734L112.851 46.7004C112.849 43.2458 112.743 39.7683 112.926 36.3172C113.603 35.7647 114.341 35.3134 115.081 34.851C115.19 31.7804 115.118 28.6869 115.116 25.6137C115.646 25.6681 116.433 25.8655 116.881 25.5017C117.219 25.2279 117.254 24.8082 117.251 24.4074C117.245 23.7327 117.182 23.0674 117.198 22.3907C119.796 22.4308 122.418 22.3982 125.011 22.489C125.024 23.3485 124.784 24.8994 125.384 25.5692C125.783 26.0156 126.608 25.9671 127.156 25.9853L127.158 31.8479C127.148 32.4723 126.917 34.1166 127.336 34.5919C127.75 35.0613 128.758 34.9119 129.324 34.9279C129.442 38.0317 129.374 41.1601 129.378 44.267L129.376 60.7632C129.373 62.5221 129.145 68.1922 129.469 69.5718C130.017 69.9711 132.607 69.9078 133.352 69.8013C133.661 69.7571 133.985 69.5953 134.143 69.315C134.267 69.0933 134.313 68.8119 134.315 68.561C134.323 67.7716 134.206 66.9777 134.2 66.1853C134.166 61.0184 134.255 55.8393 134.256 50.6701C135.439 49.3631 136.829 48.2166 138.096 46.9857C139.627 45.4986 141.135 43.7692 142.803 42.4592C144.941 44.3195 149.346 47.978 150.799 50.1666C150.761 55.1734 150.747 60.1802 150.76 65.1869C150.76 67.2595 150.534 70.8354 150.933 72.7544L150.821 72.8023L151.046 72.7934L151.016 72.9216C152.044 73.1861 155.965 72.086 157.038 71.6898C157.208 70.1934 157.118 68.6311 157.113 67.1241L157.1 59.6408L157.134 35.0751C157.139 34.0224 156.943 29.6731 157.241 28.9022C157.457 28.7652 157.643 28.7209 157.891 28.6663C158.214 28.3383 158.196 27.9084 158.196 27.4743C158.195 26.7475 158.168 26.0202 158.167 25.2933C158.579 25.2663 158.818 25.2984 159.169 25.0713C159.24 24.8358 159.302 24.6014 159.359 24.3621C159.908 23.8674 160.75 24.0266 161.44 24.0458C161.504 24.4456 161.492 24.7273 161.744 25.0496C162.129 25.166 162.208 25.1667 162.476 25.4854C162.689 26.4467 162.582 27.5658 162.599 28.5503L163.615 28.9325L163.537 59.2267L163.538 68.1015C163.535 69.1843 163.457 70.2737 163.486 71.3552C163.495 71.714 163.508 72.061 163.686 72.38C164.141 72.7793 164.851 72.9722 165.451 72.9535C165.73 72.9448 165.916 72.8713 166.158 72.7277C166.33 72.5209 166.398 72.3795 166.414 72.1068C166.492 70.7781 166.4 69.3937 166.377 68.0605L166.244 60.5125C166.155 54.3566 166.227 48.1802 165.993 42.0298C168.453 43.2817 170.814 44.8944 173.179 46.3251C175.467 47.7094 179.382 49.8083 181.289 51.5007C181.317 53.4848 181.195 64.667 181.811 65.43C183.071 65.681 184.463 65.5663 185.747 65.5608C188.175 65.5502 190.612 65.4888 193.039 65.547C193.031 66.9257 192.789 73.3021 193.179 74.1179C193.925 74.6604 194.975 74.7198 195.817 75.092C195.809 76.3344 195.744 77.6131 195.824 78.851L218.615 78.8385C221.89 78.8406 225.177 78.9212 228.451 78.8769C228.65 78.8743 228.765 78.8367 228.933 78.7353C229.079 78.4847 229.081 78.4891 229.033 78.2042ZM74.6645 75.567C73.5669 75.5741 72.4695 75.5895 71.3721 75.6133C71.4569 70.4727 71.4048 65.3224 71.413 60.1805L71.446 39.3262C72.1381 38.7365 73.012 37.4756 73.8865 37.2974C75.0903 37.2679 76.294 37.2701 77.4976 37.304L77.5018 75.5606L74.6645 75.567ZM161.315 23.2032L160.944 23.1921L159.259 23.2076C159.275 22.1564 159.17 21.0927 159.321 20.0489C159.497 19.9606 159.674 19.8745 159.853 19.7903C160.085 19.2775 160.024 18.5004 160.15 17.9295L160.366 18.0468C160.699 18.451 160.502 19.0634 160.698 19.5384C160.843 19.8884 161.155 19.9961 161.476 20.1424C161.458 20.9285 161.739 22.5611 161.315 23.2032Z" fill="#E53E3E"/>
</g>
<defs>
<filter id="filter0_d_3483_8009" x="0" y="0" width="233.062" height="86.9019" filterUnits="userSpaceOnUse" color-interpolation-filters="sRGB">
<feFlood flood-opacity="0" result="BackgroundImageFix"/>
<feColorMatrix in="SourceAlpha" type="matrix" values="0 0 0 0 0 0 0 0 0 0 0 0 0 0 0 0 0 0 127 0" result="hardAlpha"/>
<feOffset dy="4"/>
<feGaussianBlur stdDeviation="2"/>
<feComposite in2="hardAlpha" operator="out"/>
<feColorMatrix type="matrix" values="0 0 0 0 0 0 0 0 0 0 0 0 0 0 0 0 0 0 0.25 0"/>
<feBlend mode="normal" in2="BackgroundImageFix" result="effect1_dropShadow_3483_8009"/>
<feBlend mode="normal" in="SourceGraphic" in2="effect1_dropShadow_3483_8009" result="shape"/>
</filter>
</defs>
</svg>
