<svg width="226" height="79" viewBox="0 0 226 79" fill="none" xmlns="http://www.w3.org/2000/svg">
<path d="M225.033 78.2042C224.749 77.9575 224.59 77.9464 224.22 77.9145C223.116 77.8195 221.952 77.8924 220.843 77.8981L214.803 77.9112L192.741 77.963C192.739 77.021 193.027 75.123 192.3 74.4202C191.73 73.8704 190.674 73.723 189.924 73.5641C189.923 72.0413 190.202 65.8447 189.724 64.8044L189.564 64.8593L189.57 64.765C188.168 64.5802 186.715 64.6667 185.302 64.6681L178.408 64.6701L178.266 56.0903C178.244 54.3849 178.297 52.6337 178.151 50.9374L178.063 50.8641C175.187 48.5235 171.516 46.6483 168.323 44.7448C166.413 43.6062 164.531 42.2917 162.54 41.3105C162.219 41.1523 161.88 40.965 161.514 41.0009C161.21 41.3497 161.184 41.8256 161.157 42.27C160.99 45.0494 161.22 47.9797 161.248 50.7745C161.309 56.7976 161.404 62.8201 161.533 68.8421C161.548 69.3267 161.731 71.428 161.541 71.7973C161.431 72.0104 161.234 72.0361 161.011 72.0257C160.847 72.0182 160.671 71.9677 160.576 71.8296C160.421 71.6056 160.411 71.3736 160.405 71.112C160.306 66.9369 160.434 62.7235 160.452 58.5444L160.558 29.5825C160.556 29.1269 160.711 28.0513 160.18 27.9069C159.957 27.8465 159.753 27.8237 159.524 27.7994C159.29 26.9113 159.888 24.7998 159.129 24.2035C158.945 24.0592 158.604 24.0109 158.379 23.9578C158.323 22.8582 158.74 20.0627 157.871 19.3172C157.753 19.2158 157.732 19.2032 157.616 19.1189C157.489 18.1067 156.98 17.4117 156.859 16.5186C156.576 14.4201 156.818 12.0693 156.833 9.94728C156.837 9.38198 156.929 7.98731 156.508 7.59222C156.267 7.59222 156.318 7.54531 156.164 7.68783C155.999 7.84143 155.896 8.00613 155.854 8.22745C155.715 8.97226 155.829 9.94195 155.831 10.712C155.835 12.7731 155.884 14.8528 155.798 16.9115C155.196 17.6202 155.267 17.9808 155.021 18.801C154.897 19.216 154.52 19.0746 154.368 19.5341C153.996 20.6613 154.326 22.7999 154.287 24.0584L153.188 24.3415C153.157 25.4294 153.381 26.591 153.211 27.6536C152.901 27.7526 152.415 27.5808 152.268 27.9573C151.989 28.668 152.175 66.8739 152.182 71.0679C150.694 71.3881 149.21 71.7274 147.731 72.0858L147.725 57.6738C147.724 55.0295 147.822 52.3488 147.685 49.71C146.482 47.654 141.226 43.4508 139.224 41.5006C139.229 40.5435 139.404 34.9939 139.199 34.4883C139.162 34.3974 139.071 34.3392 139.007 34.2648C138.732 34.221 138.749 34.2088 138.523 34.3675C138.022 35.5141 138.398 39.8791 138.352 41.4297C136.321 43.7709 133.899 45.9001 131.675 48.0617C130.904 48.8109 130.075 49.5442 129.37 50.3548C129.178 52.5274 129.304 54.786 129.312 56.9721L129.374 68.891L126.282 68.9034L126.268 45.5685L126.228 38.1318C126.22 37.0346 126.302 35.8591 126.2 34.7708C126.172 34.4666 126.132 34.4246 125.936 34.2019C125.346 33.944 124.703 34.0255 124.071 34.0337C124.075 32.6853 124.339 25.9717 123.779 25.3163C123.2 25.0367 122.573 25.0531 121.941 24.9975C121.935 23.8297 121.944 22.6595 121.88 21.4931C120.413 21.5305 118.911 21.6531 117.446 21.5993L117.431 7.46511C117.433 5.20061 117.607 2.80197 117.408 0.55182C117.393 0.380736 117.358 0.294191 117.254 0.159599L116.861 0C116.692 0.203192 116.588 0.339752 116.559 0.607804C116.348 2.52704 116.538 5.13571 116.538 7.12159L116.536 21.531C115.602 21.5338 113.267 21.2401 112.598 21.6959C112.053 22.4458 112.264 23.8437 112.275 24.7423C111.756 24.7266 110.744 24.5854 110.334 24.9442C110.029 25.2118 110.23 33.3084 110.227 34.3469C109.427 34.7995 108.553 35.2424 107.912 35.9157L107.898 70.3556C106.421 70.2033 104.948 69.9684 103.473 69.8328C103.407 60.1853 103.397 50.538 103.445 40.8906C101.679 39.8166 101.114 39.5955 99.0407 39.5322C98.5595 39.5174 98.0068 39.4596 97.5343 39.5597C97.3295 39.6028 97.1819 39.682 97.0159 39.8107C96.9694 39.9377 96.9172 39.988 96.963 40.1197C97.266 40.4474 97.7485 40.4065 98.1618 40.422C99.7985 40.4836 101.028 40.5031 102.512 41.3271C102.685 47.4555 102.569 53.6136 102.574 59.7458L102.579 65.7542C102.578 67.1 102.641 68.499 102.442 69.8322C101.836 69.9623 101.1 70.015 100.718 70.5652C100.059 71.5125 100.514 73.5491 100.5 74.6956C99.762 74.9579 99.0201 75.1892 98.2688 75.4099C97.7277 75.2301 97.2294 75.0422 96.7206 74.7808C96.5743 70.7332 96.6621 66.654 96.6772 62.6026C96.7064 56.8262 96.6984 51.0499 96.6533 45.2735C96.6334 42.2569 96.8051 38.6378 96.5813 35.7117C96.5464 35.2524 96.5364 34.5559 96.1922 34.2228C95.8217 34.0505 95.4408 34.0264 95.0373 34.0085C92.5913 33.8994 74.6228 33.8268 73.7016 34.1838C73.4966 34.2633 73.4809 34.3396 73.411 34.5497C73.2461 35.0446 73.4269 35.868 73.4836 36.3866C72.0823 36.3877 70.6728 36.3543 69.2757 36.4767C68.36 37.1721 67.4457 37.955 66.6035 38.7374C66.4656 40.3238 66.5187 41.9402 66.5174 43.5321L66.5134 50.8418L66.4951 76.3318C64.4715 76.3907 62.4474 76.4128 60.4229 76.398L60.4275 62.8764C60.4284 60.7122 60.6768 57.551 60.2436 55.543C59.2912 55.0939 56.4591 55.3819 55.2847 55.4045L55.2347 47.6C55.2281 46.4491 55.3179 45.2348 55.2316 44.0936C55.2081 43.7815 55.1554 43.5602 54.9864 43.2977L54.7911 43.2399C54.5399 43.382 54.4914 43.4106 54.3458 43.6565C54.3686 47.5684 54.3666 51.4803 54.3401 55.3921C53.4644 55.387 52.2409 55.1997 51.4 55.4085C50.8936 56.4642 51.1528 59.2515 51.1519 60.505C51.1513 61.725 51.3069 72.7158 51.0729 73.0507C51.0293 72.4241 51.1811 71.0907 50.6143 70.6735C49.9897 70.2135 46.3123 70.3663 45.512 70.5843C44.9328 70.7419 44.4053 71.06 44.1045 71.594C43.396 72.8526 43.7118 75.2941 43.7167 76.7466L39.6627 76.7875C39.6536 75.8317 39.9537 73.4641 39.2997 72.834C38.8417 72.3924 38.0965 72.5214 37.51 72.5329C37.5108 70.6214 37.7654 61.0902 37.3282 60.0346C36.3889 59.6849 32.0529 59.6816 31.1007 59.9753C30.8353 60.2314 30.8485 60.5107 30.843 60.8708C30.8105 62.9818 30.9347 65.1115 31.0591 67.2179C30.2496 67.2093 27.2447 66.9669 26.7049 67.1967C26.3636 68.2934 26.4864 76.245 26.476 77.9181C20.3119 77.8784 14.1478 77.8733 7.98355 77.9028L2.99051 77.9451C2.21416 77.9493 1.4015 77.8935 0.629193 77.9586C0.318606 77.9847 0.271388 78.0128 0.0440949 78.21C-0.0161941 78.4984 -0.0326641 78.4933 0.112619 78.7461C0.408247 78.8758 0.664173 78.8735 0.980766 78.8771C6.30161 78.9366 11.6388 78.829 16.9628 78.8485L23.2035 78.8747C24.4955 78.8811 25.8173 78.9517 27.1042 78.8359C27.6119 78.2465 27.3893 69.5576 27.3901 68.1245C28.7173 68.1364 30.3186 68.3381 31.604 68.0943C32.1837 67.4671 31.803 61.9943 31.8193 60.8032C33.4085 60.7747 34.9978 60.7744 36.5872 60.8024C36.6012 63.4189 36.6011 66.0354 36.587 68.6519C36.5832 69.9503 36.4785 71.3345 36.6175 72.624C36.6386 72.819 36.6689 73.02 36.8145 73.1604C37.2627 73.5924 38.1468 73.4488 38.7309 73.4702C38.73 74.4131 38.436 76.812 39.1222 77.4331C39.2357 77.536 39.4092 77.6259 39.5611 77.654C40.0206 77.7392 43.5182 77.7113 44.0213 77.6172C44.2927 77.5663 44.267 77.5431 44.4427 77.3609C45.1271 75.3352 43.873 73.0096 45.5985 71.3035C47.0981 71.3004 48.5862 71.3596 50.0835 71.4408C50.1165 72.2029 50.0371 73.5817 50.6159 74.1781C50.8133 74.3813 51.011 74.4483 51.2889 74.3921C51.5012 74.3492 51.817 74.1519 51.8987 73.9445C52.2624 73.0207 51.9788 58.7196 52.0627 56.3231C54.5165 56.2751 56.9939 56.2567 59.447 56.3268C59.4873 61.0904 59.4897 65.8539 59.4541 70.6173C59.451 72.4086 59.2266 75.2502 59.5667 76.9589C60.4587 77.553 65.6252 77.4512 66.8127 77.2414C67.1251 77.1862 67.3163 77.146 67.5434 76.9215L67.5843 76.5523C68.8448 75.856 73.35 77.271 74.222 76.0076C74.5474 74.6154 74.406 72.9782 74.4126 71.555L74.4368 64.9794C74.4704 54.9505 74.4465 44.9218 74.3651 34.8931L87.8813 34.8809C90.4829 34.8798 93.1229 34.7926 95.7189 34.9365L95.811 75.1426C96.4593 75.701 97.0629 76.1057 97.8776 76.4016C99.0686 76.1316 100.323 75.8688 101.443 75.3715C101.397 73.9222 101.317 72.4514 101.375 71.0025L101.527 70.9647C103.326 70.5295 107.891 71.6017 108.587 70.9352C109.062 69.3433 108.814 63.8309 108.816 61.8734L108.851 46.7004C108.849 43.2458 108.743 39.7683 108.926 36.3172C109.603 35.7647 110.341 35.3134 111.081 34.851C111.19 31.7804 111.118 28.6869 111.116 25.6137C111.646 25.6681 112.433 25.8655 112.881 25.5017C113.219 25.2279 113.254 24.8082 113.251 24.4074C113.245 23.7327 113.182 23.0674 113.198 22.3907C115.796 22.4308 118.418 22.3982 121.011 22.489C121.024 23.3485 120.784 24.8994 121.384 25.5692C121.783 26.0156 122.608 25.9671 123.156 25.9853L123.158 31.8479C123.148 32.4723 122.917 34.1166 123.336 34.5919C123.75 35.0613 124.758 34.9119 125.324 34.9279C125.442 38.0317 125.374 41.1601 125.378 44.267L125.376 60.7632C125.373 62.5221 125.145 68.1922 125.469 69.5718C126.017 69.9711 128.607 69.9078 129.352 69.8013C129.661 69.7571 129.985 69.5953 130.143 69.315C130.267 69.0933 130.313 68.8119 130.315 68.561C130.323 67.7716 130.206 66.9777 130.2 66.1853C130.166 61.0184 130.255 55.8393 130.256 50.6701C131.439 49.3631 132.829 48.2166 134.096 46.9857C135.627 45.4986 137.135 43.7692 138.803 42.4592C140.941 44.3195 145.346 47.978 146.799 50.1666C146.761 55.1734 146.747 60.1802 146.76 65.1869C146.76 67.2595 146.534 70.8354 146.933 72.7544L146.821 72.8023L147.046 72.7934L147.016 72.9216C148.044 73.1861 151.965 72.086 153.038 71.6898C153.208 70.1934 153.118 68.6311 153.113 67.1241L153.1 59.6408L153.134 35.0751C153.139 34.0224 152.943 29.6731 153.241 28.9022C153.457 28.7652 153.643 28.7209 153.891 28.6663C154.214 28.3383 154.196 27.9084 154.196 27.4743C154.195 26.7475 154.168 26.0202 154.167 25.2933C154.579 25.2663 154.818 25.2984 155.169 25.0713C155.24 24.8358 155.302 24.6014 155.359 24.3621C155.908 23.8674 156.75 24.0266 157.44 24.0458C157.504 24.4456 157.492 24.7273 157.744 25.0496C158.129 25.166 158.208 25.1667 158.476 25.4854C158.689 26.4467 158.582 27.5658 158.599 28.5503L159.615 28.9325L159.537 59.2267L159.538 68.1015C159.535 69.1843 159.457 70.2737 159.486 71.3552C159.495 71.714 159.508 72.061 159.686 72.38C160.141 72.7793 160.851 72.9722 161.451 72.9535C161.73 72.9448 161.916 72.8713 162.158 72.7277C162.33 72.5209 162.398 72.3795 162.414 72.1068C162.492 70.7781 162.4 69.3937 162.377 68.0605L162.244 60.5125C162.155 54.3566 162.227 48.1802 161.993 42.0298C164.453 43.2817 166.814 44.8944 169.179 46.3251C171.467 47.7094 175.382 49.8083 177.289 51.5007C177.317 53.4848 177.195 64.667 177.811 65.43C179.071 65.681 180.463 65.5663 181.747 65.5608C184.175 65.5502 186.612 65.4888 189.039 65.547C189.031 66.9257 188.789 73.3021 189.179 74.1179C189.925 74.6604 190.975 74.7198 191.817 75.092C191.809 76.3344 191.744 77.6131 191.824 78.851L214.615 78.8385C217.89 78.8406 221.177 78.9212 224.451 78.8769C224.65 78.8743 224.765 78.8367 224.933 78.7353C225.079 78.4847 225.081 78.4891 225.033 78.2042ZM70.6645 75.567C69.5669 75.5741 68.4695 75.5895 67.3721 75.6133C67.4569 70.4727 67.4048 65.3224 67.413 60.1805L67.446 39.3262C68.1381 38.7365 69.012 37.4756 69.8865 37.2974C71.0903 37.2679 72.294 37.2701 73.4976 37.304L73.5018 75.5606L70.6645 75.567ZM157.315 23.2032L156.944 23.1921L155.259 23.2076C155.275 22.1564 155.17 21.0927 155.321 20.0489C155.497 19.9606 155.674 19.8745 155.853 19.7903C156.085 19.2775 156.024 18.5004 156.15 17.9295L156.366 18.0468C156.699 18.451 156.502 19.0634 156.698 19.5384C156.843 19.8884 157.155 19.9961 157.476 20.1424C157.458 20.9285 157.739 22.5611 157.315 23.2032Z" fill="#E53E3E"/>
</svg>
