<svg viewBox="0 0 758 495" fill="none" xmlns="http://www.w3.org/2000/svg" preserveAspectRatio="xMidYMid meet">
  <path d="M13.7417 26.6373C20.2265 26.6373 25.4835 21.3459 25.4835 14.8186C25.4835 8.29139 20.2265 3 13.7417 3C7.25696 3 2 8.29139 2 14.8186C2 21.3459 7.25696 26.6373 13.7417 26.6373Z" fill="white" stroke="black" stroke-width="2.89" stroke-miterlimit="10" stroke-dasharray="6.93 6.93" />
  <path d="M700.444 516.714C717.81 516.714 731.888 503.347 731.888 486.857C731.888 470.368 717.81 457 700.444 457C683.078 457 669 470.368 669 486.857C669 503.347 683.078 516.714 700.444 516.714Z" fill="black" />
  <path d="M694.742 498.717V496.058L700.955 490.305C701.483 489.794 701.927 489.333 702.285 488.924C702.648 488.515 702.924 488.115 703.111 487.722C703.299 487.325 703.393 486.896 703.393 486.436C703.393 485.924 703.276 485.484 703.043 485.115C702.81 484.74 702.492 484.453 702.089 484.254C701.685 484.049 701.228 483.947 700.716 483.947C700.182 483.947 699.716 484.055 699.319 484.271C698.921 484.487 698.614 484.796 698.398 485.2C698.182 485.603 698.074 486.083 698.074 486.64H694.572C694.572 485.498 694.83 484.507 695.347 483.666C695.864 482.825 696.589 482.174 697.52 481.714C698.452 481.254 699.526 481.024 700.742 481.024C701.992 481.024 703.08 481.245 704.006 481.688C704.938 482.126 705.662 482.734 706.179 483.512C706.697 484.291 706.955 485.183 706.955 486.188C706.955 486.847 706.824 487.498 706.563 488.14C706.307 488.782 705.85 489.495 705.191 490.279C704.532 491.058 703.603 491.992 702.404 493.083L699.856 495.58V495.7H707.185V498.717H694.742Z" fill="white" />
  <path d="M25 10.2507C49.203 -1.0443 85.1741 -5.3909 123.12 45.3601C185.532 128.833 197.563 304.778 255.956 362.936C303.432 410.198 347.301 385.22 376.33 357.886C479.268 91.7033 600.336 79.8267 663.415 279.647C669.944 300.339 677.131 325.929 684.046 358.957C691.716 395.627 696.718 430.247 700 457" stroke="black" stroke-width="5" stroke-miterlimit="10" stroke-dasharray="12 12" />
</svg>